{"glyphs":{"0":{"ha":869,"x_min":78,"x_max":793,"o":"m 435 -14 q 291 14 357 -14 q 178 92 225 42 q 104 213 131 143 q 78 365 78 282 l 78 624 q 104 776 78 707 q 178 897 131 846 q 291 975 225 947 q 435 1003 357 1003 q 579 975 514 1003 q 692 897 644 947 q 767 776 740 846 q 793 624 793 707 l 793 365 q 767 213 793 282 q 692 92 740 143 q 579 14 644 42 q 435 -14 514 -14 m 435 136 q 583 197 526 136 q 640 365 640 257 l 640 624 q 583 792 640 732 q 435 853 526 853 q 288 792 344 853 q 231 624 231 732 l 231 365 q 288 197 231 257 q 435 136 344 136 z "},"1":{"ha":465,"x_min":39,"x_max":344,"o":"m 192 835 l 39 835 l 39 986 l 344 986 l 344 0 l 192 0 l 192 835 z "},"2":{"ha":779,"x_min":54,"x_max":713,"o":"m 54 132 l 438 501 q 514 591 481 543 q 547 699 547 639 q 535 758 547 731 q 503 807 524 786 q 452 840 482 828 q 388 853 422 853 q 324 841 354 853 q 272 808 294 829 q 232 759 249 788 q 210 697 215 731 l 60 731 q 101 842 71 792 q 174 928 131 893 q 274 983 218 964 q 394 1003 331 1003 q 514 983 458 1003 q 611 924 569 963 q 676 830 653 885 q 700 706 700 775 q 654 532 700 607 q 535 386 608 457 l 289 150 l 713 150 l 713 0 l 54 0 l 54 132 z "},"3":{"ha":789,"x_min":32,"x_max":726,"o":"m 385 -15 q 269 2 326 -15 q 165 51 213 19 q 81 128 117 83 q 32 231 46 174 l 183 286 q 255 177 201 219 q 388 135 308 135 q 521 182 469 135 q 572 303 572 229 q 519 431 572 385 q 379 476 465 476 l 257 476 l 257 601 l 476 838 l 94 838 l 94 986 l 679 986 l 679 863 l 446 611 q 565 579 513 606 q 653 512 617 553 q 708 417 689 471 q 726 303 726 364 q 701 174 726 232 q 631 74 676 115 q 524 8 586 32 q 385 -15 461 -15 z "},"4":{"ha":869,"x_min":24,"x_max":818,"o":"m 533 247 l 24 247 l 24 371 l 550 986 l 686 986 l 686 389 l 818 389 l 818 247 l 686 247 l 686 0 l 533 0 l 533 247 m 533 389 l 533 758 l 215 389 l 533 389 z "},"5":{"ha":799,"x_min":57,"x_max":744,"o":"m 410 -14 q 294 3 351 -14 q 188 53 236 21 q 106 130 140 85 q 57 232 71 175 l 207 288 q 278 178 225 221 q 410 136 331 136 q 483 151 450 136 q 540 190 517 165 q 577 249 564 215 q 590 319 590 282 q 577 390 590 357 q 540 449 564 424 q 482 488 515 474 q 410 503 449 503 q 315 481 357 503 q 253 422 274 460 l 103 422 l 103 986 l 678 986 l 678 838 l 256 838 l 256 588 q 331 628 283 611 q 431 644 378 644 q 560 619 503 644 q 659 548 618 593 q 722 440 700 503 q 744 304 744 378 q 719 176 744 235 q 650 76 694 118 q 544 10 606 33 q 410 -14 483 -14 z "},"6":{"ha":783,"x_min":50,"x_max":726,"o":"m 388 -14 q 251 12 313 -14 q 144 82 189 38 q 74 188 99 126 q 50 318 50 249 q 58 388 50 356 q 81 451 67 421 q 116 512 96 482 q 161 574 136 542 l 490 986 l 682 986 l 404 636 l 419 636 q 533 613 478 636 q 631 547 589 589 q 700 447 674 506 q 726 319 726 389 q 702 188 726 249 q 633 83 678 128 q 525 12 588 38 q 388 -14 463 -14 m 388 133 q 460 148 426 133 q 519 188 494 163 q 558 246 544 213 q 572 318 572 279 q 558 390 572 356 q 519 449 544 424 q 460 488 494 474 q 388 503 426 503 q 314 488 347 503 q 256 449 281 474 q 218 390 232 424 q 204 318 204 356 q 218 246 204 279 q 256 188 232 213 q 314 148 281 163 q 388 133 347 133 z "},"7":{"ha":729,"x_min":43,"x_max":710,"o":"m 75 0 l 528 838 l 43 838 l 43 986 l 710 986 l 710 856 l 247 0 l 75 0 z "},"8":{"ha":804,"x_min":63,"x_max":742,"o":"m 401 -14 q 266 9 328 -14 q 159 74 204 32 q 88 173 114 115 q 63 299 63 231 q 99 448 63 385 q 203 547 136 511 q 135 632 158 582 q 111 743 111 682 q 133 847 111 799 q 192 929 154 894 q 284 983 231 964 q 401 1003 338 1003 q 520 983 467 1003 q 613 929 574 964 q 672 847 651 894 q 693 743 693 799 q 669 632 693 682 q 601 547 646 582 q 705 448 668 511 q 742 299 742 385 q 717 173 742 231 q 647 74 692 115 q 539 9 601 32 q 401 -14 476 -14 m 401 129 q 479 143 444 129 q 538 181 514 157 q 574 235 561 204 q 586 301 586 267 q 574 368 586 336 q 538 423 561 400 q 480 460 514 446 q 403 474 446 474 q 326 460 360 474 q 267 423 292 446 q 231 368 243 400 q 218 301 218 336 q 231 235 218 267 q 267 181 243 204 q 326 143 292 157 q 401 129 360 129 m 401 603 q 506 642 467 603 q 544 733 544 681 q 506 826 544 789 q 401 864 468 864 q 299 826 339 864 q 260 733 260 789 q 270 683 260 707 q 299 642 281 660 q 344 613 318 624 q 401 603 369 603 z "},"9":{"ha":783,"x_min":57,"x_max":735,"o":"m 381 353 l 365 353 q 251 376 307 353 q 153 442 196 400 q 83 542 110 483 q 57 669 57 600 q 82 800 57 739 q 151 906 107 861 q 258 977 196 951 q 396 1003 321 1003 q 533 977 471 1003 q 640 906 596 951 q 710 801 685 861 q 735 671 735 740 q 726 599 735 632 q 703 536 718 567 q 668 476 689 506 q 622 414 647 446 l 292 0 l 100 0 l 381 353 m 396 485 q 469 499 435 485 q 527 539 503 514 q 565 598 551 564 q 579 671 579 632 q 565 742 579 708 q 527 801 551 776 q 469 841 503 826 q 396 856 435 856 q 322 841 356 856 q 265 801 289 826 q 226 742 240 776 q 213 671 213 708 q 226 598 213 632 q 265 539 240 564 q 322 499 289 514 q 396 485 356 485 z "}," ":{"ha":326,"x_min":0,"x_max":0,"o":""},"!":{"ha":390,"x_min":93,"x_max":297,"o":"m 118 603 l 118 986 l 272 986 l 272 603 l 242 331 l 147 331 l 118 603 m 194 -11 q 123 19 153 -11 q 93 92 93 49 q 123 163 93 133 q 194 193 153 193 q 267 163 238 193 q 297 92 297 133 q 267 19 297 49 q 194 -11 238 -11 z "},"\"":{"ha":588,"x_min":88,"x_max":500,"o":"m 88 986 l 219 986 l 219 617 l 88 617 l 88 986 m 368 986 l 500 986 l 500 617 l 368 617 l 368 986 z "},"#":{"ha":1017,"x_min":46,"x_max":971,"o":"m 550 268 l 324 268 l 240 0 l 106 0 l 189 268 l 46 268 l 46 390 l 228 390 l 293 601 l 147 601 l 147 724 l 332 724 l 414 986 l 549 986 l 467 724 l 692 724 l 774 986 l 908 986 l 826 724 l 971 724 l 971 601 l 789 601 l 722 390 l 871 390 l 871 268 l 683 268 l 600 0 l 467 0 l 550 268 m 363 390 l 589 390 l 654 601 l 429 601 l 363 390 z "},"$":{"ha":736,"x_min":54,"x_max":683,"o":"m 338 -12 q 170 29 244 -6 q 54 115 96 64 l 153 228 q 235 164 186 188 q 338 133 283 140 l 338 432 l 289 450 q 124 561 182 490 q 67 736 67 632 q 88 840 67 793 q 145 921 108 886 q 231 976 182 956 q 338 1001 281 996 l 338 1108 l 413 1108 l 413 1001 q 553 960 492 994 q 651 879 615 925 l 547 775 q 413 854 489 840 l 413 574 l 461 556 q 626 444 569 514 q 683 263 683 375 q 663 151 683 200 q 607 67 643 101 q 522 12 571 32 q 413 -12 472 -8 l 413 -122 l 338 -122 l 338 -12 m 531 257 q 501 344 531 310 q 413 403 471 379 l 413 135 q 497 176 464 144 q 531 257 531 208 m 219 740 q 248 660 219 692 q 338 603 276 629 l 338 854 q 253 816 288 846 q 219 740 219 786 z "},"%":{"ha":1369,"x_min":42,"x_max":1328,"o":"m 292 0 l 917 986 l 1078 986 l 453 0 l 292 0 m 1054 -11 q 947 10 997 -11 q 860 69 897 32 q 802 156 824 107 q 781 263 781 206 q 802 369 781 319 q 860 456 824 419 q 947 515 897 493 q 1054 536 997 536 q 1160 515 1110 536 q 1247 456 1210 493 q 1306 369 1285 419 q 1328 263 1328 319 q 1306 156 1328 206 q 1247 69 1285 107 q 1160 10 1210 32 q 1054 -11 1110 -11 m 1054 122 q 1108 133 1083 122 q 1152 164 1133 144 q 1181 208 1171 183 q 1192 263 1192 233 q 1181 317 1192 292 q 1152 361 1171 342 q 1108 392 1133 381 q 1054 403 1083 403 q 999 392 1025 403 q 955 361 974 381 q 925 317 936 342 q 914 263 914 292 q 925 208 914 233 q 955 164 936 183 q 999 133 974 144 q 1054 122 1025 122 m 315 450 q 208 472 258 450 q 122 531 158 493 q 63 617 85 568 q 42 724 42 667 q 63 831 42 781 q 122 917 85 881 q 208 976 158 954 q 315 997 258 997 q 421 976 371 997 q 508 917 471 954 q 567 831 546 881 q 589 724 589 781 q 567 617 589 667 q 508 531 546 568 q 421 472 471 493 q 315 450 371 450 m 315 583 q 369 594 344 583 q 413 625 394 606 q 443 669 432 644 q 454 724 454 694 q 443 778 454 753 q 413 822 432 803 q 369 853 394 842 q 315 864 344 864 q 260 853 286 864 q 216 822 235 842 q 187 778 197 803 q 176 724 176 753 q 187 669 176 694 q 216 625 197 644 q 260 594 235 606 q 315 583 286 583 z "},"&":{"ha":1042,"x_min":89,"x_max":1057,"o":"m 403 -14 q 271 8 329 -14 q 172 69 213 31 q 110 160 132 108 q 89 274 89 213 q 105 367 89 325 q 148 442 121 408 q 211 501 175 475 q 286 551 247 528 q 207 647 242 594 q 172 768 172 700 q 192 860 172 818 q 248 935 213 903 q 332 985 283 967 q 438 1003 381 1003 q 543 983 496 1003 q 624 931 590 964 q 676 856 657 899 q 694 767 694 814 q 680 685 694 721 q 640 621 665 650 q 583 569 615 592 q 514 526 550 546 l 703 343 l 847 524 l 954 435 l 801 247 l 1057 0 l 856 0 l 711 140 q 565 24 636 61 q 403 -14 494 -14 m 406 122 q 510 149 461 122 q 613 235 560 176 l 386 456 l 385 456 q 276 371 311 415 q 240 271 240 326 q 255 206 240 233 q 292 159 269 178 q 345 131 315 140 q 406 122 375 122 m 319 767 q 327 726 319 744 q 348 690 335 708 q 380 655 361 672 q 419 617 399 638 l 424 619 q 511 677 478 647 q 544 758 544 707 q 514 840 544 808 q 435 872 483 872 q 353 844 388 872 q 319 767 319 815 z "},"'":{"ha":307,"x_min":88,"x_max":219,"o":"m 88 986 l 219 986 l 219 617 l 88 617 l 88 986 z "},"(":{"ha":379,"x_min":60,"x_max":336,"o":"m 193 444 q 227 135 193 285 q 336 -172 261 -14 l 238 -222 q 60 444 60 100 q 238 1111 60 789 l 336 1061 q 227 753 261 903 q 193 444 193 604 z "},")":{"ha":379,"x_min":43,"x_max":319,"o":"m 186 444 q 152 753 186 604 q 43 1061 118 903 l 142 1111 q 319 444 319 789 q 142 -222 319 100 l 43 -172 q 152 135 118 -14 q 186 444 186 285 z "},"*":{"ha":646,"x_min":50,"x_max":596,"o":"m 119 536 l 232 690 l 50 751 l 82 858 l 267 799 l 267 986 l 378 986 l 378 799 l 563 858 l 596 751 l 413 692 l 526 536 l 438 472 l 324 626 l 208 472 l 119 536 z "},"+":{"ha":689,"x_min":51,"x_max":638,"o":"m 51 469 l 276 469 l 276 694 l 413 694 l 413 469 l 638 469 l 638 335 l 413 335 l 413 110 l 276 110 l 276 335 l 51 335 l 51 469 z "},",":{"ha":332,"x_min":8,"x_max":268,"o":"m 268 92 q 263 61 268 76 q 251 33 258 46 l 103 -204 l 8 -204 l 111 6 q 77 42 90 19 q 64 92 64 64 q 94 163 64 133 q 165 193 124 193 q 238 163 208 193 q 268 92 268 133 z "},"-":{"ha":544,"x_min":86,"x_max":460,"o":"m 86 464 l 460 464 l 460 314 l 86 314 l 86 464 z "},".":{"ha":332,"x_min":64,"x_max":268,"o":"m 165 -11 q 94 19 124 -11 q 64 92 64 49 q 94 163 64 133 q 165 193 124 193 q 238 163 208 193 q 268 92 268 133 q 238 19 268 49 q 165 -11 208 -11 z "},"/":{"ha":731,"x_min":28,"x_max":704,"o":"m 564 986 l 704 986 l 168 -153 l 28 -153 l 564 986 z "},":":{"ha":335,"x_min":65,"x_max":269,"o":"m 167 472 q 95 502 125 472 q 65 575 65 532 q 95 647 65 617 q 167 676 125 676 q 240 647 210 676 q 269 575 269 617 q 240 502 269 532 q 167 472 210 472 m 167 -11 q 95 19 125 -11 q 65 92 65 49 q 95 163 65 133 q 167 193 125 193 q 240 163 210 193 q 269 92 269 133 q 240 19 269 49 q 167 -11 210 -11 z "},";":{"ha":329,"x_min":8,"x_max":268,"o":"m 165 472 q 94 502 124 472 q 64 575 64 532 q 94 647 64 617 q 165 676 124 676 q 238 647 208 676 q 268 575 268 617 q 238 502 268 532 q 165 472 208 472 m 268 92 q 263 61 268 76 q 251 33 258 46 l 103 -204 l 8 -204 l 111 6 q 77 42 90 19 q 64 92 64 64 q 94 163 64 133 q 165 193 124 193 q 238 163 208 193 q 268 92 268 133 z "},"=":{"ha":765,"x_min":90,"x_max":676,"o":"m 90 321 l 676 321 l 676 188 l 90 188 l 90 321 m 90 618 l 676 618 l 676 483 l 90 483 l 90 618 z "},"?":{"ha":740,"x_min":38,"x_max":669,"o":"m 267 368 q 305 472 267 426 q 390 551 343 518 q 440 588 417 571 q 480 623 463 604 q 507 663 497 642 q 517 714 517 685 q 504 769 517 744 q 471 813 492 794 q 422 842 450 832 q 364 853 394 853 q 247 822 301 853 q 160 735 193 792 l 38 814 q 91 887 58 853 q 166 947 124 921 q 259 988 208 972 q 367 1003 310 1003 q 489 980 433 1003 q 585 917 544 957 q 647 826 625 878 q 669 719 669 775 q 631 576 669 633 q 535 474 593 518 q 454 411 489 439 q 419 349 419 383 l 419 342 l 267 342 l 267 368 m 342 -11 q 270 19 300 -11 q 240 92 240 49 q 270 163 240 133 q 342 193 300 193 q 415 163 385 193 q 444 92 444 133 q 415 19 444 49 q 342 -11 385 -11 z "},"@":{"ha":1122,"x_min":60,"x_max":1074,"o":"m 543 -14 q 340 24 429 -14 q 188 126 250 61 q 92 280 125 192 q 60 468 60 368 q 104 685 60 586 q 223 854 149 783 q 395 964 297 925 q 600 1003 493 1003 q 787 972 700 1003 q 938 883 874 940 q 1038 745 1001 826 q 1074 564 1074 664 q 1053 408 1074 474 q 997 301 1032 343 q 917 240 963 260 q 824 219 872 219 q 728 243 764 219 q 676 297 692 267 q 601 242 649 263 q 501 222 554 222 q 415 240 454 222 q 347 288 375 257 q 302 364 318 319 q 286 461 286 408 q 308 581 286 525 q 367 677 329 636 q 456 742 406 718 q 565 765 507 765 q 623 756 597 765 q 668 733 649 747 q 700 705 688 719 q 719 678 713 690 l 733 751 l 854 751 l 786 432 q 785 354 776 386 q 839 322 794 322 q 934 381 899 322 q 969 567 969 439 q 940 709 969 646 q 861 815 911 772 q 743 881 811 858 q 599 904 675 904 q 435 874 514 904 q 297 788 357 844 q 202 651 238 732 q 167 468 167 569 q 192 313 167 383 q 267 191 218 242 q 385 112 315 140 q 543 83 456 83 q 673 97 608 83 q 794 142 738 111 l 835 47 q 692 1 769 17 q 543 -14 615 -14 m 522 332 q 602 353 567 332 q 658 410 638 374 l 693 565 q 651 626 682 597 q 569 654 621 654 q 467 614 511 654 q 411 511 422 574 q 428 383 397 435 q 522 332 460 332 z "},"A":{"ha":1014,"x_min":6,"x_max":1008,"o":"m 436 986 l 578 986 l 1008 0 l 839 0 l 726 258 l 285 258 l 174 0 l 6 0 l 436 986 m 347 403 l 664 403 l 506 767 l 347 403 z "},"B":{"ha":876,"x_min":121,"x_max":822,"o":"m 121 986 l 461 986 q 582 965 528 986 q 674 906 636 943 q 734 819 713 868 q 756 714 756 769 q 730 601 756 647 q 664 524 704 554 q 777 438 732 496 q 822 289 822 381 q 799 175 822 228 q 733 83 775 122 q 633 22 692 44 q 504 0 575 0 l 121 0 l 121 986 m 500 149 q 622 188 579 149 q 664 290 664 228 q 622 392 664 351 q 500 432 579 432 l 283 432 l 283 149 l 500 149 m 453 571 q 558 609 519 571 q 596 704 596 647 q 558 798 596 758 q 453 838 519 838 l 283 838 l 283 571 l 453 571 z "},"C":{"ha":1047,"x_min":58,"x_max":1013,"o":"m 568 -17 q 369 23 461 -17 q 207 131 276 63 q 98 293 138 200 q 58 493 58 386 q 98 693 58 600 q 207 855 138 786 q 369 963 276 924 q 568 1003 461 1003 q 830 935 714 1003 q 1013 753 946 867 l 872 672 q 747 799 824 751 q 568 846 671 846 q 431 818 494 846 q 322 742 368 790 q 249 631 275 694 q 222 493 222 567 q 249 356 222 419 q 322 244 275 292 q 431 168 368 196 q 568 140 494 140 q 747 188 671 140 q 872 314 824 235 l 1013 233 q 830 51 946 119 q 568 -17 714 -17 z "},"D":{"ha":999,"x_min":121,"x_max":940,"o":"m 121 986 l 424 986 q 628 949 533 986 q 792 844 722 911 q 901 688 861 778 q 940 493 940 597 q 901 299 940 389 q 792 142 861 208 q 628 38 722 75 q 424 0 533 0 l 121 0 l 121 986 m 424 151 q 567 178 503 151 q 678 250 632 204 q 750 358 725 296 q 775 493 775 421 q 750 628 775 565 q 678 736 725 690 q 567 808 632 782 q 424 835 503 835 l 283 835 l 283 151 l 424 151 z "},"E":{"ha":781,"x_min":121,"x_max":714,"o":"m 121 986 l 714 986 l 714 831 l 283 831 l 283 578 l 631 578 l 631 422 l 283 422 l 283 156 l 714 156 l 714 0 l 121 0 l 121 986 z "},"F":{"ha":744,"x_min":121,"x_max":707,"o":"m 121 986 l 707 986 l 707 831 l 283 831 l 283 576 l 617 576 l 617 422 l 283 422 l 283 0 l 121 0 l 121 986 z "},"G":{"ha":1061,"x_min":58,"x_max":985,"o":"m 592 -17 q 377 22 475 -17 q 208 130 279 61 q 98 292 138 199 q 58 493 58 385 q 97 693 58 600 q 205 855 136 786 q 369 963 274 924 q 575 1003 464 1003 q 792 964 697 1003 q 957 854 888 925 l 846 739 q 731 817 797 788 q 575 846 665 846 q 433 818 497 846 q 321 742 368 790 q 248 631 274 694 q 222 493 222 567 q 248 353 222 418 q 322 242 274 289 q 438 167 369 194 q 590 140 506 140 q 721 155 657 140 q 826 204 785 169 l 826 424 l 579 424 l 579 576 l 985 576 l 985 125 q 907 63 951 89 q 812 18 863 36 q 705 -8 761 0 q 592 -17 649 -17 z "},"H":{"ha":1056,"x_min":121,"x_max":933,"o":"m 121 986 l 283 986 l 283 578 l 771 578 l 771 986 l 933 986 l 933 0 l 771 0 l 771 424 l 283 424 l 283 0 l 121 0 l 121 986 z "},"I":{"ha":404,"x_min":121,"x_max":283,"o":"m 121 986 l 283 986 l 283 0 l 121 0 l 121 986 z "},"J":{"ha":653,"x_min":6,"x_max":540,"o":"m 254 -17 q 103 15 164 -17 q 6 86 42 46 l 103 203 q 167 153 133 171 q 249 135 201 135 q 342 167 306 135 q 378 278 378 200 l 378 986 l 540 986 l 540 269 q 517 141 540 194 q 456 52 494 88 q 365 0 417 17 q 254 -17 313 -17 z "},"K":{"ha":947,"x_min":121,"x_max":981,"o":"m 282 461 l 282 0 l 121 0 l 121 986 l 282 986 l 282 561 l 678 986 l 883 986 l 444 514 l 981 0 l 761 0 l 282 461 z "},"L":{"ha":763,"x_min":121,"x_max":735,"o":"m 121 986 l 283 986 l 283 156 l 735 156 l 735 0 l 121 0 l 121 986 z "},"M":{"ha":1229,"x_min":121,"x_max":1107,"o":"m 121 986 l 269 986 l 614 435 l 958 986 l 1107 986 l 1107 0 l 944 0 l 944 674 l 671 235 l 560 235 l 283 675 l 283 0 l 121 0 l 121 986 z "},"N":{"ha":1101,"x_min":121,"x_max":981,"o":"m 839 0 l 283 710 l 283 0 l 121 0 l 121 986 l 263 986 l 817 278 l 817 986 l 981 986 l 981 0 l 839 0 z "},"O":{"ha":1135,"x_min":58,"x_max":1078,"o":"m 568 140 q 703 168 640 140 q 813 244 767 196 q 886 356 860 292 q 913 493 913 419 q 886 631 913 567 q 813 742 860 694 q 703 818 767 790 q 568 846 640 846 q 431 818 494 846 q 322 742 368 790 q 249 631 275 694 q 222 493 222 567 q 249 356 222 419 q 322 244 275 292 q 431 168 368 196 q 568 140 494 140 m 568 -17 q 369 23 461 -17 q 207 131 276 63 q 98 293 138 200 q 58 493 58 386 q 98 693 58 600 q 207 855 138 786 q 369 963 276 924 q 568 1003 461 1003 q 767 963 674 1003 q 928 855 860 924 q 1038 693 997 786 q 1078 493 1078 600 q 1038 293 1078 386 q 928 131 997 200 q 767 23 860 63 q 568 -17 674 -17 z "},"P":{"ha":817,"x_min":121,"x_max":776,"o":"m 776 664 q 751 537 776 596 q 681 435 726 478 q 574 367 636 392 q 435 342 511 342 l 283 342 l 283 0 l 121 0 l 121 986 l 435 986 q 574 961 511 986 q 681 893 636 936 q 751 791 726 850 q 776 664 776 732 m 617 664 q 569 785 617 736 q 433 833 521 833 l 283 833 l 283 494 l 433 494 q 569 543 521 494 q 617 664 617 592 z "},"Q":{"ha":1147,"x_min":58,"x_max":1082,"o":"m 568 -17 q 369 23 461 -17 q 207 131 276 63 q 98 293 138 200 q 58 493 58 386 q 98 693 58 600 q 207 855 138 786 q 369 963 276 924 q 568 1003 461 1003 q 767 963 674 1003 q 928 855 860 924 q 1038 693 997 786 q 1078 493 1078 600 q 1052 331 1078 407 q 979 190 1026 254 l 1082 101 l 986 -11 l 875 85 q 733 10 811 36 q 568 -17 656 -17 m 568 140 q 666 154 619 140 q 753 193 713 168 l 600 328 l 697 440 l 857 299 q 898 390 883 340 q 913 493 913 439 q 886 631 913 567 q 813 742 860 694 q 703 818 767 790 q 568 846 640 846 q 431 818 494 846 q 322 742 368 790 q 249 631 275 694 q 222 493 222 567 q 249 356 222 419 q 322 244 275 292 q 431 168 368 196 q 568 140 494 140 z "},"R":{"ha":896,"x_min":121,"x_max":918,"o":"m 121 986 l 476 986 q 600 965 544 986 q 694 907 656 944 q 754 818 733 869 q 775 706 775 767 q 717 534 775 601 q 551 443 658 467 l 918 0 l 718 0 l 357 433 l 283 433 l 283 0 l 121 0 l 121 986 m 457 575 q 571 608 529 575 q 613 706 613 642 q 571 803 613 769 q 457 836 529 836 l 283 836 l 283 575 l 457 575 z "},"S":{"ha":779,"x_min":43,"x_max":725,"o":"m 396 -17 q 282 -3 336 -17 q 182 33 228 10 q 101 88 136 56 q 43 161 65 121 l 171 263 q 269 169 210 203 q 400 136 328 136 q 515 169 471 136 q 560 258 560 203 q 525 347 560 311 q 419 408 490 382 l 311 447 q 136 557 193 490 q 79 725 79 624 q 103 841 79 789 q 170 928 128 893 q 271 983 213 964 q 399 1003 329 1003 q 567 968 490 1003 q 697 868 643 933 l 585 758 q 503 826 549 803 q 399 850 457 850 q 339 842 367 850 q 290 820 311 835 q 256 784 268 806 q 243 736 243 763 q 279 652 243 682 q 393 594 315 622 l 493 557 q 663 448 601 517 q 725 268 725 379 q 701 151 725 203 q 633 61 676 99 q 528 3 589 24 q 396 -17 468 -17 z "},"T":{"ha":788,"x_min":26,"x_max":763,"o":"m 313 831 l 26 831 l 26 986 l 763 986 l 763 831 l 475 831 l 475 0 l 313 0 l 313 831 z "},"U":{"ha":1004,"x_min":110,"x_max":894,"o":"m 503 -17 q 343 12 415 -17 q 219 92 271 40 q 138 219 167 144 q 110 386 110 294 l 110 986 l 272 986 l 272 383 q 335 203 272 267 q 503 140 399 140 q 669 203 607 140 q 732 383 732 267 l 732 986 l 894 986 l 894 386 q 865 219 894 294 q 784 92 836 144 q 660 12 732 40 q 503 -17 589 -17 z "},"V":{"ha":986,"x_min":8,"x_max":978,"o":"m 8 986 l 186 986 l 493 249 l 799 986 l 978 986 l 564 0 l 422 0 l 8 986 z "},"W":{"ha":1401,"x_min":18,"x_max":1383,"o":"m 18 986 l 190 986 l 403 275 l 629 986 l 771 986 l 996 275 l 1210 986 l 1383 986 l 1076 0 l 931 0 l 700 729 l 471 0 l 326 0 l 18 986 z "},"X":{"ha":949,"x_min":-1,"x_max":950,"o":"m -1 0 l 375 500 l 17 986 l 208 986 l 474 626 l 740 986 l 932 986 l 574 499 l 950 0 l 756 0 l 475 369 l 194 0 l -1 0 z "},"Y":{"ha":946,"x_min":18,"x_max":929,"o":"m 392 417 l 18 986 l 208 986 l 472 578 l 738 986 l 929 986 l 554 415 l 554 0 l 392 0 l 392 417 z "},"Z":{"ha":836,"x_min":50,"x_max":785,"o":"m 50 110 l 553 831 l 63 831 l 63 986 l 774 986 l 774 876 l 268 156 l 785 156 l 785 0 l 50 0 l 50 110 z "},"[":{"ha":436,"x_min":118,"x_max":399,"o":"m 118 1111 l 399 1111 l 399 993 l 250 993 l 250 -104 l 399 -104 l 399 -222 l 118 -222 l 118 1111 z "},"]":{"ha":436,"x_min":38,"x_max":318,"o":"m 318 -222 l 38 -222 l 38 -104 l 186 -104 l 186 993 l 38 993 l 38 1111 l 318 1111 l 318 -222 z "},"_":{"ha":728,"x_min":67,"x_max":661,"o":"m 67 0 l 661 0 l 661 -122 l 67 -122 l 67 0 z "},"`":{"ha":0,"x_min":-151,"x_max":150,"o":"m 32 788 l -151 1014 l 32 1014 l 150 788 l 32 788 z "},"a":{"ha":860,"x_min":54,"x_max":756,"o":"m 400 -14 q 259 15 322 -14 q 150 94 196 44 q 79 208 104 143 q 54 347 54 274 q 79 486 54 421 q 150 601 104 551 q 259 679 196 650 q 400 708 322 708 q 515 688 463 708 q 603 631 567 668 l 603 694 l 756 694 l 756 0 l 603 0 l 603 65 q 515 6 567 26 q 400 -14 463 -14 m 418 125 q 530 153 485 125 q 603 222 575 181 l 603 474 q 530 542 575 514 q 418 569 485 569 q 334 552 372 569 q 269 504 296 535 q 226 433 242 474 q 211 347 211 393 q 226 261 211 301 q 269 190 242 221 q 334 142 296 160 q 418 125 372 125 z "},"b":{"ha":860,"x_min":103,"x_max":806,"o":"m 458 -14 q 344 6 396 -14 q 256 65 292 26 l 256 0 l 103 0 l 103 1014 l 256 1014 l 256 631 q 344 688 292 668 q 458 708 396 708 q 600 679 536 708 q 710 601 664 650 q 781 486 756 551 q 806 347 806 421 q 781 208 806 274 q 710 94 756 143 q 600 15 664 44 q 458 -14 536 -14 m 442 125 q 526 142 488 125 q 591 190 564 160 q 633 261 618 221 q 649 347 649 301 q 633 433 649 393 q 591 504 618 474 q 526 552 564 535 q 442 569 488 569 q 328 542 374 569 q 256 474 283 514 l 256 222 q 328 153 283 181 q 442 125 374 125 z "},"c":{"ha":781,"x_min":53,"x_max":743,"o":"m 419 -14 q 274 14 342 -14 q 158 90 207 42 q 81 203 108 138 q 53 347 53 269 q 81 490 53 424 q 158 605 108 557 q 274 681 207 653 q 419 708 342 708 q 613 656 528 708 q 743 517 699 604 l 610 444 q 535 532 585 497 q 419 567 486 567 q 335 550 374 567 q 267 503 296 533 q 224 433 239 474 q 208 347 208 393 q 224 261 208 301 q 267 191 239 221 q 335 144 296 161 q 419 128 374 128 q 535 163 486 128 q 610 250 585 197 l 743 178 q 613 38 699 90 q 419 -14 528 -14 z "},"d":{"ha":860,"x_min":54,"x_max":756,"o":"m 400 -14 q 259 15 322 -14 q 150 94 196 44 q 79 208 104 143 q 54 347 54 274 q 79 486 54 421 q 150 601 104 551 q 259 679 196 650 q 400 708 322 708 q 515 688 463 708 q 603 631 567 668 l 603 1014 l 756 1014 l 756 0 l 603 0 l 603 65 q 515 6 567 26 q 400 -14 463 -14 m 418 125 q 530 153 485 125 q 603 222 575 181 l 603 474 q 530 542 575 514 q 418 569 485 569 q 334 552 372 569 q 269 504 296 535 q 226 433 242 474 q 211 347 211 393 q 226 261 211 301 q 269 190 242 221 q 334 142 296 160 q 418 125 372 125 z "},"e":{"ha":806,"x_min":54,"x_max":751,"o":"m 417 -14 q 271 13 338 -14 q 156 87 204 39 q 81 201 108 135 q 54 347 54 268 q 81 490 54 424 q 156 604 108 556 q 271 681 204 653 q 417 708 338 708 q 546 686 485 708 q 653 620 607 664 q 725 512 699 576 q 751 364 751 447 q 751 342 751 353 q 750 314 751 331 l 204 314 q 224 236 207 271 q 270 176 242 201 q 337 138 299 151 q 418 125 375 125 q 540 155 492 125 q 617 231 589 185 l 733 147 q 606 29 686 72 q 417 -14 526 -14 m 597 425 q 531 540 585 500 q 411 579 478 579 q 345 569 378 579 q 285 540 313 560 q 239 492 258 521 q 211 425 219 464 l 597 425 z "},"f":{"ha":592,"x_min":22,"x_max":592,"o":"m 186 558 l 22 558 l 22 694 l 186 694 l 186 772 q 203 871 186 825 q 251 950 219 917 q 328 1003 282 983 q 432 1022 374 1022 q 528 1010 489 1022 q 592 985 568 999 l 536 858 q 498 875 521 867 q 446 883 475 883 q 367 852 396 883 q 339 768 339 821 l 339 694 l 575 694 l 575 558 l 339 558 l 339 0 l 186 0 l 186 558 z "},"g":{"ha":863,"x_min":54,"x_max":760,"o":"m 404 -283 q 226 -253 308 -283 q 94 -169 144 -222 l 188 -60 q 403 -147 272 -147 q 476 -136 440 -147 q 542 -102 513 -125 q 589 -44 571 -79 q 607 42 607 -8 l 607 90 q 518 31 571 51 q 403 10 465 10 q 263 37 328 10 q 152 112 199 64 q 80 223 106 160 q 54 360 54 286 q 81 496 54 432 q 153 607 107 560 q 264 681 200 654 q 403 708 328 708 q 518 688 465 708 q 607 631 571 668 l 607 694 l 760 694 l 760 40 q 730 -108 760 -47 q 650 -208 700 -169 q 536 -265 600 -247 q 404 -283 472 -283 m 421 150 q 534 178 489 150 q 607 247 579 206 l 607 474 q 534 542 579 514 q 421 569 489 569 q 337 553 375 569 q 271 509 299 538 q 227 442 243 481 q 211 360 211 404 q 227 276 211 315 q 271 210 243 238 q 337 166 299 182 q 421 150 375 150 z "},"h":{"ha":825,"x_min":103,"x_max":732,"o":"m 103 0 l 103 1014 l 256 1014 l 256 621 q 344 687 292 665 q 460 708 397 708 q 572 688 522 708 q 658 628 622 667 q 713 536 693 590 q 732 415 732 482 l 732 0 l 579 0 l 579 390 q 540 522 579 474 q 426 569 500 569 q 321 539 364 569 q 256 460 278 508 l 256 0 l 103 0 z "},"i":{"ha":358,"x_min":78,"x_max":282,"o":"m 103 694 l 256 694 l 256 0 l 103 0 l 103 694 m 179 818 q 108 848 138 818 q 78 921 78 878 q 108 992 78 963 q 179 1022 138 1022 q 252 992 222 1022 q 282 921 282 963 q 252 848 282 878 q 179 818 222 818 z "},"j":{"ha":369,"x_min":-89,"x_max":293,"o":"m 42 -276 q -33 -269 6 -276 q -89 -253 -72 -261 l -54 -125 q -19 -137 -39 -132 q 24 -142 0 -142 q 88 -115 63 -142 q 114 -24 114 -89 l 114 694 l 267 694 l 267 -46 q 249 -147 267 -104 q 200 -219 231 -190 q 128 -262 169 -249 q 42 -276 88 -276 m 190 818 q 119 848 149 818 q 89 921 89 878 q 119 992 89 963 q 190 1022 149 1022 q 263 992 233 1022 q 293 921 293 963 q 263 848 293 878 q 190 818 233 818 z "},"k":{"ha":760,"x_min":103,"x_max":783,"o":"m 256 335 l 256 0 l 103 0 l 103 1014 l 256 1014 l 256 431 l 521 694 l 714 694 l 404 385 l 783 0 l 588 0 l 256 335 z "},"l":{"ha":358,"x_min":103,"x_max":256,"o":"m 103 1014 l 256 1014 l 256 0 l 103 0 l 103 1014 z "},"m":{"ha":1233,"x_min":103,"x_max":1140,"o":"m 988 388 q 953 519 988 469 q 849 568 919 568 q 754 538 794 568 q 694 458 714 507 q 699 414 699 435 l 699 0 l 546 0 l 546 388 q 511 519 546 469 q 406 568 476 568 q 315 541 354 568 q 256 469 275 514 l 256 0 l 103 0 l 103 694 l 256 694 l 256 629 q 338 689 288 669 q 440 708 388 708 q 554 681 503 708 q 640 606 606 654 q 738 682 676 656 q 869 708 799 708 q 987 686 936 708 q 1072 625 1038 664 q 1123 532 1106 586 q 1140 414 1140 478 l 1140 0 l 988 0 l 988 388 z "},"n":{"ha":825,"x_min":103,"x_max":732,"o":"m 103 694 l 256 694 l 256 621 q 344 687 292 665 q 460 708 397 708 q 572 688 522 708 q 658 628 622 667 q 713 536 693 590 q 732 415 732 482 l 732 0 l 579 0 l 579 390 q 540 522 579 474 q 426 569 500 569 q 321 539 364 569 q 256 460 278 508 l 256 0 l 103 0 l 103 694 z "},"o":{"ha":832,"x_min":53,"x_max":781,"o":"m 417 -14 q 273 14 339 -14 q 158 91 207 42 q 81 206 108 140 q 53 347 53 272 q 81 488 53 422 q 158 603 108 554 q 273 681 207 653 q 417 708 339 708 q 560 681 493 708 q 676 603 626 653 q 753 488 725 554 q 781 347 781 422 q 753 206 781 272 q 676 91 725 140 q 560 14 626 42 q 417 -14 493 -14 m 417 128 q 501 144 463 128 q 567 191 539 161 q 610 261 594 221 q 625 347 625 301 q 610 433 625 393 q 567 503 594 474 q 501 550 539 533 q 417 567 463 567 q 332 550 371 567 q 265 503 293 533 q 222 433 238 474 q 207 347 207 393 q 222 261 207 301 q 265 191 238 221 q 332 144 293 161 q 417 128 371 128 z "},"p":{"ha":860,"x_min":103,"x_max":806,"o":"m 103 694 l 256 694 l 256 631 q 344 688 292 668 q 458 708 396 708 q 600 679 536 708 q 710 601 664 650 q 781 486 756 551 q 806 347 806 421 q 781 208 806 274 q 710 94 756 143 q 600 15 664 44 q 458 -14 536 -14 q 344 6 396 -14 q 256 65 292 26 l 256 -269 l 103 -269 l 103 694 m 442 125 q 526 142 488 125 q 591 190 564 160 q 633 261 618 221 q 649 347 649 301 q 633 433 649 393 q 591 504 618 474 q 526 552 564 535 q 442 569 488 569 q 328 542 374 569 q 256 474 283 514 l 256 222 q 328 153 283 181 q 442 125 374 125 z "},"q":{"ha":860,"x_min":54,"x_max":756,"o":"m 603 65 q 515 6 567 26 q 400 -14 463 -14 q 259 15 322 -14 q 150 94 196 44 q 79 208 104 143 q 54 347 54 274 q 79 486 54 421 q 150 601 104 551 q 259 679 196 650 q 400 708 322 708 q 515 688 463 708 q 603 631 567 668 l 603 694 l 756 694 l 756 -269 l 603 -269 l 603 65 m 418 125 q 530 153 485 125 q 603 222 575 181 l 603 474 q 530 542 575 514 q 418 569 485 569 q 334 552 372 569 q 269 504 296 535 q 226 433 242 474 q 211 347 211 393 q 226 261 211 301 q 269 190 242 221 q 334 142 296 160 q 418 125 372 125 z "},"r":{"ha":517,"x_min":103,"x_max":501,"o":"m 103 694 l 256 694 l 256 601 q 324 672 275 642 q 431 701 372 701 q 471 699 453 701 q 501 693 489 696 l 479 544 q 419 553 458 553 q 326 526 374 553 q 256 446 279 500 l 256 0 l 103 0 l 103 694 z "},"s":{"ha":631,"x_min":44,"x_max":575,"o":"m 324 -14 q 156 22 231 -14 q 44 133 82 58 l 157 214 q 224 143 178 168 q 324 118 271 118 q 394 137 364 118 q 424 192 424 156 q 401 242 424 222 q 317 281 379 261 l 256 297 q 118 377 164 322 q 74 510 72 432 q 93 592 74 556 q 146 655 113 629 q 224 694 179 681 q 322 708 269 708 q 461 678 401 708 q 557 590 521 649 l 451 510 q 395 561 428 542 q 319 581 363 581 q 256 564 285 581 q 226 515 226 547 q 242 469 226 490 q 310 433 258 449 l 381 413 q 524 336 472 385 q 575 201 575 288 q 556 112 575 151 q 503 44 536 72 q 424 1 469 15 q 324 -14 378 -14 z "},"t":{"ha":608,"x_min":18,"x_max":596,"o":"m 432 -7 q 338 7 382 -7 q 260 49 293 21 q 209 122 228 78 q 190 224 190 165 l 190 558 l 18 558 l 18 694 l 190 694 l 190 896 l 343 896 l 343 694 l 556 694 l 556 558 l 343 558 l 343 249 q 373 157 343 183 q 451 131 403 131 q 509 138 483 131 q 550 156 535 146 l 596 28 q 528 5 572 17 q 432 -7 485 -7 z "},"u":{"ha":810,"x_min":93,"x_max":707,"o":"m 707 0 l 554 0 l 554 72 q 467 7 519 28 q 363 -14 415 -14 q 251 7 301 -14 q 166 66 201 28 q 112 158 131 104 q 93 279 93 213 l 93 694 l 246 694 l 246 304 q 285 173 246 221 q 396 125 324 125 q 490 156 449 125 q 554 235 532 186 l 554 694 l 707 694 l 707 0 z "},"v":{"ha":774,"x_min":6,"x_max":769,"o":"m 6 694 l 175 694 l 386 207 l 599 694 l 769 694 l 454 0 l 319 0 l 6 694 z "},"w":{"ha":1083,"x_min":13,"x_max":1072,"o":"m 542 449 l 390 0 l 246 0 l 13 694 l 174 694 l 324 215 l 483 694 l 600 694 l 757 215 l 910 694 l 1072 694 l 839 0 l 694 0 l 542 449 z "},"x":{"ha":760,"x_min":7,"x_max":753,"o":"m 381 235 l 193 0 l 7 0 l 283 346 l 22 694 l 204 694 l 379 461 l 554 694 l 738 694 l 476 346 l 753 0 l 568 0 l 381 235 z "},"y":{"ha":775,"x_min":7,"x_max":771,"o":"m 167 -269 l 306 38 l 7 694 l 175 694 l 388 203 l 601 694 l 771 694 l 335 -269 l 167 -269 z "},"z":{"ha":681,"x_min":56,"x_max":628,"o":"m 56 121 l 419 556 l 61 556 l 61 694 l 617 694 l 617 572 l 253 139 l 628 139 l 628 0 l 56 0 l 56 121 z "},"{":{"ha":454,"x_min":40,"x_max":418,"o":"m 319 -222 q 180 -171 224 -222 q 136 -24 136 -119 l 136 294 q 121 360 136 336 q 58 385 106 385 l 40 385 l 40 503 l 58 503 q 121 527 106 503 q 136 592 136 551 l 136 913 q 180 1060 136 1008 q 319 1111 224 1111 l 418 1111 l 418 993 l 351 993 q 286 971 303 993 q 269 900 269 949 l 269 592 q 249 494 269 528 q 189 444 229 460 q 249 393 229 428 q 269 294 269 358 l 269 -11 q 286 -83 269 -61 q 351 -104 303 -104 l 418 -104 l 418 -222 l 319 -222 z "},"|":{"ha":367,"x_min":117,"x_max":250,"o":"m 117 986 l 250 986 l 250 -153 l 117 -153 l 117 986 z "},"}":{"ha":454,"x_min":36,"x_max":414,"o":"m 36 -222 l 36 -104 l 103 -104 q 168 -83 151 -104 q 185 -11 185 -61 l 185 294 q 205 393 185 358 q 265 444 225 428 q 205 494 225 460 q 185 592 185 528 l 185 900 q 168 971 185 949 q 103 993 151 993 l 36 993 l 36 1111 l 135 1111 q 274 1060 231 1111 q 318 913 318 1008 l 318 592 q 333 527 318 551 q 396 503 349 503 l 414 503 l 414 385 l 396 385 q 333 360 349 385 q 318 294 318 336 l 318 -24 q 274 -171 318 -119 q 135 -222 231 -222 l 36 -222 z "}," ":{"ha":326,"x_min":0,"x_max":0,"o":""},"¡":{"ha":367,"x_min":82,"x_max":286,"o":"m 260 99 l 260 -286 l 107 -286 l 107 99 l 136 361 l 231 361 l 260 99 m 183 507 q 112 537 142 507 q 82 610 82 567 q 112 681 82 651 q 183 711 142 711 q 256 681 226 711 q 286 610 286 651 q 256 537 286 567 q 183 507 226 507 z "},"£":{"ha":792,"x_min":68,"x_max":738,"o":"m 68 540 l 160 540 q 137 626 146 583 q 128 713 128 669 q 150 830 128 776 q 213 922 172 883 q 310 981 253 960 q 438 1003 368 1003 q 539 988 492 1003 q 624 946 586 972 q 690 883 661 919 q 735 804 718 846 l 613 726 q 585 773 601 750 q 549 813 569 796 q 501 842 528 831 q 439 853 474 853 q 325 814 369 853 q 281 704 281 775 q 291 624 281 664 q 317 540 301 583 l 569 540 l 569 463 l 343 463 q 364 384 356 424 q 372 303 372 344 q 326 150 372 218 l 738 150 l 738 0 l 68 0 l 68 150 l 174 150 q 209 218 197 182 q 221 297 221 254 q 210 376 221 333 q 185 463 200 418 l 68 463 l 68 540 z "},"¥":{"ha":967,"x_min":39,"x_max":928,"o":"m 114 492 l 358 492 l 39 986 l 224 986 l 483 569 l 742 986 l 928 986 l 608 492 l 853 492 l 853 415 l 560 415 l 560 311 l 853 311 l 853 235 l 560 235 l 560 0 l 407 0 l 407 235 l 114 235 l 114 311 l 407 311 l 407 415 l 114 415 l 114 492 z "},"¨":{"ha":0,"x_min":-261,"x_max":261,"o":"m 158 818 q 87 848 117 818 q 57 921 57 878 q 87 992 57 963 q 158 1022 117 1022 q 231 992 201 1022 q 261 921 261 963 q 231 848 261 878 q 158 818 201 818 m -160 818 q -231 848 -201 818 q -261 921 -261 878 q -231 992 -261 963 q -160 1022 -201 1022 q -87 992 -117 1022 q -57 921 -57 963 q -87 848 -57 878 q -160 818 -117 818 z "},"©":{"ha":1133,"x_min":57,"x_max":1076,"o":"m 567 90 q 723 122 650 90 q 851 208 796 154 q 938 336 906 263 q 969 493 969 410 q 938 650 969 576 q 851 778 906 724 q 723 864 796 832 q 567 896 650 896 q 410 864 483 896 q 283 778 338 832 q 196 650 228 724 q 164 493 164 576 q 196 336 164 410 q 283 208 228 263 q 410 122 338 154 q 567 90 483 90 m 567 -17 q 369 24 463 -17 q 207 133 276 64 q 97 295 138 203 q 57 493 57 388 q 97 691 57 599 q 207 853 138 783 q 369 963 276 922 q 567 1003 463 1003 q 765 963 672 1003 q 926 853 857 922 q 1036 691 996 783 q 1076 493 1076 599 q 1036 295 1076 388 q 926 133 996 203 q 765 24 857 64 q 567 -17 672 -17 m 569 226 q 465 247 514 226 q 380 304 417 268 q 322 389 343 340 q 301 493 301 438 q 322 597 301 549 q 380 682 343 646 q 465 740 417 718 q 569 761 514 761 q 712 723 649 761 q 808 622 775 685 l 714 571 q 656 634 692 611 q 569 657 619 657 q 506 644 536 657 q 455 608 476 631 q 421 556 433 586 q 408 493 408 526 q 421 430 408 460 q 455 378 433 400 q 506 342 476 356 q 569 329 536 329 q 656 352 619 329 q 714 415 692 375 l 808 364 q 712 264 775 301 q 569 226 649 226 z "},"«":{"ha":686,"x_min":51,"x_max":621,"o":"m 621 86 l 522 22 l 311 347 l 522 672 l 621 608 l 476 347 l 621 86 m 361 86 l 263 22 l 51 347 l 263 672 l 361 608 l 217 347 l 361 86 z "},"­":{"ha":544,"x_min":86,"x_max":460,"o":"m 86 464 l 460 464 l 460 314 l 86 314 l 86 464 z "},"¯":{"ha":0,"x_min":-231,"x_max":231,"o":"m -231 986 l 231 986 l 231 872 l -231 872 l -231 986 z "},"°":{"ha":500,"x_min":54,"x_max":446,"o":"m 250 706 q 314 732 288 706 q 340 796 340 758 q 314 859 340 832 q 250 886 288 886 q 185 859 211 886 q 160 796 160 832 q 185 732 160 758 q 250 706 211 706 m 250 600 q 174 615 210 600 q 111 657 138 631 q 69 719 85 683 q 54 796 54 756 q 69 872 54 836 q 111 935 85 908 q 174 976 138 961 q 250 992 210 992 q 326 976 290 992 q 389 935 363 961 q 431 872 415 908 q 446 796 446 836 q 431 719 446 756 q 389 657 415 683 q 326 615 363 631 q 250 600 290 600 z "},"´":{"ha":0,"x_min":-151,"x_max":150,"o":"m -33 1014 l 150 1014 l -33 788 l -151 788 l -33 1014 z "},"·":{"ha":351,"x_min":74,"x_max":278,"o":"m 175 272 q 103 302 133 272 q 74 375 74 332 q 103 447 74 417 q 175 476 133 476 q 248 447 218 476 q 278 375 278 417 q 248 302 278 332 q 175 272 218 272 z "},"¸":{"ha":0,"x_min":-153,"x_max":151,"o":"m -135 -183 q -39 -206 -92 -206 q -15 -203 -28 -206 q 10 -197 -1 -201 q 28 -183 21 -192 q 36 -162 36 -175 q 20 -135 36 -143 q -15 -126 4 -126 q -49 -130 -35 -126 q -78 -140 -64 -133 l -122 -111 l -53 4 l 28 4 l -15 -65 q 10 -56 -6 -60 q 42 -53 25 -53 q 119 -81 88 -53 q 151 -156 151 -108 q 138 -210 151 -186 q 99 -250 124 -233 q 42 -275 75 -267 q -26 -283 10 -283 q -90 -278 -57 -283 q -153 -260 -124 -274 l -135 -183 z "},"»":{"ha":686,"x_min":65,"x_max":635,"o":"m 469 347 l 325 608 l 424 672 l 635 347 l 424 22 l 325 86 l 469 347 m 210 347 l 65 608 l 164 672 l 375 347 l 164 22 l 65 86 l 210 347 z "},"¿":{"ha":729,"x_min":64,"x_max":697,"o":"m 367 -311 q 244 -288 300 -311 q 149 -226 189 -265 q 86 -135 108 -186 q 64 -28 64 -85 q 103 116 64 58 q 200 218 142 174 q 243 250 222 235 q 279 281 264 265 q 304 311 294 296 q 314 343 314 326 l 314 350 l 467 350 l 467 324 q 428 219 467 265 q 343 140 390 174 q 294 104 317 121 q 253 69 271 88 q 226 28 236 50 q 217 -22 217 7 q 229 -78 217 -53 q 263 -122 242 -103 q 311 -151 283 -140 q 369 -161 339 -161 q 486 -131 432 -161 q 575 -43 540 -100 l 697 -122 q 643 -195 676 -161 q 567 -255 610 -229 q 474 -296 525 -281 q 367 -311 424 -311 m 389 507 q 317 537 347 507 q 288 610 288 567 q 317 681 288 651 q 389 711 347 711 q 462 681 432 711 q 492 610 492 651 q 462 537 492 567 q 389 507 432 507 z "},"À":{"ha":1014,"x_min":6,"x_max":1008,"o":"m 436 986 l 578 986 l 1008 0 l 839 0 l 726 258 l 285 258 l 174 0 l 6 0 l 436 986 m 347 403 l 664 403 l 506 767 l 347 403 m 443 1067 l 278 1257 l 458 1257 l 563 1067 l 443 1067 z "},"Á":{"ha":1014,"x_min":6,"x_max":1008,"o":"m 436 986 l 578 986 l 1008 0 l 839 0 l 726 258 l 285 258 l 174 0 l 6 0 l 436 986 m 347 403 l 664 403 l 506 767 l 347 403 m 554 1257 l 735 1257 l 569 1067 l 450 1067 l 554 1257 z "},"Â":{"ha":1014,"x_min":6,"x_max":1008,"o":"m 436 986 l 578 986 l 1008 0 l 839 0 l 726 258 l 285 258 l 174 0 l 6 0 l 436 986 m 347 403 l 664 403 l 506 767 l 347 403 m 432 1257 l 583 1257 l 753 1067 l 603 1067 l 507 1164 l 411 1067 l 263 1067 l 432 1257 z "},"Ã":{"ha":1014,"x_min":6,"x_max":1008,"o":"m 436 986 l 578 986 l 1008 0 l 839 0 l 726 258 l 285 258 l 174 0 l 6 0 l 436 986 m 347 403 l 664 403 l 506 767 l 347 403 m 261 1117 q 316 1222 272 1183 q 417 1260 360 1260 q 471 1250 446 1260 q 519 1228 496 1240 q 561 1207 542 1217 q 597 1197 581 1197 q 636 1213 622 1197 q 657 1260 650 1228 l 757 1260 l 753 1229 q 698 1125 742 1163 q 597 1088 654 1088 q 542 1097 568 1088 q 494 1119 517 1107 q 452 1140 471 1131 q 417 1150 433 1150 q 378 1134 392 1150 q 356 1086 364 1118 l 257 1086 l 261 1117 z "},"Ä":{"ha":1014,"x_min":6,"x_max":1008,"o":"m 436 986 l 578 986 l 1008 0 l 839 0 l 726 258 l 285 258 l 174 0 l 6 0 l 436 986 m 347 403 l 664 403 l 506 767 l 347 403 m 679 1074 q 608 1103 638 1074 q 578 1176 578 1133 q 608 1248 578 1218 q 679 1278 638 1278 q 752 1248 722 1278 q 782 1176 782 1218 q 752 1103 782 1133 q 679 1074 722 1074 m 333 1074 q 262 1103 292 1074 q 232 1176 232 1133 q 262 1248 232 1218 q 333 1278 292 1278 q 406 1248 376 1278 q 436 1176 436 1218 q 406 1103 436 1133 q 333 1074 376 1074 z "},"Å":{"ha":1014,"x_min":6,"x_max":1008,"o":"m 436 986 l 578 986 l 1008 0 l 839 0 l 726 258 l 285 258 l 174 0 l 6 0 l 436 986 m 347 403 l 664 403 l 506 767 l 347 403 m 507 1074 q 435 1103 465 1074 q 406 1176 406 1133 q 435 1248 406 1218 q 507 1278 465 1278 q 580 1248 550 1278 q 610 1176 610 1218 q 580 1103 610 1133 q 507 1074 550 1074 z "},"Æ":{"ha":1288,"x_min":-35,"x_max":1219,"o":"m 626 258 l 293 258 l 144 0 l -35 0 l 540 986 l 1219 986 l 1219 831 l 789 831 l 789 578 l 1136 578 l 1136 422 l 789 422 l 789 156 l 1219 156 l 1219 0 l 626 0 l 626 258 m 376 403 l 626 403 l 626 831 l 625 831 l 376 403 z "},"Ç":{"ha":1047,"x_min":58,"x_max":1013,"o":"m 568 -17 q 369 23 461 -17 q 207 131 276 63 q 98 293 138 200 q 58 493 58 386 q 98 693 58 600 q 207 855 138 786 q 369 963 276 924 q 568 1003 461 1003 q 830 935 714 1003 q 1013 753 946 867 l 872 672 q 747 799 824 751 q 568 846 671 846 q 431 818 494 846 q 322 742 368 790 q 249 631 275 694 q 222 493 222 567 q 249 356 222 419 q 322 244 275 292 q 431 168 368 196 q 568 140 494 140 q 747 188 671 140 q 872 314 824 235 l 1013 233 q 830 51 946 119 q 568 -17 714 -17 m 435 -183 q 529 -206 478 -206 q 555 -203 542 -206 q 579 -197 568 -201 q 597 -183 590 -192 q 604 -162 604 -175 q 589 -135 604 -143 q 554 -126 574 -126 q 519 -130 535 -126 q 492 -140 504 -133 l 446 -111 l 515 4 l 596 4 l 554 -65 q 578 -56 564 -60 q 611 -53 593 -53 q 688 -81 656 -53 q 719 -156 719 -108 q 706 -210 719 -186 q 667 -250 692 -233 q 611 -275 643 -267 q 543 -283 579 -283 q 478 -278 511 -283 q 415 -260 444 -274 l 435 -183 z "},"È":{"ha":781,"x_min":121,"x_max":714,"o":"m 121 986 l 714 986 l 714 831 l 283 831 l 283 578 l 631 578 l 631 422 l 283 422 l 283 156 l 714 156 l 714 0 l 121 0 l 121 986 m 354 1067 l 189 1257 l 369 1257 l 474 1067 l 354 1067 z "},"É":{"ha":781,"x_min":121,"x_max":714,"o":"m 121 986 l 714 986 l 714 831 l 283 831 l 283 578 l 631 578 l 631 422 l 283 422 l 283 156 l 714 156 l 714 0 l 121 0 l 121 986 m 464 1257 l 644 1257 l 479 1067 l 360 1067 l 464 1257 z "},"Ê":{"ha":781,"x_min":121,"x_max":714,"o":"m 121 986 l 714 986 l 714 831 l 283 831 l 283 578 l 631 578 l 631 422 l 283 422 l 283 156 l 714 156 l 714 0 l 121 0 l 121 986 m 342 1257 l 493 1257 l 663 1067 l 513 1067 l 417 1164 l 321 1067 l 172 1067 l 342 1257 z "},"Ë":{"ha":781,"x_min":121,"x_max":714,"o":"m 121 986 l 714 986 l 714 831 l 283 831 l 283 578 l 631 578 l 631 422 l 283 422 l 283 156 l 714 156 l 714 0 l 121 0 l 121 986 m 589 1074 q 517 1103 547 1074 q 488 1176 488 1133 q 517 1248 488 1218 q 589 1278 547 1278 q 662 1248 632 1278 q 692 1176 692 1218 q 662 1103 692 1133 q 589 1074 632 1074 m 243 1074 q 172 1103 201 1074 q 142 1176 142 1133 q 172 1248 142 1218 q 243 1278 201 1278 q 316 1248 286 1278 q 346 1176 346 1218 q 316 1103 346 1133 q 243 1074 286 1074 z "},"Ì":{"ha":404,"x_min":-26,"x_max":283,"o":"m 121 986 l 283 986 l 283 0 l 121 0 l 121 986 m 139 1067 l -26 1257 l 154 1257 l 258 1067 l 139 1067 z "},"Í":{"ha":404,"x_min":121,"x_max":431,"o":"m 121 986 l 283 986 l 283 0 l 121 0 l 121 986 m 250 1257 l 431 1257 l 265 1067 l 146 1067 l 250 1257 z "},"Î":{"ha":404,"x_min":-42,"x_max":449,"o":"m 121 986 l 283 986 l 283 0 l 121 0 l 121 986 m 128 1257 l 279 1257 l 449 1067 l 299 1067 l 203 1164 l 107 1067 l -42 1067 l 128 1257 z "},"Ï":{"ha":404,"x_min":-72,"x_max":478,"o":"m 121 986 l 283 986 l 283 0 l 121 0 l 121 986 m 375 1074 q 303 1103 333 1074 q 274 1176 274 1133 q 303 1248 274 1218 q 375 1278 333 1278 q 448 1248 418 1278 q 478 1176 478 1218 q 448 1103 478 1133 q 375 1074 418 1074 m 29 1074 q -42 1103 -12 1074 q -72 1176 -72 1133 q -42 1248 -72 1218 q 29 1278 -12 1278 q 102 1248 72 1278 q 132 1176 132 1218 q 102 1103 132 1133 q 29 1074 72 1074 z "},"Ð":{"ha":1014,"x_min":35,"x_max":956,"o":"m 136 986 l 439 986 q 643 949 549 986 q 807 844 738 911 q 916 688 876 778 q 956 493 956 597 q 916 299 956 389 q 807 142 876 208 q 643 38 738 75 q 439 0 549 0 l 136 0 l 136 986 m 439 151 q 583 178 518 151 q 694 250 647 204 q 765 358 740 296 q 790 493 790 421 q 765 628 790 565 q 694 736 740 690 q 583 808 647 782 q 439 835 518 835 l 299 835 l 299 151 l 439 151 m 35 569 l 500 569 l 500 428 l 35 428 l 35 569 z "},"Ñ":{"ha":1101,"x_min":121,"x_max":981,"o":"m 839 0 l 283 710 l 283 0 l 121 0 l 121 986 l 263 986 l 817 278 l 817 986 l 981 986 l 981 0 l 839 0 m 301 1117 q 356 1222 313 1183 q 457 1260 400 1260 q 511 1250 486 1260 q 559 1228 536 1240 q 601 1207 582 1217 q 638 1197 621 1197 q 676 1213 663 1197 q 697 1260 690 1228 l 797 1260 l 793 1229 q 738 1125 782 1163 q 638 1088 694 1088 q 583 1097 608 1088 q 534 1119 557 1107 q 492 1140 511 1131 q 457 1150 474 1150 q 418 1134 432 1150 q 396 1086 404 1118 l 297 1086 l 301 1117 z "},"Ò":{"ha":1135,"x_min":58,"x_max":1078,"o":"m 568 140 q 703 168 640 140 q 813 244 767 196 q 886 356 860 292 q 913 493 913 419 q 886 631 913 567 q 813 742 860 694 q 703 818 767 790 q 568 846 640 846 q 431 818 494 846 q 322 742 368 790 q 249 631 275 694 q 222 493 222 567 q 249 356 222 419 q 322 244 275 292 q 431 168 368 196 q 568 140 494 140 m 568 -17 q 369 23 461 -17 q 207 131 276 63 q 98 293 138 200 q 58 493 58 386 q 98 693 58 600 q 207 855 138 786 q 369 963 276 924 q 568 1003 461 1003 q 767 963 674 1003 q 928 855 860 924 q 1038 693 997 786 q 1078 493 1078 600 q 1038 293 1078 386 q 928 131 997 200 q 767 23 860 63 q 568 -17 674 -17 m 504 1067 l 339 1257 l 519 1257 l 624 1067 l 504 1067 z "},"Ó":{"ha":1135,"x_min":58,"x_max":1078,"o":"m 568 140 q 703 168 640 140 q 813 244 767 196 q 886 356 860 292 q 913 493 913 419 q 886 631 913 567 q 813 742 860 694 q 703 818 767 790 q 568 846 640 846 q 431 818 494 846 q 322 742 368 790 q 249 631 275 694 q 222 493 222 567 q 249 356 222 419 q 322 244 275 292 q 431 168 368 196 q 568 140 494 140 m 568 -17 q 369 23 461 -17 q 207 131 276 63 q 98 293 138 200 q 58 493 58 386 q 98 693 58 600 q 207 855 138 786 q 369 963 276 924 q 568 1003 461 1003 q 767 963 674 1003 q 928 855 860 924 q 1038 693 997 786 q 1078 493 1078 600 q 1038 293 1078 386 q 928 131 997 200 q 767 23 860 63 q 568 -17 674 -17 m 615 1257 l 796 1257 l 631 1067 l 511 1067 l 615 1257 z "},"Ô":{"ha":1135,"x_min":58,"x_max":1078,"o":"m 568 140 q 703 168 640 140 q 813 244 767 196 q 886 356 860 292 q 913 493 913 419 q 886 631 913 567 q 813 742 860 694 q 703 818 767 790 q 568 846 640 846 q 431 818 494 846 q 322 742 368 790 q 249 631 275 694 q 222 493 222 567 q 249 356 222 419 q 322 244 275 292 q 431 168 368 196 q 568 140 494 140 m 568 -17 q 369 23 461 -17 q 207 131 276 63 q 98 293 138 200 q 58 493 58 386 q 98 693 58 600 q 207 855 138 786 q 369 963 276 924 q 568 1003 461 1003 q 767 963 674 1003 q 928 855 860 924 q 1038 693 997 786 q 1078 493 1078 600 q 1038 293 1078 386 q 928 131 997 200 q 767 23 860 63 q 568 -17 674 -17 m 493 1257 l 644 1257 l 814 1067 l 664 1067 l 568 1164 l 472 1067 l 324 1067 l 493 1257 z "},"Õ":{"ha":1135,"x_min":58,"x_max":1078,"o":"m 568 140 q 703 168 640 140 q 813 244 767 196 q 886 356 860 292 q 913 493 913 419 q 886 631 913 567 q 813 742 860 694 q 703 818 767 790 q 568 846 640 846 q 431 818 494 846 q 322 742 368 790 q 249 631 275 694 q 222 493 222 567 q 249 356 222 419 q 322 244 275 292 q 431 168 368 196 q 568 140 494 140 m 568 -17 q 369 23 461 -17 q 207 131 276 63 q 98 293 138 200 q 58 493 58 386 q 98 693 58 600 q 207 855 138 786 q 369 963 276 924 q 568 1003 461 1003 q 767 963 674 1003 q 928 855 860 924 q 1038 693 997 786 q 1078 493 1078 600 q 1038 293 1078 386 q 928 131 997 200 q 767 23 860 63 q 568 -17 674 -17 m 322 1117 q 377 1222 333 1183 q 478 1260 421 1260 q 532 1250 507 1260 q 580 1228 557 1240 q 622 1207 603 1217 q 658 1197 642 1197 q 697 1213 683 1197 q 718 1260 711 1228 l 818 1260 l 814 1229 q 759 1125 803 1163 q 658 1088 715 1088 q 603 1097 629 1088 q 555 1119 578 1107 q 513 1140 532 1131 q 478 1150 494 1150 q 439 1134 453 1150 q 417 1086 425 1118 l 318 1086 l 322 1117 z "},"Ö":{"ha":1135,"x_min":58,"x_max":1078,"o":"m 568 140 q 703 168 640 140 q 813 244 767 196 q 886 356 860 292 q 913 493 913 419 q 886 631 913 567 q 813 742 860 694 q 703 818 767 790 q 568 846 640 846 q 431 818 494 846 q 322 742 368 790 q 249 631 275 694 q 222 493 222 567 q 249 356 222 419 q 322 244 275 292 q 431 168 368 196 q 568 140 494 140 m 568 -17 q 369 23 461 -17 q 207 131 276 63 q 98 293 138 200 q 58 493 58 386 q 98 693 58 600 q 207 855 138 786 q 369 963 276 924 q 568 1003 461 1003 q 767 963 674 1003 q 928 855 860 924 q 1038 693 997 786 q 1078 493 1078 600 q 1038 293 1078 386 q 928 131 997 200 q 767 23 860 63 q 568 -17 674 -17 m 740 1074 q 669 1103 699 1074 q 639 1176 639 1133 q 669 1248 639 1218 q 740 1278 699 1278 q 813 1248 783 1278 q 843 1176 843 1218 q 813 1103 843 1133 q 740 1074 783 1074 m 394 1074 q 323 1103 353 1074 q 293 1176 293 1133 q 323 1248 293 1218 q 394 1278 353 1278 q 467 1248 438 1278 q 497 1176 497 1218 q 467 1103 497 1133 q 394 1074 438 1074 z "},"×":{"ha":700,"x_min":67,"x_max":633,"o":"m 67 215 l 254 403 l 67 589 l 163 683 l 350 499 l 539 683 l 633 589 l 447 403 l 633 215 l 539 121 l 350 306 l 163 121 l 67 215 z "},"Ø":{"ha":1140,"x_min":61,"x_max":1081,"o":"m 571 140 q 706 168 643 140 q 816 244 769 196 q 889 356 863 292 q 915 493 915 419 q 889 631 915 567 q 816 742 863 694 q 706 818 769 790 q 571 846 643 846 q 434 818 497 846 q 324 742 371 790 q 251 631 278 694 q 225 493 225 567 q 251 356 225 419 q 324 244 278 292 q 434 168 371 196 q 571 140 497 140 m 571 -17 q 372 23 464 -17 q 210 131 279 63 q 101 293 140 200 q 61 493 61 386 q 101 693 61 600 q 210 855 140 786 q 372 963 279 924 q 571 1003 464 1003 q 769 963 676 1003 q 931 855 863 924 q 1040 693 1000 786 q 1081 493 1081 600 q 1040 293 1081 386 q 931 131 1000 200 q 769 23 863 63 q 571 -17 676 -17 m 176 -26 l 82 65 l 965 1013 l 1058 922 l 176 -26 z "},"Ù":{"ha":1004,"x_min":110,"x_max":894,"o":"m 503 -17 q 343 12 415 -17 q 219 92 271 40 q 138 219 167 144 q 110 386 110 294 l 110 986 l 272 986 l 272 383 q 335 203 272 267 q 503 140 399 140 q 669 203 607 140 q 732 383 732 267 l 732 986 l 894 986 l 894 386 q 865 219 894 294 q 784 92 836 144 q 660 12 732 40 q 503 -17 589 -17 m 439 1067 l 274 1257 l 454 1257 l 558 1067 l 439 1067 z "},"Ú":{"ha":1004,"x_min":110,"x_max":894,"o":"m 503 -17 q 343 12 415 -17 q 219 92 271 40 q 138 219 167 144 q 110 386 110 294 l 110 986 l 272 986 l 272 383 q 335 203 272 267 q 503 140 399 140 q 669 203 607 140 q 732 383 732 267 l 732 986 l 894 986 l 894 386 q 865 219 894 294 q 784 92 836 144 q 660 12 732 40 q 503 -17 589 -17 m 549 1257 l 729 1257 l 564 1067 l 444 1067 l 549 1257 z "},"Û":{"ha":1004,"x_min":110,"x_max":894,"o":"m 503 -17 q 343 12 415 -17 q 219 92 271 40 q 138 219 167 144 q 110 386 110 294 l 110 986 l 272 986 l 272 383 q 335 203 272 267 q 503 140 399 140 q 669 203 607 140 q 732 383 732 267 l 732 986 l 894 986 l 894 386 q 865 219 894 294 q 784 92 836 144 q 660 12 732 40 q 503 -17 589 -17 m 428 1257 l 579 1257 l 749 1067 l 599 1067 l 503 1164 l 407 1067 l 258 1067 l 428 1257 z "},"Ü":{"ha":1004,"x_min":110,"x_max":894,"o":"m 503 -17 q 343 12 415 -17 q 219 92 271 40 q 138 219 167 144 q 110 386 110 294 l 110 986 l 272 986 l 272 383 q 335 203 272 267 q 503 140 399 140 q 669 203 607 140 q 732 383 732 267 l 732 986 l 894 986 l 894 386 q 865 219 894 294 q 784 92 836 144 q 660 12 732 40 q 503 -17 589 -17 m 675 1074 q 603 1103 633 1074 q 574 1176 574 1133 q 603 1248 574 1218 q 675 1278 633 1278 q 748 1248 718 1278 q 778 1176 778 1218 q 748 1103 778 1133 q 675 1074 718 1074 m 329 1074 q 258 1103 288 1074 q 228 1176 228 1133 q 258 1248 228 1218 q 329 1278 288 1278 q 402 1248 372 1278 q 432 1176 432 1218 q 402 1103 432 1133 q 329 1074 372 1074 z "},"Ý":{"ha":946,"x_min":18,"x_max":929,"o":"m 392 417 l 18 986 l 208 986 l 472 578 l 738 986 l 929 986 l 554 415 l 554 0 l 392 0 l 392 417 m 519 1257 l 700 1257 l 535 1067 l 415 1067 l 519 1257 z "},"Þ":{"ha":828,"x_min":121,"x_max":776,"o":"m 776 493 q 751 366 776 425 q 681 264 726 307 q 574 196 636 221 q 435 171 511 171 l 283 171 l 283 0 l 121 0 l 121 986 l 283 986 l 283 815 l 435 815 q 574 790 511 815 q 681 722 636 765 q 751 620 726 679 q 776 493 776 561 m 617 493 q 569 614 617 565 q 433 663 521 663 l 283 663 l 283 324 l 433 324 q 569 372 521 324 q 617 493 617 421 z "},"ß":{"ha":804,"x_min":103,"x_max":753,"o":"m 103 721 q 127 846 103 790 q 192 941 151 901 q 288 1001 233 981 q 404 1022 343 1022 q 519 1001 465 1022 q 615 944 574 981 q 679 858 656 908 q 703 750 703 808 q 673 631 703 686 q 590 536 643 575 q 711 432 669 499 q 753 296 753 365 q 728 179 753 233 q 661 85 704 125 q 558 23 618 46 q 426 0 499 0 l 365 0 l 365 140 l 419 140 q 549 184 499 140 q 599 299 599 228 q 549 413 599 368 q 419 457 499 457 l 367 457 l 367 596 l 396 596 q 507 637 465 596 q 549 739 549 678 q 508 841 549 800 q 404 882 468 882 q 298 837 340 882 q 256 721 256 792 l 256 0 l 103 0 l 103 721 z "},"à":{"ha":860,"x_min":54,"x_max":756,"o":"m 400 -14 q 259 15 322 -14 q 150 94 196 44 q 79 208 104 143 q 54 347 54 274 q 79 486 54 421 q 150 601 104 551 q 259 679 196 650 q 400 708 322 708 q 515 688 463 708 q 603 631 567 668 l 603 694 l 756 694 l 756 0 l 603 0 l 603 65 q 515 6 567 26 q 400 -14 463 -14 m 418 125 q 530 153 485 125 q 603 222 575 181 l 603 474 q 530 542 575 514 q 418 569 485 569 q 334 552 372 569 q 269 504 296 535 q 226 433 242 474 q 211 347 211 393 q 226 261 211 301 q 269 190 242 221 q 334 142 296 160 q 418 125 372 125 m 407 788 l 224 1014 l 407 1014 l 525 788 l 407 788 z "},"á":{"ha":860,"x_min":54,"x_max":756,"o":"m 400 -14 q 259 15 322 -14 q 150 94 196 44 q 79 208 104 143 q 54 347 54 274 q 79 486 54 421 q 150 601 104 551 q 259 679 196 650 q 400 708 322 708 q 515 688 463 708 q 603 631 567 668 l 603 694 l 756 694 l 756 0 l 603 0 l 603 65 q 515 6 567 26 q 400 -14 463 -14 m 418 125 q 530 153 485 125 q 603 222 575 181 l 603 474 q 530 542 575 514 q 418 569 485 569 q 334 552 372 569 q 269 504 296 535 q 226 433 242 474 q 211 347 211 393 q 226 261 211 301 q 269 190 242 221 q 334 142 296 160 q 418 125 372 125 m 519 1014 l 703 1014 l 519 788 l 401 788 l 519 1014 z "},"â":{"ha":860,"x_min":54,"x_max":756,"o":"m 400 -14 q 259 15 322 -14 q 150 94 196 44 q 79 208 104 143 q 54 347 54 274 q 79 486 54 421 q 150 601 104 551 q 259 679 196 650 q 400 708 322 708 q 515 688 463 708 q 603 631 567 668 l 603 694 l 756 694 l 756 0 l 603 0 l 603 65 q 515 6 567 26 q 400 -14 463 -14 m 418 125 q 530 153 485 125 q 603 222 575 181 l 603 474 q 530 542 575 514 q 418 569 485 569 q 334 552 372 569 q 269 504 296 535 q 226 433 242 474 q 211 347 211 393 q 226 261 211 301 q 269 190 242 221 q 334 142 296 160 q 418 125 372 125 m 392 1014 l 533 1014 l 710 803 l 565 803 l 463 917 l 360 803 l 215 803 l 392 1014 z "},"ã":{"ha":860,"x_min":54,"x_max":756,"o":"m 400 -14 q 259 15 322 -14 q 150 94 196 44 q 79 208 104 143 q 54 347 54 274 q 79 486 54 421 q 150 601 104 551 q 259 679 196 650 q 400 708 322 708 q 515 688 463 708 q 603 631 567 668 l 603 694 l 756 694 l 756 0 l 603 0 l 603 65 q 515 6 567 26 q 400 -14 463 -14 m 418 125 q 530 153 485 125 q 603 222 575 181 l 603 474 q 530 542 575 514 q 418 569 485 569 q 334 552 372 569 q 269 504 296 535 q 226 433 242 474 q 211 347 211 393 q 226 261 211 301 q 269 190 242 221 q 334 142 296 160 q 418 125 372 125 m 217 840 q 271 944 228 907 q 371 982 314 982 q 426 972 400 982 q 474 951 451 963 q 516 929 497 939 q 551 919 535 919 q 590 935 576 919 q 613 983 604 951 l 713 983 l 707 953 q 653 848 696 886 q 553 810 610 810 q 498 819 524 810 q 449 841 472 829 q 408 863 426 853 q 372 872 389 872 q 333 857 347 872 q 311 810 319 842 l 211 810 l 217 840 z "},"ä":{"ha":860,"x_min":54,"x_max":756,"o":"m 400 -14 q 259 15 322 -14 q 150 94 196 44 q 79 208 104 143 q 54 347 54 274 q 79 486 54 421 q 150 601 104 551 q 259 679 196 650 q 400 708 322 708 q 515 688 463 708 q 603 631 567 668 l 603 694 l 756 694 l 756 0 l 603 0 l 603 65 q 515 6 567 26 q 400 -14 463 -14 m 418 125 q 530 153 485 125 q 603 222 575 181 l 603 474 q 530 542 575 514 q 418 569 485 569 q 334 552 372 569 q 269 504 296 535 q 226 433 242 474 q 211 347 211 393 q 226 261 211 301 q 269 190 242 221 q 334 142 296 160 q 418 125 372 125 m 607 818 q 535 848 565 818 q 506 921 506 878 q 535 992 506 963 q 607 1022 565 1022 q 680 992 650 1022 q 710 921 710 963 q 680 848 710 878 q 607 818 650 818 m 289 818 q 217 848 247 818 q 188 921 188 878 q 217 992 188 963 q 289 1022 247 1022 q 362 992 332 1022 q 392 921 392 963 q 362 848 392 878 q 289 818 332 818 z "},"å":{"ha":860,"x_min":54,"x_max":756,"o":"m 400 -14 q 259 15 322 -14 q 150 94 196 44 q 79 208 104 143 q 54 347 54 274 q 79 486 54 421 q 150 601 104 551 q 259 679 196 650 q 400 708 322 708 q 515 688 463 708 q 603 631 567 668 l 603 694 l 756 694 l 756 0 l 603 0 l 603 65 q 515 6 567 26 q 400 -14 463 -14 m 418 125 q 530 153 485 125 q 603 222 575 181 l 603 474 q 530 542 575 514 q 418 569 485 569 q 334 552 372 569 q 269 504 296 535 q 226 433 242 474 q 211 347 211 393 q 226 261 211 301 q 269 190 242 221 q 334 142 296 160 q 418 125 372 125 m 443 818 q 371 848 401 818 q 340 921 340 878 q 371 992 340 963 q 443 1022 401 1022 q 515 992 486 1022 q 544 921 544 963 q 515 848 544 878 q 443 818 486 818 z "},"æ":{"ha":1258,"x_min":46,"x_max":1206,"o":"m 321 -12 q 211 3 261 -12 q 124 48 161 18 q 67 121 88 78 q 46 218 46 164 q 67 308 46 268 q 126 378 89 349 q 214 422 164 407 q 322 438 264 438 q 424 424 379 438 q 507 392 468 411 l 507 418 q 490 487 504 458 q 451 533 475 515 q 396 560 426 551 q 332 568 365 568 q 231 549 279 568 q 147 503 182 531 l 97 638 q 207 688 143 668 q 339 708 271 708 q 599 585 518 708 q 718 676 647 643 q 876 708 789 708 q 1001 686 942 708 q 1106 620 1061 664 q 1178 512 1151 576 q 1206 364 1206 447 q 1206 342 1206 353 q 1204 314 1206 331 l 658 314 q 678 236 661 271 q 724 176 696 201 q 790 138 753 151 q 872 125 828 125 q 994 155 946 125 q 1071 231 1043 185 l 1188 147 q 1060 29 1140 72 q 881 -14 981 -14 q 723 17 793 -14 q 604 103 653 49 q 474 15 549 43 q 321 -12 400 -12 m 329 119 q 434 138 386 119 q 507 197 482 157 l 507 271 q 433 309 474 294 q 338 324 392 324 q 284 318 310 324 q 239 300 258 313 q 208 268 219 288 q 197 221 197 249 q 208 174 197 193 q 238 142 219 154 q 281 125 257 131 q 329 119 304 119 m 865 579 q 799 569 832 579 q 740 540 767 560 q 693 492 713 521 q 665 425 674 464 l 1051 425 q 985 540 1039 500 q 865 579 932 579 z "},"ç":{"ha":781,"x_min":53,"x_max":743,"o":"m 419 -14 q 274 14 342 -14 q 158 90 207 42 q 81 203 108 138 q 53 347 53 269 q 81 490 53 424 q 158 605 108 557 q 274 681 207 653 q 419 708 342 708 q 613 656 528 708 q 743 517 699 604 l 610 444 q 535 532 585 497 q 419 567 486 567 q 335 550 374 567 q 267 503 296 533 q 224 433 239 474 q 208 347 208 393 q 224 261 208 301 q 267 191 239 221 q 335 144 296 161 q 419 128 374 128 q 535 163 486 128 q 610 250 585 197 l 743 178 q 613 38 699 90 q 419 -14 528 -14 m 286 -183 q 382 -206 329 -206 q 406 -203 393 -206 q 431 -197 419 -201 q 449 -183 442 -192 q 457 -162 457 -175 q 441 -135 457 -143 q 406 -126 425 -126 q 372 -130 386 -126 q 343 -140 357 -133 l 299 -111 l 368 4 l 449 4 l 406 -65 q 431 -56 415 -60 q 463 -53 446 -53 q 540 -81 508 -53 q 572 -156 572 -108 q 558 -210 572 -186 q 520 -250 544 -233 q 463 -275 496 -267 q 394 -283 431 -283 q 331 -278 364 -283 q 268 -260 297 -274 l 286 -183 z "},"è":{"ha":806,"x_min":54,"x_max":751,"o":"m 417 -14 q 271 13 338 -14 q 156 87 204 39 q 81 201 108 135 q 54 347 54 268 q 81 490 54 424 q 156 604 108 556 q 271 681 204 653 q 417 708 338 708 q 546 686 485 708 q 653 620 607 664 q 725 512 699 576 q 751 364 751 447 q 751 342 751 353 q 750 314 751 331 l 204 314 q 224 236 207 271 q 270 176 242 201 q 337 138 299 151 q 418 125 375 125 q 540 155 492 125 q 617 231 589 185 l 733 147 q 606 29 686 72 q 417 -14 526 -14 m 597 425 q 531 540 585 500 q 411 579 478 579 q 345 569 378 579 q 285 540 313 560 q 239 492 258 521 q 211 425 219 464 l 597 425 m 364 788 l 181 1014 l 364 1014 l 482 788 l 364 788 z "},"é":{"ha":806,"x_min":54,"x_max":751,"o":"m 417 -14 q 271 13 338 -14 q 156 87 204 39 q 81 201 108 135 q 54 347 54 268 q 81 490 54 424 q 156 604 108 556 q 271 681 204 653 q 417 708 338 708 q 546 686 485 708 q 653 620 607 664 q 725 512 699 576 q 751 364 751 447 q 751 342 751 353 q 750 314 751 331 l 204 314 q 224 236 207 271 q 270 176 242 201 q 337 138 299 151 q 418 125 375 125 q 540 155 492 125 q 617 231 589 185 l 733 147 q 606 29 686 72 q 417 -14 526 -14 m 597 425 q 531 540 585 500 q 411 579 478 579 q 345 569 378 579 q 285 540 313 560 q 239 492 258 521 q 211 425 219 464 l 597 425 m 475 1014 l 658 1014 l 475 788 l 357 788 l 475 1014 z "},"ê":{"ha":806,"x_min":54,"x_max":751,"o":"m 417 -14 q 271 13 338 -14 q 156 87 204 39 q 81 201 108 135 q 54 347 54 268 q 81 490 54 424 q 156 604 108 556 q 271 681 204 653 q 417 708 338 708 q 546 686 485 708 q 653 620 607 664 q 725 512 699 576 q 751 364 751 447 q 751 342 751 353 q 750 314 751 331 l 204 314 q 224 236 207 271 q 270 176 242 201 q 337 138 299 151 q 418 125 375 125 q 540 155 492 125 q 617 231 589 185 l 733 147 q 606 29 686 72 q 417 -14 526 -14 m 597 425 q 531 540 585 500 q 411 579 478 579 q 345 569 378 579 q 285 540 313 560 q 239 492 258 521 q 211 425 219 464 l 597 425 m 349 1014 l 490 1014 l 667 803 l 522 803 l 419 917 l 317 803 l 172 803 l 349 1014 z "},"ë":{"ha":806,"x_min":54,"x_max":751,"o":"m 417 -14 q 271 13 338 -14 q 156 87 204 39 q 81 201 108 135 q 54 347 54 268 q 81 490 54 424 q 156 604 108 556 q 271 681 204 653 q 417 708 338 708 q 546 686 485 708 q 653 620 607 664 q 725 512 699 576 q 751 364 751 447 q 751 342 751 353 q 750 314 751 331 l 204 314 q 224 236 207 271 q 270 176 242 201 q 337 138 299 151 q 418 125 375 125 q 540 155 492 125 q 617 231 589 185 l 733 147 q 606 29 686 72 q 417 -14 526 -14 m 597 425 q 531 540 585 500 q 411 579 478 579 q 345 569 378 579 q 285 540 313 560 q 239 492 258 521 q 211 425 219 464 l 597 425 m 578 818 q 506 848 536 818 q 476 921 476 878 q 506 992 476 963 q 578 1022 536 1022 q 651 992 621 1022 q 681 921 681 963 q 651 848 681 878 q 578 818 621 818 m 260 818 q 188 848 218 818 q 158 921 158 878 q 188 992 158 963 q 260 1022 218 1022 q 333 992 303 1022 q 363 921 363 963 q 333 848 363 878 q 260 818 303 818 z "},"ì":{"ha":358,"x_min":-60,"x_max":256,"o":"m 103 694 l 256 694 l 256 0 l 103 0 l 103 694 m 124 788 l -60 1014 l 124 1014 l 242 788 l 124 788 z "},"í":{"ha":358,"x_min":103,"x_max":419,"o":"m 103 694 l 256 694 l 256 0 l 103 0 l 103 694 m 236 1014 l 419 1014 l 236 788 l 118 788 l 236 1014 z "},"î":{"ha":358,"x_min":-68,"x_max":426,"o":"m 103 694 l 256 694 l 256 0 l 103 0 l 103 694 m 108 1014 l 250 1014 l 426 803 l 282 803 l 179 917 l 76 803 l -68 803 l 108 1014 z "},"ï":{"ha":358,"x_min":-57,"x_max":414,"o":"m 103 694 l 256 694 l 256 0 l 103 0 l 103 694 m 313 818 q 240 848 271 818 q 210 921 210 878 q 240 992 210 963 q 313 1022 271 1022 q 385 992 356 1022 q 414 921 414 963 q 385 848 414 878 q 313 818 356 818 m 46 818 q -26 848 4 818 q -57 921 -57 878 q -26 992 -57 963 q 46 1022 4 1022 q 118 992 89 1022 q 147 921 147 963 q 118 848 147 878 q 46 818 89 818 z "},"ð":{"ha":835,"x_min":53,"x_max":782,"o":"m 558 790 l 710 565 q 762 463 742 517 q 782 347 782 410 q 754 207 782 272 q 677 92 726 142 q 561 15 628 43 q 417 -14 494 -14 q 273 15 339 -14 q 158 92 207 43 q 81 207 108 142 q 53 347 53 272 q 83 494 53 428 q 164 607 114 560 q 277 680 214 654 q 407 706 340 706 q 426 705 417 706 q 447 703 436 704 l 389 790 l 196 790 l 196 899 l 318 899 l 242 1014 l 410 1014 l 486 899 l 653 899 l 653 790 l 558 790 m 417 128 q 501 144 463 128 q 568 191 540 161 q 611 261 596 221 q 626 347 626 301 q 611 433 626 393 q 568 503 596 474 q 501 550 540 533 q 417 567 463 567 q 332 550 371 567 q 266 503 293 533 q 224 433 239 474 q 208 347 208 393 q 224 261 208 301 q 266 191 239 221 q 332 144 293 161 q 417 128 371 128 z "},"ñ":{"ha":825,"x_min":103,"x_max":732,"o":"m 103 694 l 256 694 l 256 621 q 344 687 292 665 q 460 708 397 708 q 572 688 522 708 q 658 628 622 667 q 713 536 693 590 q 732 415 732 482 l 732 0 l 579 0 l 579 390 q 540 522 579 474 q 426 569 500 569 q 321 539 364 569 q 256 460 278 508 l 256 0 l 103 0 l 103 694 m 171 840 q 225 944 182 907 q 325 982 268 982 q 380 972 354 982 q 428 951 406 963 q 470 929 451 939 q 506 919 489 919 q 544 935 531 919 q 567 983 558 951 l 667 983 l 661 953 q 607 848 650 886 q 507 810 564 810 q 452 819 478 810 q 403 841 426 829 q 362 863 381 853 q 326 872 343 872 q 288 857 301 872 q 265 810 274 842 l 165 810 l 171 840 z "},"ò":{"ha":832,"x_min":53,"x_max":781,"o":"m 417 -14 q 273 14 339 -14 q 158 91 207 42 q 81 206 108 140 q 53 347 53 272 q 81 488 53 422 q 158 603 108 554 q 273 681 207 653 q 417 708 339 708 q 560 681 493 708 q 676 603 626 653 q 753 488 725 554 q 781 347 781 422 q 753 206 781 272 q 676 91 725 140 q 560 14 626 42 q 417 -14 493 -14 m 417 128 q 501 144 463 128 q 567 191 539 161 q 610 261 594 221 q 625 347 625 301 q 610 433 625 393 q 567 503 594 474 q 501 550 539 533 q 417 567 463 567 q 332 550 371 567 q 265 503 293 533 q 222 433 238 474 q 207 347 207 393 q 222 261 207 301 q 265 191 238 221 q 332 144 293 161 q 417 128 371 128 m 360 788 l 176 1014 l 360 1014 l 478 788 l 360 788 z "},"ó":{"ha":832,"x_min":53,"x_max":781,"o":"m 417 -14 q 273 14 339 -14 q 158 91 207 42 q 81 206 108 140 q 53 347 53 272 q 81 488 53 422 q 158 603 108 554 q 273 681 207 653 q 417 708 339 708 q 560 681 493 708 q 676 603 626 653 q 753 488 725 554 q 781 347 781 422 q 753 206 781 272 q 676 91 725 140 q 560 14 626 42 q 417 -14 493 -14 m 417 128 q 501 144 463 128 q 567 191 539 161 q 610 261 594 221 q 625 347 625 301 q 610 433 625 393 q 567 503 594 474 q 501 550 539 533 q 417 567 463 567 q 332 550 371 567 q 265 503 293 533 q 222 433 238 474 q 207 347 207 393 q 222 261 207 301 q 265 191 238 221 q 332 144 293 161 q 417 128 371 128 m 472 1014 l 656 1014 l 472 788 l 354 788 l 472 1014 z "},"ô":{"ha":832,"x_min":53,"x_max":781,"o":"m 417 -14 q 273 14 339 -14 q 158 91 207 42 q 81 206 108 140 q 53 347 53 272 q 81 488 53 422 q 158 603 108 554 q 273 681 207 653 q 417 708 339 708 q 560 681 493 708 q 676 603 626 653 q 753 488 725 554 q 781 347 781 422 q 753 206 781 272 q 676 91 725 140 q 560 14 626 42 q 417 -14 493 -14 m 417 128 q 501 144 463 128 q 567 191 539 161 q 610 261 594 221 q 625 347 625 301 q 610 433 625 393 q 567 503 594 474 q 501 550 539 533 q 417 567 463 567 q 332 550 371 567 q 265 503 293 533 q 222 433 238 474 q 207 347 207 393 q 222 261 207 301 q 265 191 238 221 q 332 144 293 161 q 417 128 371 128 m 346 1014 l 488 1014 l 664 803 l 519 803 l 417 917 l 314 803 l 169 803 l 346 1014 z "},"õ":{"ha":832,"x_min":53,"x_max":781,"o":"m 417 -14 q 273 14 339 -14 q 158 91 207 42 q 81 206 108 140 q 53 347 53 272 q 81 488 53 422 q 158 603 108 554 q 273 681 207 653 q 417 708 339 708 q 560 681 493 708 q 676 603 626 653 q 753 488 725 554 q 781 347 781 422 q 753 206 781 272 q 676 91 725 140 q 560 14 626 42 q 417 -14 493 -14 m 417 128 q 501 144 463 128 q 567 191 539 161 q 610 261 594 221 q 625 347 625 301 q 610 433 625 393 q 567 503 594 474 q 501 550 539 533 q 417 567 463 567 q 332 550 371 567 q 265 503 293 533 q 222 433 238 474 q 207 347 207 393 q 222 261 207 301 q 265 191 238 221 q 332 144 293 161 q 417 128 371 128 m 171 840 q 225 944 182 907 q 325 982 268 982 q 380 972 354 982 q 428 951 406 963 q 470 929 451 939 q 506 919 489 919 q 544 935 531 919 q 567 983 558 951 l 667 983 l 661 953 q 607 848 650 886 q 507 810 564 810 q 452 819 478 810 q 403 841 426 829 q 362 863 381 853 q 326 872 343 872 q 288 857 301 872 q 265 810 274 842 l 165 810 l 171 840 z "},"ö":{"ha":832,"x_min":53,"x_max":781,"o":"m 417 -14 q 273 14 339 -14 q 158 91 207 42 q 81 206 108 140 q 53 347 53 272 q 81 488 53 422 q 158 603 108 554 q 273 681 207 653 q 417 708 339 708 q 560 681 493 708 q 676 603 626 653 q 753 488 725 554 q 781 347 781 422 q 753 206 781 272 q 676 91 725 140 q 560 14 626 42 q 417 -14 493 -14 m 417 128 q 501 144 463 128 q 567 191 539 161 q 610 261 594 221 q 625 347 625 301 q 610 433 625 393 q 567 503 594 474 q 501 550 539 533 q 417 567 463 567 q 332 550 371 567 q 265 503 293 533 q 222 433 238 474 q 207 347 207 393 q 222 261 207 301 q 265 191 238 221 q 332 144 293 161 q 417 128 371 128 m 575 818 q 503 848 533 818 q 474 921 474 878 q 503 992 474 963 q 575 1022 533 1022 q 648 992 618 1022 q 678 921 678 963 q 648 848 678 878 q 575 818 618 818 m 257 818 q 185 848 215 818 q 156 921 156 878 q 185 992 156 963 q 257 1022 215 1022 q 330 992 300 1022 q 360 921 360 963 q 330 848 360 878 q 257 818 300 818 z "},"ø":{"ha":844,"x_min":60,"x_max":788,"o":"m 424 -14 q 280 14 346 -14 q 165 91 214 42 q 88 206 115 140 q 60 347 60 272 q 88 488 60 422 q 165 603 115 554 q 280 681 214 653 q 424 708 346 708 q 567 681 500 708 q 683 603 633 653 q 760 488 732 554 q 788 347 788 422 q 760 206 788 272 q 683 91 732 140 q 567 14 633 42 q 424 -14 500 -14 m 424 128 q 508 144 469 128 q 574 191 546 161 q 617 261 601 221 q 632 347 632 301 q 617 433 632 393 q 574 503 601 474 q 508 550 546 533 q 424 567 469 567 q 339 550 378 567 q 272 503 300 533 q 229 433 244 474 q 214 347 214 393 q 229 261 214 301 q 272 191 244 221 q 339 144 300 161 q 424 128 378 128 m 124 -14 l 65 46 l 721 708 l 779 650 l 124 -14 z "},"ù":{"ha":810,"x_min":93,"x_max":707,"o":"m 707 0 l 554 0 l 554 72 q 467 7 519 28 q 363 -14 415 -14 q 251 7 301 -14 q 166 66 201 28 q 112 158 131 104 q 93 279 93 213 l 93 694 l 246 694 l 246 304 q 285 173 246 221 q 396 125 324 125 q 490 156 449 125 q 554 235 532 186 l 554 694 l 707 694 l 707 0 m 343 788 l 160 1014 l 343 1014 l 461 788 l 343 788 z "},"ú":{"ha":810,"x_min":93,"x_max":707,"o":"m 707 0 l 554 0 l 554 72 q 467 7 519 28 q 363 -14 415 -14 q 251 7 301 -14 q 166 66 201 28 q 112 158 131 104 q 93 279 93 213 l 93 694 l 246 694 l 246 304 q 285 173 246 221 q 396 125 324 125 q 490 156 449 125 q 554 235 532 186 l 554 694 l 707 694 l 707 0 m 456 1014 l 639 1014 l 456 788 l 338 788 l 456 1014 z "},"û":{"ha":810,"x_min":93,"x_max":707,"o":"m 707 0 l 554 0 l 554 72 q 467 7 519 28 q 363 -14 415 -14 q 251 7 301 -14 q 166 66 201 28 q 112 158 131 104 q 93 279 93 213 l 93 694 l 246 694 l 246 304 q 285 173 246 221 q 396 125 324 125 q 490 156 449 125 q 554 235 532 186 l 554 694 l 707 694 l 707 0 m 329 1014 l 471 1014 l 647 803 l 503 803 l 400 917 l 297 803 l 153 803 l 329 1014 z "},"ü":{"ha":810,"x_min":93,"x_max":707,"o":"m 707 0 l 554 0 l 554 72 q 467 7 519 28 q 363 -14 415 -14 q 251 7 301 -14 q 166 66 201 28 q 112 158 131 104 q 93 279 93 213 l 93 694 l 246 694 l 246 304 q 285 173 246 221 q 396 125 324 125 q 490 156 449 125 q 554 235 532 186 l 554 694 l 707 694 l 707 0 m 558 818 q 487 848 517 818 q 457 921 457 878 q 487 992 457 963 q 558 1022 517 1022 q 631 992 601 1022 q 661 921 661 963 q 631 848 661 878 q 558 818 601 818 m 240 818 q 169 848 199 818 q 139 921 139 878 q 169 992 139 963 q 240 1022 199 1022 q 313 992 283 1022 q 343 921 343 963 q 313 848 343 878 q 240 818 283 818 z "},"ý":{"ha":775,"x_min":7,"x_max":771,"o":"m 167 -269 l 306 38 l 7 694 l 175 694 l 388 203 l 601 694 l 771 694 l 335 -269 l 167 -269 m 446 1014 l 629 1014 l 446 788 l 328 788 l 446 1014 z "},"þ":{"ha":860,"x_min":103,"x_max":806,"o":"m 103 1014 l 256 1014 l 256 631 q 344 688 292 668 q 458 708 396 708 q 600 679 536 708 q 710 601 664 650 q 781 486 756 551 q 806 347 806 421 q 781 208 806 274 q 710 94 756 143 q 600 15 664 44 q 458 -14 536 -14 q 344 6 396 -14 q 256 65 292 26 l 256 -269 l 103 -269 l 103 1014 m 442 125 q 526 142 488 125 q 591 190 564 160 q 633 261 618 221 q 649 347 649 301 q 633 433 649 393 q 591 504 618 474 q 526 552 564 535 q 442 569 488 569 q 328 542 374 569 q 256 474 283 514 l 256 222 q 328 153 283 181 q 442 125 374 125 z "},"ÿ":{"ha":775,"x_min":7,"x_max":771,"o":"m 167 -269 l 306 38 l 7 694 l 175 694 l 388 203 l 601 694 l 771 694 l 335 -269 l 167 -269 m 549 818 q 477 848 507 818 q 447 921 447 878 q 477 992 447 963 q 549 1022 507 1022 q 622 992 592 1022 q 651 921 651 963 q 622 848 651 878 q 549 818 592 818 m 231 818 q 159 848 189 818 q 129 921 129 878 q 159 992 129 963 q 231 1022 189 1022 q 303 992 274 1022 q 333 921 333 963 q 303 848 333 878 q 231 818 274 818 z "},"Ă":{"ha":1014,"x_min":6,"x_max":1008,"o":"m 436 986 l 578 986 l 1008 0 l 839 0 l 726 258 l 285 258 l 174 0 l 6 0 l 436 986 m 347 403 l 664 403 l 506 767 l 347 403 m 507 1049 q 417 1065 460 1049 q 344 1110 375 1081 q 294 1183 313 1140 q 276 1279 276 1226 l 371 1279 q 410 1178 371 1213 q 507 1143 450 1143 q 603 1178 564 1143 q 643 1279 643 1213 l 738 1279 q 719 1183 738 1226 q 670 1110 701 1140 q 597 1065 639 1081 q 507 1049 554 1049 z "},"Ā":{"ha":1014,"x_min":6,"x_max":1008,"o":"m 436 986 l 578 986 l 1008 0 l 839 0 l 726 258 l 285 258 l 174 0 l 6 0 l 436 986 m 347 403 l 664 403 l 506 767 l 347 403 m 276 1222 l 738 1222 l 738 1108 l 276 1108 l 276 1222 z "},"Ą":{"ha":1014,"x_min":6,"x_max":1029,"o":"m 436 986 l 578 986 l 1008 0 q 924 -62 953 -32 q 894 -126 894 -93 q 908 -159 894 -150 q 940 -168 922 -168 q 962 -165 951 -168 q 983 -156 972 -162 l 1029 -244 q 970 -273 1004 -262 q 900 -283 936 -283 q 797 -249 838 -283 q 757 -161 757 -215 q 783 -69 757 -108 q 839 0 808 -31 l 726 258 l 285 258 l 174 0 l 6 0 l 436 986 m 347 403 l 664 403 l 506 767 l 347 403 z "},"Ć":{"ha":1047,"x_min":58,"x_max":1013,"o":"m 568 -17 q 369 23 461 -17 q 207 131 276 63 q 98 293 138 200 q 58 493 58 386 q 98 693 58 600 q 207 855 138 786 q 369 963 276 924 q 568 1003 461 1003 q 830 935 714 1003 q 1013 753 946 867 l 872 672 q 747 799 824 751 q 568 846 671 846 q 431 818 494 846 q 322 742 368 790 q 249 631 275 694 q 222 493 222 567 q 249 356 222 419 q 322 244 275 292 q 431 168 368 196 q 568 140 494 140 q 747 188 671 140 q 872 314 824 235 l 1013 233 q 830 51 946 119 q 568 -17 714 -17 m 615 1257 l 796 1257 l 631 1067 l 511 1067 l 615 1257 z "},"Č":{"ha":1047,"x_min":58,"x_max":1013,"o":"m 568 -17 q 369 23 461 -17 q 207 131 276 63 q 98 293 138 200 q 58 493 58 386 q 98 693 58 600 q 207 855 138 786 q 369 963 276 924 q 568 1003 461 1003 q 830 935 714 1003 q 1013 753 946 867 l 872 672 q 747 799 824 751 q 568 846 671 846 q 431 818 494 846 q 322 742 368 790 q 249 631 275 694 q 222 493 222 567 q 249 356 222 419 q 322 244 275 292 q 431 168 368 196 q 568 140 494 140 q 747 188 671 140 q 872 314 824 235 l 1013 233 q 830 51 946 119 q 568 -17 714 -17 m 324 1257 l 472 1257 l 568 1158 l 664 1257 l 814 1257 l 644 1067 l 493 1067 l 324 1257 z "},"Ĉ":{"ha":1047,"x_min":58,"x_max":1013,"o":"m 568 -17 q 369 23 461 -17 q 207 131 276 63 q 98 293 138 200 q 58 493 58 386 q 98 693 58 600 q 207 855 138 786 q 369 963 276 924 q 568 1003 461 1003 q 830 935 714 1003 q 1013 753 946 867 l 872 672 q 747 799 824 751 q 568 846 671 846 q 431 818 494 846 q 322 742 368 790 q 249 631 275 694 q 222 493 222 567 q 249 356 222 419 q 322 244 275 292 q 431 168 368 196 q 568 140 494 140 q 747 188 671 140 q 872 314 824 235 l 1013 233 q 830 51 946 119 q 568 -17 714 -17 m 493 1257 l 644 1257 l 814 1067 l 664 1067 l 568 1164 l 472 1067 l 324 1067 l 493 1257 z "},"Ċ":{"ha":1047,"x_min":58,"x_max":1013,"o":"m 568 -17 q 369 23 461 -17 q 207 131 276 63 q 98 293 138 200 q 58 493 58 386 q 98 693 58 600 q 207 855 138 786 q 369 963 276 924 q 568 1003 461 1003 q 830 935 714 1003 q 1013 753 946 867 l 872 672 q 747 799 824 751 q 568 846 671 846 q 431 818 494 846 q 322 742 368 790 q 249 631 275 694 q 222 493 222 567 q 249 356 222 419 q 322 244 275 292 q 431 168 368 196 q 568 140 494 140 q 747 188 671 140 q 872 314 824 235 l 1013 233 q 830 51 946 119 q 568 -17 714 -17 m 568 1074 q 497 1103 526 1074 q 467 1176 467 1133 q 497 1248 467 1218 q 568 1278 526 1278 q 641 1248 611 1278 q 671 1176 671 1218 q 641 1103 671 1133 q 568 1074 611 1074 z "},"Ď":{"ha":999,"x_min":121,"x_max":940,"o":"m 121 986 l 424 986 q 628 949 533 986 q 792 844 722 911 q 901 688 861 778 q 940 493 940 597 q 901 299 940 389 q 792 142 861 208 q 628 38 722 75 q 424 0 533 0 l 121 0 l 121 986 m 424 151 q 567 178 503 151 q 678 250 632 204 q 750 358 725 296 q 775 493 775 421 q 750 628 775 565 q 678 736 725 690 q 567 808 632 782 q 424 835 503 835 l 283 835 l 283 151 l 424 151 m 228 1257 l 376 1257 l 472 1158 l 568 1257 l 718 1257 l 549 1067 l 397 1067 l 228 1257 z "},"Đ":{"ha":1014,"x_min":35,"x_max":956,"o":"m 136 986 l 439 986 q 643 949 549 986 q 807 844 738 911 q 916 688 876 778 q 956 493 956 597 q 916 299 956 389 q 807 142 876 208 q 643 38 738 75 q 439 0 549 0 l 136 0 l 136 986 m 439 151 q 583 178 518 151 q 694 250 647 204 q 765 358 740 296 q 790 493 790 421 q 765 628 790 565 q 694 736 740 690 q 583 808 647 782 q 439 835 518 835 l 299 835 l 299 151 l 439 151 m 35 569 l 500 569 l 500 428 l 35 428 l 35 569 z "},"Ĕ":{"ha":781,"x_min":121,"x_max":714,"o":"m 121 986 l 714 986 l 714 831 l 283 831 l 283 578 l 631 578 l 631 422 l 283 422 l 283 156 l 714 156 l 714 0 l 121 0 l 121 986 m 417 1049 q 327 1065 369 1049 q 253 1110 285 1081 q 204 1183 222 1140 q 186 1279 186 1226 l 281 1279 q 320 1178 281 1213 q 417 1143 360 1143 q 513 1178 474 1143 q 553 1279 553 1213 l 647 1279 q 629 1183 647 1226 q 580 1110 611 1140 q 506 1065 549 1081 q 417 1049 464 1049 z "},"Ě":{"ha":781,"x_min":121,"x_max":714,"o":"m 121 986 l 714 986 l 714 831 l 283 831 l 283 578 l 631 578 l 631 422 l 283 422 l 283 156 l 714 156 l 714 0 l 121 0 l 121 986 m 172 1257 l 321 1257 l 417 1158 l 513 1257 l 663 1257 l 493 1067 l 342 1067 l 172 1257 z "},"Ē":{"ha":781,"x_min":121,"x_max":714,"o":"m 121 986 l 714 986 l 714 831 l 283 831 l 283 578 l 631 578 l 631 422 l 283 422 l 283 156 l 714 156 l 714 0 l 121 0 l 121 986 m 186 1222 l 647 1222 l 647 1108 l 186 1108 l 186 1222 z "},"Ę":{"ha":781,"x_min":121,"x_max":735,"o":"m 121 986 l 714 986 l 714 831 l 283 831 l 283 578 l 631 578 l 631 422 l 283 422 l 283 156 l 714 156 l 714 0 l 121 0 l 121 986 m 603 -283 q 500 -249 542 -283 q 458 -160 458 -215 q 485 -74 458 -111 q 551 0 511 -36 l 714 0 q 629 -62 658 -32 q 600 -124 600 -93 q 614 -153 600 -144 q 643 -162 628 -162 q 686 -150 668 -162 l 735 -244 q 676 -273 710 -262 q 603 -283 642 -283 z "},"Ė":{"ha":781,"x_min":121,"x_max":714,"o":"m 121 986 l 714 986 l 714 831 l 283 831 l 283 578 l 631 578 l 631 422 l 283 422 l 283 156 l 714 156 l 714 0 l 121 0 l 121 986 m 417 1074 q 345 1103 375 1074 q 315 1176 315 1133 q 345 1248 315 1218 q 417 1278 375 1278 q 490 1248 460 1278 q 519 1176 519 1218 q 490 1103 519 1133 q 417 1074 460 1074 z "},"Ğ":{"ha":1061,"x_min":58,"x_max":985,"o":"m 592 -17 q 377 22 475 -17 q 208 130 279 61 q 98 292 138 199 q 58 493 58 385 q 97 693 58 600 q 205 855 136 786 q 369 963 274 924 q 575 1003 464 1003 q 792 964 697 1003 q 957 854 888 925 l 846 739 q 731 817 797 788 q 575 846 665 846 q 433 818 497 846 q 321 742 368 790 q 248 631 274 694 q 222 493 222 567 q 248 353 222 418 q 322 242 274 289 q 438 167 369 194 q 590 140 506 140 q 721 155 657 140 q 826 204 785 169 l 826 424 l 579 424 l 579 576 l 985 576 l 985 125 q 907 63 951 89 q 812 18 863 36 q 705 -8 761 0 q 592 -17 649 -17 m 578 1049 q 488 1065 531 1049 q 415 1110 446 1081 q 365 1183 383 1140 q 347 1279 347 1226 l 442 1279 q 481 1178 442 1213 q 578 1143 521 1143 q 674 1178 635 1143 q 714 1279 714 1213 l 808 1279 q 790 1183 808 1226 q 741 1110 772 1140 q 667 1065 710 1081 q 578 1049 625 1049 z "},"Ĝ":{"ha":1061,"x_min":58,"x_max":985,"o":"m 592 -17 q 377 22 475 -17 q 208 130 279 61 q 98 292 138 199 q 58 493 58 385 q 97 693 58 600 q 205 855 136 786 q 369 963 274 924 q 575 1003 464 1003 q 792 964 697 1003 q 957 854 888 925 l 846 739 q 731 817 797 788 q 575 846 665 846 q 433 818 497 846 q 321 742 368 790 q 248 631 274 694 q 222 493 222 567 q 248 353 222 418 q 322 242 274 289 q 438 167 369 194 q 590 140 506 140 q 721 155 657 140 q 826 204 785 169 l 826 424 l 579 424 l 579 576 l 985 576 l 985 125 q 907 63 951 89 q 812 18 863 36 q 705 -8 761 0 q 592 -17 649 -17 m 503 1257 l 654 1257 l 824 1067 l 674 1067 l 578 1164 l 482 1067 l 333 1067 l 503 1257 z "},"Ģ":{"ha":1061,"x_min":58,"x_max":985,"o":"m 592 -17 q 377 22 475 -17 q 208 130 279 61 q 98 292 138 199 q 58 493 58 385 q 97 693 58 600 q 205 855 136 786 q 369 963 274 924 q 575 1003 464 1003 q 792 964 697 1003 q 957 854 888 925 l 846 739 q 731 817 797 788 q 575 846 665 846 q 433 818 497 846 q 321 742 368 790 q 248 631 274 694 q 222 493 222 567 q 248 353 222 418 q 322 242 274 289 q 438 167 369 194 q 590 140 506 140 q 721 155 657 140 q 826 204 785 169 l 826 424 l 579 424 l 579 576 l 985 576 l 985 125 q 907 63 951 89 q 812 18 863 36 q 705 -8 761 0 q 592 -17 649 -17 m 549 -297 q 499 -260 518 -286 q 481 -200 481 -233 q 510 -128 481 -158 q 582 -99 540 -99 q 655 -128 625 -99 q 685 -200 685 -158 q 674 -244 685 -224 q 647 -289 663 -265 l 572 -408 l 500 -408 l 549 -297 z "},"Ġ":{"ha":1061,"x_min":58,"x_max":985,"o":"m 592 -17 q 377 22 475 -17 q 208 130 279 61 q 98 292 138 199 q 58 493 58 385 q 97 693 58 600 q 205 855 136 786 q 369 963 274 924 q 575 1003 464 1003 q 792 964 697 1003 q 957 854 888 925 l 846 739 q 731 817 797 788 q 575 846 665 846 q 433 818 497 846 q 321 742 368 790 q 248 631 274 694 q 222 493 222 567 q 248 353 222 418 q 322 242 274 289 q 438 167 369 194 q 590 140 506 140 q 721 155 657 140 q 826 204 785 169 l 826 424 l 579 424 l 579 576 l 985 576 l 985 125 q 907 63 951 89 q 812 18 863 36 q 705 -8 761 0 q 592 -17 649 -17 m 578 1074 q 506 1103 536 1074 q 476 1176 476 1133 q 506 1248 476 1218 q 578 1278 536 1278 q 651 1248 621 1278 q 681 1176 681 1218 q 651 1103 681 1133 q 578 1074 621 1074 z "},"Ħ":{"ha":1085,"x_min":35,"x_max":1050,"o":"m 136 986 l 299 986 l 299 578 l 786 578 l 786 986 l 949 986 l 949 0 l 786 0 l 786 424 l 299 424 l 299 0 l 136 0 l 136 986 m 35 843 l 1050 843 l 1050 725 l 35 725 l 35 843 z "},"Ĥ":{"ha":1056,"x_min":121,"x_max":933,"o":"m 121 986 l 283 986 l 283 578 l 771 578 l 771 986 l 933 986 l 933 0 l 771 0 l 771 424 l 283 424 l 283 0 l 121 0 l 121 986 m 453 1257 l 604 1257 l 774 1067 l 624 1067 l 528 1164 l 432 1067 l 283 1067 l 453 1257 z "},"Ĭ":{"ha":404,"x_min":-28,"x_max":433,"o":"m 121 986 l 283 986 l 283 0 l 121 0 l 121 986 m 203 1049 q 113 1065 156 1049 q 40 1110 71 1081 q -10 1183 8 1140 q -28 1279 -28 1226 l 67 1279 q 106 1178 67 1213 q 203 1143 146 1143 q 299 1178 260 1143 q 339 1279 339 1213 l 433 1279 q 415 1183 433 1226 q 366 1110 397 1140 q 292 1065 335 1081 q 203 1049 250 1049 z "},"İ":{"ha":404,"x_min":101,"x_max":306,"o":"m 121 986 l 283 986 l 283 0 l 121 0 l 121 986 m 203 1074 q 131 1103 161 1074 q 101 1176 101 1133 q 131 1248 101 1218 q 203 1278 161 1278 q 276 1248 246 1278 q 306 1176 306 1218 q 276 1103 306 1133 q 203 1074 246 1074 z "},"Ī":{"ha":404,"x_min":-28,"x_max":433,"o":"m 121 986 l 283 986 l 283 0 l 121 0 l 121 986 m -28 1222 l 433 1222 l 433 1108 l -28 1108 l -28 1222 z "},"Į":{"ha":404,"x_min":28,"x_max":304,"o":"m 121 986 l 283 986 l 283 0 l 121 0 l 121 986 m 172 -283 q 69 -249 111 -283 q 28 -160 28 -215 q 54 -74 28 -111 q 121 0 81 -36 l 283 0 q 199 -62 228 -32 q 169 -124 169 -93 q 183 -153 169 -144 q 213 -162 197 -162 q 256 -150 238 -162 l 304 -244 q 245 -273 279 -262 q 172 -283 211 -283 z "},"Ĩ":{"ha":404,"x_min":-47,"x_max":453,"o":"m 121 986 l 283 986 l 283 0 l 121 0 l 121 986 m -43 1117 q 12 1222 -32 1183 q 113 1260 56 1260 q 167 1250 142 1260 q 215 1228 192 1240 q 257 1207 238 1217 q 293 1197 276 1197 q 332 1213 318 1197 q 353 1260 346 1228 l 453 1260 l 449 1229 q 394 1125 438 1163 q 293 1088 350 1088 q 238 1097 264 1088 q 190 1119 213 1107 q 148 1140 167 1131 q 113 1150 129 1150 q 74 1134 88 1150 q 51 1086 60 1118 l -47 1086 l -43 1117 z "},"Ị":{"ha":404,"x_min":101,"x_max":306,"o":"m 121 986 l 283 986 l 283 0 l 121 0 l 121 986 m 203 -303 q 131 -273 161 -303 q 101 -200 101 -243 q 131 -128 101 -158 q 203 -99 161 -99 q 276 -128 246 -99 q 306 -200 306 -158 q 276 -273 306 -243 q 203 -303 246 -303 z "},"Ĵ":{"ha":653,"x_min":6,"x_max":704,"o":"m 254 -17 q 103 15 164 -17 q 6 86 42 46 l 103 203 q 167 153 133 171 q 249 135 201 135 q 342 167 306 135 q 378 278 378 200 l 378 986 l 540 986 l 540 269 q 517 141 540 194 q 456 52 494 88 q 365 0 417 17 q 254 -17 313 -17 m 383 1257 l 535 1257 l 704 1067 l 554 1067 l 458 1164 l 363 1067 l 214 1067 l 383 1257 z "},"Ķ":{"ha":947,"x_min":121,"x_max":981,"o":"m 282 461 l 282 0 l 121 0 l 121 986 l 282 986 l 282 561 l 678 986 l 883 986 l 444 514 l 981 0 l 761 0 l 282 461 m 488 -297 q 438 -260 457 -286 q 419 -200 419 -233 q 449 -128 419 -158 q 521 -99 479 -99 q 594 -128 564 -99 q 624 -200 624 -158 q 613 -244 624 -224 q 586 -289 601 -265 l 511 -408 l 439 -408 l 488 -297 z "},"Ĺ":{"ha":763,"x_min":121,"x_max":735,"o":"m 121 986 l 283 986 l 283 156 l 735 156 l 735 0 l 121 0 l 121 986 m 251 1257 l 432 1257 l 267 1067 l 147 1067 l 251 1257 z "},"Ľ":{"ha":764,"x_min":121,"x_max":735,"o":"m 121 986 l 283 986 l 283 156 l 735 156 l 735 0 l 121 0 l 121 986 m 435 1014 l 588 1014 l 508 788 l 404 788 l 435 1014 z "},"Ļ":{"ha":763,"x_min":121,"x_max":735,"o":"m 121 986 l 283 986 l 283 156 l 735 156 l 735 0 l 121 0 l 121 986 m 390 -297 q 341 -260 360 -286 q 322 -200 322 -233 q 352 -128 322 -158 q 424 -99 382 -99 q 497 -128 467 -99 q 526 -200 526 -158 q 515 -244 526 -224 q 489 -289 504 -265 l 414 -408 l 342 -408 l 390 -297 z "},"Ŀ":{"ha":771,"x_min":121,"x_max":735,"o":"m 121 986 l 283 986 l 283 156 l 735 156 l 735 0 l 121 0 l 121 986 m 583 472 q 512 502 542 472 q 482 575 482 532 q 512 647 482 617 q 583 676 542 676 q 656 647 626 676 q 686 575 686 617 q 656 502 686 532 q 583 472 626 472 z "},"Ł":{"ha":796,"x_min":53,"x_max":767,"o":"m 153 986 l 315 986 l 315 156 l 767 156 l 767 0 l 153 0 l 153 986 m 53 296 l 53 433 l 522 722 l 522 585 l 53 296 z "},"Ń":{"ha":1101,"x_min":121,"x_max":981,"o":"m 839 0 l 283 710 l 283 0 l 121 0 l 121 986 l 263 986 l 817 278 l 817 986 l 981 986 l 981 0 l 839 0 m 594 1257 l 775 1257 l 610 1067 l 490 1067 l 594 1257 z "},"Ň":{"ha":1101,"x_min":121,"x_max":981,"o":"m 839 0 l 283 710 l 283 0 l 121 0 l 121 986 l 263 986 l 817 278 l 817 986 l 981 986 l 981 0 l 839 0 m 303 1257 l 451 1257 l 547 1158 l 643 1257 l 793 1257 l 624 1067 l 472 1067 l 303 1257 z "},"Ņ":{"ha":1101,"x_min":121,"x_max":981,"o":"m 839 0 l 283 710 l 283 0 l 121 0 l 121 986 l 263 986 l 817 278 l 817 986 l 981 986 l 981 0 l 839 0 m 519 -297 q 470 -260 489 -286 q 451 -200 451 -233 q 481 -128 451 -158 q 553 -99 511 -99 q 626 -128 596 -99 q 656 -200 656 -158 q 644 -244 656 -224 q 618 -289 633 -265 l 543 -408 l 471 -408 l 519 -297 z "},"Œ":{"ha":1572,"x_min":58,"x_max":1506,"o":"m 568 140 q 703 168 640 140 q 813 244 767 196 q 886 356 860 292 q 913 493 913 419 q 886 631 913 567 q 813 742 860 694 q 703 818 767 790 q 568 846 640 846 q 431 818 494 846 q 322 742 368 790 q 249 631 275 694 q 222 493 222 567 q 249 356 222 419 q 322 244 275 292 q 431 168 368 196 q 568 140 494 140 m 913 132 q 762 22 851 60 q 568 -17 672 -17 q 369 23 461 -17 q 207 131 276 63 q 98 293 138 200 q 58 493 58 386 q 98 693 58 600 q 207 855 138 786 q 369 963 276 924 q 568 1003 461 1003 q 762 965 672 1003 q 913 854 851 926 l 913 986 l 1506 986 l 1506 831 l 1076 831 l 1076 578 l 1422 578 l 1422 422 l 1076 422 l 1076 156 l 1506 156 l 1506 0 l 913 0 l 913 132 z "},"Ŏ":{"ha":1135,"x_min":58,"x_max":1078,"o":"m 568 140 q 703 168 640 140 q 813 244 767 196 q 886 356 860 292 q 913 493 913 419 q 886 631 913 567 q 813 742 860 694 q 703 818 767 790 q 568 846 640 846 q 431 818 494 846 q 322 742 368 790 q 249 631 275 694 q 222 493 222 567 q 249 356 222 419 q 322 244 275 292 q 431 168 368 196 q 568 140 494 140 m 568 -17 q 369 23 461 -17 q 207 131 276 63 q 98 293 138 200 q 58 493 58 386 q 98 693 58 600 q 207 855 138 786 q 369 963 276 924 q 568 1003 461 1003 q 767 963 674 1003 q 928 855 860 924 q 1038 693 997 786 q 1078 493 1078 600 q 1038 293 1078 386 q 928 131 997 200 q 767 23 860 63 q 568 -17 674 -17 m 568 1049 q 478 1065 521 1049 q 405 1110 436 1081 q 356 1183 374 1140 q 338 1279 338 1226 l 432 1279 q 472 1178 432 1213 q 568 1143 511 1143 q 665 1178 625 1143 q 704 1279 704 1213 l 799 1279 q 781 1183 799 1226 q 731 1110 763 1140 q 658 1065 700 1081 q 568 1049 615 1049 z "},"Ő":{"ha":1135,"x_min":58,"x_max":1078,"o":"m 568 140 q 703 168 640 140 q 813 244 767 196 q 886 356 860 292 q 913 493 913 419 q 886 631 913 567 q 813 742 860 694 q 703 818 767 790 q 568 846 640 846 q 431 818 494 846 q 322 742 368 790 q 249 631 275 694 q 222 493 222 567 q 249 356 222 419 q 322 244 275 292 q 431 168 368 196 q 568 140 494 140 m 568 -17 q 369 23 461 -17 q 207 131 276 63 q 98 293 138 200 q 58 493 58 386 q 98 693 58 600 q 207 855 138 786 q 369 963 276 924 q 568 1003 461 1003 q 767 963 674 1003 q 928 855 860 924 q 1038 693 997 786 q 1078 493 1078 600 q 1038 293 1078 386 q 928 131 997 200 q 767 23 860 63 q 568 -17 674 -17 m 479 1257 l 649 1257 l 510 1067 l 404 1067 l 479 1257 m 724 1257 l 893 1257 l 754 1067 l 649 1067 l 724 1257 z "},"Ō":{"ha":1135,"x_min":58,"x_max":1078,"o":"m 568 140 q 703 168 640 140 q 813 244 767 196 q 886 356 860 292 q 913 493 913 419 q 886 631 913 567 q 813 742 860 694 q 703 818 767 790 q 568 846 640 846 q 431 818 494 846 q 322 742 368 790 q 249 631 275 694 q 222 493 222 567 q 249 356 222 419 q 322 244 275 292 q 431 168 368 196 q 568 140 494 140 m 568 -17 q 369 23 461 -17 q 207 131 276 63 q 98 293 138 200 q 58 493 58 386 q 98 693 58 600 q 207 855 138 786 q 369 963 276 924 q 568 1003 461 1003 q 767 963 674 1003 q 928 855 860 924 q 1038 693 997 786 q 1078 493 1078 600 q 1038 293 1078 386 q 928 131 997 200 q 767 23 860 63 q 568 -17 674 -17 m 338 1222 l 799 1222 l 799 1108 l 338 1108 l 338 1222 z "},"Ọ":{"ha":1135,"x_min":58,"x_max":1078,"o":"m 568 140 q 703 168 640 140 q 813 244 767 196 q 886 356 860 292 q 913 493 913 419 q 886 631 913 567 q 813 742 860 694 q 703 818 767 790 q 568 846 640 846 q 431 818 494 846 q 322 742 368 790 q 249 631 275 694 q 222 493 222 567 q 249 356 222 419 q 322 244 275 292 q 431 168 368 196 q 568 140 494 140 m 568 -17 q 369 23 461 -17 q 207 131 276 63 q 98 293 138 200 q 58 493 58 386 q 98 693 58 600 q 207 855 138 786 q 369 963 276 924 q 568 1003 461 1003 q 767 963 674 1003 q 928 855 860 924 q 1038 693 997 786 q 1078 493 1078 600 q 1038 293 1078 386 q 928 131 997 200 q 767 23 860 63 q 568 -17 674 -17 m 568 -303 q 497 -273 526 -303 q 467 -200 467 -243 q 497 -128 467 -158 q 568 -99 526 -99 q 641 -128 611 -99 q 671 -200 671 -158 q 641 -273 671 -243 q 568 -303 611 -303 z "},"Ŕ":{"ha":896,"x_min":121,"x_max":918,"o":"m 121 986 l 476 986 q 600 965 544 986 q 694 907 656 944 q 754 818 733 869 q 775 706 775 767 q 717 534 775 601 q 551 443 658 467 l 918 0 l 718 0 l 357 433 l 283 433 l 283 0 l 121 0 l 121 986 m 457 575 q 571 608 529 575 q 613 706 613 642 q 571 803 613 769 q 457 836 529 836 l 283 836 l 283 575 l 457 575 m 464 1257 l 644 1257 l 479 1067 l 360 1067 l 464 1257 z "},"Ř":{"ha":896,"x_min":121,"x_max":918,"o":"m 121 986 l 476 986 q 600 965 544 986 q 694 907 656 944 q 754 818 733 869 q 775 706 775 767 q 717 534 775 601 q 551 443 658 467 l 918 0 l 718 0 l 357 433 l 283 433 l 283 0 l 121 0 l 121 986 m 457 575 q 571 608 529 575 q 613 706 613 642 q 571 803 613 769 q 457 836 529 836 l 283 836 l 283 575 l 457 575 m 172 1257 l 321 1257 l 417 1158 l 513 1257 l 663 1257 l 493 1067 l 342 1067 l 172 1257 z "},"Ŗ":{"ha":896,"x_min":121,"x_max":918,"o":"m 121 986 l 476 986 q 600 965 544 986 q 694 907 656 944 q 754 818 733 869 q 775 706 775 767 q 717 534 775 601 q 551 443 658 467 l 918 0 l 718 0 l 357 433 l 283 433 l 283 0 l 121 0 l 121 986 m 457 575 q 571 608 529 575 q 613 706 613 642 q 571 803 613 769 q 457 836 529 836 l 283 836 l 283 575 l 457 575 m 467 -297 q 417 -260 436 -286 q 399 -200 399 -233 q 428 -128 399 -158 q 500 -99 458 -99 q 573 -128 543 -99 q 603 -200 603 -158 q 592 -244 603 -224 q 565 -289 581 -265 l 490 -408 l 418 -408 l 467 -297 z "},"Ś":{"ha":779,"x_min":43,"x_max":725,"o":"m 396 -17 q 282 -3 336 -17 q 182 33 228 10 q 101 88 136 56 q 43 161 65 121 l 171 263 q 269 169 210 203 q 400 136 328 136 q 515 169 471 136 q 560 258 560 203 q 525 347 560 311 q 419 408 490 382 l 311 447 q 136 557 193 490 q 79 725 79 624 q 103 841 79 789 q 170 928 128 893 q 271 983 213 964 q 399 1003 329 1003 q 567 968 490 1003 q 697 868 643 933 l 585 758 q 503 826 549 803 q 399 850 457 850 q 339 842 367 850 q 290 820 311 835 q 256 784 268 806 q 243 736 243 763 q 279 652 243 682 q 393 594 315 622 l 493 557 q 663 448 601 517 q 725 268 725 379 q 701 151 725 203 q 633 61 676 99 q 528 3 589 24 q 396 -17 468 -17 m 447 1257 l 628 1257 l 463 1067 l 343 1067 l 447 1257 z "},"Š":{"ha":779,"x_min":43,"x_max":725,"o":"m 396 -17 q 282 -3 336 -17 q 182 33 228 10 q 101 88 136 56 q 43 161 65 121 l 171 263 q 269 169 210 203 q 400 136 328 136 q 515 169 471 136 q 560 258 560 203 q 525 347 560 311 q 419 408 490 382 l 311 447 q 136 557 193 490 q 79 725 79 624 q 103 841 79 789 q 170 928 128 893 q 271 983 213 964 q 399 1003 329 1003 q 567 968 490 1003 q 697 868 643 933 l 585 758 q 503 826 549 803 q 399 850 457 850 q 339 842 367 850 q 290 820 311 835 q 256 784 268 806 q 243 736 243 763 q 279 652 243 682 q 393 594 315 622 l 493 557 q 663 448 601 517 q 725 268 725 379 q 701 151 725 203 q 633 61 676 99 q 528 3 589 24 q 396 -17 468 -17 m 156 1257 l 304 1257 l 400 1158 l 496 1257 l 646 1257 l 476 1067 l 325 1067 l 156 1257 z "},"Ş":{"ha":779,"x_min":43,"x_max":725,"o":"m 396 -17 q 282 -3 336 -17 q 182 33 228 10 q 101 88 136 56 q 43 161 65 121 l 171 263 q 269 169 210 203 q 400 136 328 136 q 515 169 471 136 q 560 258 560 203 q 525 347 560 311 q 419 408 490 382 l 311 447 q 136 557 193 490 q 79 725 79 624 q 103 841 79 789 q 170 928 128 893 q 271 983 213 964 q 399 1003 329 1003 q 567 968 490 1003 q 697 868 643 933 l 585 758 q 503 826 549 803 q 399 850 457 850 q 339 842 367 850 q 290 820 311 835 q 256 784 268 806 q 243 736 243 763 q 279 652 243 682 q 393 594 315 622 l 493 557 q 663 448 601 517 q 725 268 725 379 q 701 151 725 203 q 633 61 676 99 q 528 3 589 24 q 396 -17 468 -17 m 263 -183 q 357 -206 306 -206 q 383 -203 369 -206 q 407 -197 396 -201 q 425 -183 418 -192 q 432 -162 432 -175 q 417 -135 432 -143 q 382 -126 401 -126 q 347 -130 363 -126 q 319 -140 332 -133 l 274 -111 l 343 4 l 424 4 l 382 -65 q 406 -56 392 -60 q 439 -53 421 -53 q 515 -81 483 -53 q 547 -156 547 -108 q 533 -210 547 -186 q 495 -250 519 -233 q 439 -275 471 -267 q 371 -283 407 -283 q 306 -278 339 -283 q 243 -260 272 -274 l 263 -183 z "},"Ŝ":{"ha":779,"x_min":43,"x_max":725,"o":"m 396 -17 q 282 -3 336 -17 q 182 33 228 10 q 101 88 136 56 q 43 161 65 121 l 171 263 q 269 169 210 203 q 400 136 328 136 q 515 169 471 136 q 560 258 560 203 q 525 347 560 311 q 419 408 490 382 l 311 447 q 136 557 193 490 q 79 725 79 624 q 103 841 79 789 q 170 928 128 893 q 271 983 213 964 q 399 1003 329 1003 q 567 968 490 1003 q 697 868 643 933 l 585 758 q 503 826 549 803 q 399 850 457 850 q 339 842 367 850 q 290 820 311 835 q 256 784 268 806 q 243 736 243 763 q 279 652 243 682 q 393 594 315 622 l 493 557 q 663 448 601 517 q 725 268 725 379 q 701 151 725 203 q 633 61 676 99 q 528 3 589 24 q 396 -17 468 -17 m 325 1257 l 476 1257 l 646 1067 l 496 1067 l 400 1164 l 304 1067 l 156 1067 l 325 1257 z "},"Ș":{"ha":779,"x_min":43,"x_max":725,"o":"m 396 -17 q 282 -3 336 -17 q 182 33 228 10 q 101 88 136 56 q 43 161 65 121 l 171 263 q 269 169 210 203 q 400 136 328 136 q 515 169 471 136 q 560 258 560 203 q 525 347 560 311 q 419 408 490 382 l 311 447 q 136 557 193 490 q 79 725 79 624 q 103 841 79 789 q 170 928 128 893 q 271 983 213 964 q 399 1003 329 1003 q 567 968 490 1003 q 697 868 643 933 l 585 758 q 503 826 549 803 q 399 850 457 850 q 339 842 367 850 q 290 820 311 835 q 256 784 268 806 q 243 736 243 763 q 279 652 243 682 q 393 594 315 622 l 493 557 q 663 448 601 517 q 725 268 725 379 q 701 151 725 203 q 633 61 676 99 q 528 3 589 24 q 396 -17 468 -17 m 363 -297 q 313 -260 332 -286 q 294 -200 294 -233 q 324 -128 294 -158 q 396 -99 354 -99 q 469 -128 439 -99 q 499 -200 499 -158 q 488 -244 499 -224 q 461 -289 476 -265 l 386 -408 l 314 -408 l 363 -297 z "},"Ť":{"ha":788,"x_min":26,"x_max":763,"o":"m 313 831 l 26 831 l 26 986 l 763 986 l 763 831 l 475 831 l 475 0 l 313 0 l 313 831 m 149 1257 l 297 1257 l 393 1158 l 489 1257 l 639 1257 l 469 1067 l 318 1067 l 149 1257 z "},"Ţ":{"ha":788,"x_min":26,"x_max":763,"o":"m 313 831 l 26 831 l 26 986 l 763 986 l 763 831 l 475 831 l 475 0 l 313 0 l 313 831 m 360 -297 q 310 -260 329 -286 q 292 -200 292 -233 q 322 -128 292 -158 q 393 -99 351 -99 q 466 -128 436 -99 q 496 -200 496 -158 q 485 -244 496 -224 q 458 -289 474 -265 l 383 -408 l 311 -408 l 360 -297 z "},"Ț":{"ha":788,"x_min":26,"x_max":763,"o":"m 313 831 l 26 831 l 26 986 l 763 986 l 763 831 l 475 831 l 475 0 l 313 0 l 313 831 m 360 -297 q 310 -260 329 -286 q 292 -200 292 -233 q 322 -128 292 -158 q 393 -99 351 -99 q 466 -128 436 -99 q 496 -200 496 -158 q 485 -244 496 -224 q 458 -289 474 -265 l 383 -408 l 311 -408 l 360 -297 z "},"Ŭ":{"ha":1004,"x_min":110,"x_max":894,"o":"m 503 -17 q 343 12 415 -17 q 219 92 271 40 q 138 219 167 144 q 110 386 110 294 l 110 986 l 272 986 l 272 383 q 335 203 272 267 q 503 140 399 140 q 669 203 607 140 q 732 383 732 267 l 732 986 l 894 986 l 894 386 q 865 219 894 294 q 784 92 836 144 q 660 12 732 40 q 503 -17 589 -17 m 503 1049 q 413 1065 456 1049 q 340 1110 371 1081 q 290 1183 308 1140 q 272 1279 272 1226 l 367 1279 q 406 1178 367 1213 q 503 1143 446 1143 q 599 1178 560 1143 q 639 1279 639 1213 l 733 1279 q 715 1183 733 1226 q 666 1110 697 1140 q 592 1065 635 1081 q 503 1049 550 1049 z "},"Ű":{"ha":1004,"x_min":110,"x_max":894,"o":"m 503 -17 q 343 12 415 -17 q 219 92 271 40 q 138 219 167 144 q 110 386 110 294 l 110 986 l 272 986 l 272 383 q 335 203 272 267 q 503 140 399 140 q 669 203 607 140 q 732 383 732 267 l 732 986 l 894 986 l 894 386 q 865 219 894 294 q 784 92 836 144 q 660 12 732 40 q 503 -17 589 -17 m 414 1257 l 583 1257 l 444 1067 l 339 1067 l 414 1257 m 658 1257 l 828 1257 l 689 1067 l 583 1067 l 658 1257 z "},"Ū":{"ha":1004,"x_min":110,"x_max":894,"o":"m 503 -17 q 343 12 415 -17 q 219 92 271 40 q 138 219 167 144 q 110 386 110 294 l 110 986 l 272 986 l 272 383 q 335 203 272 267 q 503 140 399 140 q 669 203 607 140 q 732 383 732 267 l 732 986 l 894 986 l 894 386 q 865 219 894 294 q 784 92 836 144 q 660 12 732 40 q 503 -17 589 -17 m 272 1222 l 733 1222 l 733 1108 l 272 1108 l 272 1222 z "},"Ų":{"ha":1004,"x_min":110,"x_max":894,"o":"m 579 -283 q 478 -252 521 -283 q 435 -165 436 -221 q 454 -90 435 -128 q 515 -17 474 -53 l 508 -17 q 343 13 417 -17 q 217 94 269 42 q 138 222 165 147 q 110 386 110 296 l 110 986 l 272 986 l 272 383 q 335 203 272 267 q 503 140 399 140 q 669 203 607 140 q 732 383 732 267 l 732 986 l 894 986 l 894 386 q 859 202 894 282 q 760 69 824 122 q 691 11 724 38 q 633 -40 658 -15 q 594 -85 608 -64 q 579 -126 579 -106 q 592 -154 579 -146 q 619 -162 604 -162 q 663 -150 644 -162 l 711 -244 q 652 -273 686 -262 q 579 -283 618 -283 z "},"Ů":{"ha":1004,"x_min":110,"x_max":894,"o":"m 503 -17 q 343 12 415 -17 q 219 92 271 40 q 138 219 167 144 q 110 386 110 294 l 110 986 l 272 986 l 272 383 q 335 203 272 267 q 503 140 399 140 q 669 203 607 140 q 732 383 732 267 l 732 986 l 894 986 l 894 386 q 865 219 894 294 q 784 92 836 144 q 660 12 732 40 q 503 -17 589 -17 m 503 1074 q 431 1103 461 1074 q 401 1176 401 1133 q 431 1248 401 1218 q 503 1278 461 1278 q 576 1248 546 1278 q 606 1176 606 1218 q 576 1103 606 1133 q 503 1074 546 1074 z "},"Ũ":{"ha":1004,"x_min":110,"x_max":894,"o":"m 503 -17 q 343 12 415 -17 q 219 92 271 40 q 138 219 167 144 q 110 386 110 294 l 110 986 l 272 986 l 272 383 q 335 203 272 267 q 503 140 399 140 q 669 203 607 140 q 732 383 732 267 l 732 986 l 894 986 l 894 386 q 865 219 894 294 q 784 92 836 144 q 660 12 732 40 q 503 -17 589 -17 m 257 1117 q 312 1222 268 1183 q 413 1260 356 1260 q 467 1250 442 1260 q 515 1228 492 1240 q 557 1207 538 1217 q 593 1197 576 1197 q 632 1213 618 1197 q 653 1260 646 1228 l 753 1260 l 749 1229 q 694 1125 738 1163 q 593 1088 650 1088 q 538 1097 564 1088 q 490 1119 513 1107 q 448 1140 467 1131 q 413 1150 429 1150 q 374 1134 388 1150 q 351 1086 360 1118 l 253 1086 l 257 1117 z "},"Ụ":{"ha":1004,"x_min":110,"x_max":894,"o":"m 503 -17 q 343 12 415 -17 q 219 92 271 40 q 138 219 167 144 q 110 386 110 294 l 110 986 l 272 986 l 272 383 q 335 203 272 267 q 503 140 399 140 q 669 203 607 140 q 732 383 732 267 l 732 986 l 894 986 l 894 386 q 865 219 894 294 q 784 92 836 144 q 660 12 732 40 q 503 -17 589 -17 m 503 -303 q 431 -273 461 -303 q 401 -200 401 -243 q 431 -128 401 -158 q 503 -99 461 -99 q 576 -128 546 -99 q 606 -200 606 -158 q 576 -273 606 -243 q 503 -303 546 -303 z "},"Ẃ":{"ha":1401,"x_min":18,"x_max":1383,"o":"m 18 986 l 190 986 l 403 275 l 629 986 l 771 986 l 996 275 l 1210 986 l 1383 986 l 1076 0 l 931 0 l 700 729 l 471 0 l 326 0 l 18 986 m 749 1257 l 929 1257 l 764 1067 l 644 1067 l 749 1257 z "},"Ŵ":{"ha":1401,"x_min":18,"x_max":1383,"o":"m 18 986 l 190 986 l 403 275 l 629 986 l 771 986 l 996 275 l 1210 986 l 1383 986 l 1076 0 l 931 0 l 700 729 l 471 0 l 326 0 l 18 986 m 626 1257 l 778 1257 l 947 1067 l 797 1067 l 701 1164 l 606 1067 l 457 1067 l 626 1257 z "},"Ẅ":{"ha":1401,"x_min":18,"x_max":1383,"o":"m 18 986 l 190 986 l 403 275 l 629 986 l 771 986 l 996 275 l 1210 986 l 1383 986 l 1076 0 l 931 0 l 700 729 l 471 0 l 326 0 l 18 986 m 874 1074 q 802 1103 832 1074 q 772 1176 772 1133 q 802 1248 772 1218 q 874 1278 832 1278 q 947 1248 917 1278 q 976 1176 976 1218 q 947 1103 976 1133 q 874 1074 917 1074 m 528 1074 q 456 1103 486 1074 q 426 1176 426 1133 q 456 1248 426 1218 q 528 1278 486 1278 q 601 1248 571 1278 q 631 1176 631 1218 q 601 1103 631 1133 q 528 1074 571 1074 z "},"Ẁ":{"ha":1401,"x_min":18,"x_max":1383,"o":"m 18 986 l 190 986 l 403 275 l 629 986 l 771 986 l 996 275 l 1210 986 l 1383 986 l 1076 0 l 931 0 l 700 729 l 471 0 l 326 0 l 18 986 m 639 1067 l 474 1257 l 654 1257 l 758 1067 l 639 1067 z "},"Ŷ":{"ha":946,"x_min":18,"x_max":929,"o":"m 392 417 l 18 986 l 208 986 l 472 578 l 738 986 l 929 986 l 554 415 l 554 0 l 392 0 l 392 417 m 397 1257 l 549 1257 l 718 1067 l 568 1067 l 472 1164 l 376 1067 l 228 1067 l 397 1257 z "},"Ÿ":{"ha":946,"x_min":18,"x_max":929,"o":"m 392 417 l 18 986 l 208 986 l 472 578 l 738 986 l 929 986 l 554 415 l 554 0 l 392 0 l 392 417 m 644 1074 q 573 1103 603 1074 q 543 1176 543 1133 q 573 1248 543 1218 q 644 1278 603 1278 q 717 1248 688 1278 q 747 1176 747 1218 q 717 1103 747 1133 q 644 1074 688 1074 m 299 1074 q 227 1103 257 1074 q 197 1176 197 1133 q 227 1248 197 1218 q 299 1278 257 1278 q 372 1248 342 1278 q 401 1176 401 1218 q 372 1103 401 1133 q 299 1074 342 1074 z "},"Ỳ":{"ha":946,"x_min":18,"x_max":929,"o":"m 392 417 l 18 986 l 208 986 l 472 578 l 738 986 l 929 986 l 554 415 l 554 0 l 392 0 l 392 417 m 410 1067 l 244 1257 l 425 1257 l 529 1067 l 410 1067 z "},"Ȳ":{"ha":946,"x_min":18,"x_max":929,"o":"m 392 417 l 18 986 l 208 986 l 472 578 l 738 986 l 929 986 l 554 415 l 554 0 l 392 0 l 392 417 m 242 1222 l 703 1222 l 703 1108 l 242 1108 l 242 1222 z "},"Ź":{"ha":836,"x_min":50,"x_max":785,"o":"m 50 110 l 553 831 l 63 831 l 63 986 l 774 986 l 774 876 l 268 156 l 785 156 l 785 0 l 50 0 l 50 110 m 471 1257 l 651 1257 l 486 1067 l 367 1067 l 471 1257 z "},"Ž":{"ha":836,"x_min":50,"x_max":785,"o":"m 50 110 l 553 831 l 63 831 l 63 986 l 774 986 l 774 876 l 268 156 l 785 156 l 785 0 l 50 0 l 50 110 m 179 1257 l 328 1257 l 424 1158 l 519 1257 l 669 1257 l 500 1067 l 349 1067 l 179 1257 z "},"Ż":{"ha":836,"x_min":50,"x_max":785,"o":"m 50 110 l 553 831 l 63 831 l 63 986 l 774 986 l 774 876 l 268 156 l 785 156 l 785 0 l 50 0 l 50 110 m 424 1074 q 352 1103 382 1074 q 322 1176 322 1133 q 352 1248 322 1218 q 424 1278 382 1278 q 497 1248 467 1278 q 526 1176 526 1218 q 497 1103 526 1133 q 424 1074 467 1074 z "},"ă":{"ha":860,"x_min":54,"x_max":756,"o":"m 400 -14 q 259 15 322 -14 q 150 94 196 44 q 79 208 104 143 q 54 347 54 274 q 79 486 54 421 q 150 601 104 551 q 259 679 196 650 q 400 708 322 708 q 515 688 463 708 q 603 631 567 668 l 603 694 l 756 694 l 756 0 l 603 0 l 603 65 q 515 6 567 26 q 400 -14 463 -14 m 418 125 q 530 153 485 125 q 603 222 575 181 l 603 474 q 530 542 575 514 q 418 569 485 569 q 334 552 372 569 q 269 504 296 535 q 226 433 242 474 q 211 347 211 393 q 226 261 211 301 q 269 190 242 221 q 334 142 296 160 q 418 125 372 125 m 463 771 q 373 787 415 771 q 299 833 331 803 q 250 906 268 864 q 232 1001 232 949 l 232 1014 l 326 1014 l 326 1001 q 366 900 326 935 q 463 865 406 865 q 559 900 519 865 q 599 1001 599 935 l 599 1014 l 693 1014 l 693 1001 q 675 906 693 949 q 626 833 657 864 q 552 787 594 803 q 463 771 510 771 z "},"ā":{"ha":860,"x_min":54,"x_max":756,"o":"m 400 -14 q 259 15 322 -14 q 150 94 196 44 q 79 208 104 143 q 54 347 54 274 q 79 486 54 421 q 150 601 104 551 q 259 679 196 650 q 400 708 322 708 q 515 688 463 708 q 603 631 567 668 l 603 694 l 756 694 l 756 0 l 603 0 l 603 65 q 515 6 567 26 q 400 -14 463 -14 m 418 125 q 530 153 485 125 q 603 222 575 181 l 603 474 q 530 542 575 514 q 418 569 485 569 q 334 552 372 569 q 269 504 296 535 q 226 433 242 474 q 211 347 211 393 q 226 261 211 301 q 269 190 242 221 q 334 142 296 160 q 418 125 372 125 m 232 986 l 693 986 l 693 872 l 232 872 l 232 986 z "},"ą":{"ha":860,"x_min":54,"x_max":776,"o":"m 400 -14 q 259 15 322 -14 q 150 94 196 44 q 79 208 104 143 q 54 347 54 274 q 79 486 54 421 q 150 601 104 551 q 259 679 196 650 q 400 708 322 708 q 515 688 463 708 q 603 631 567 668 l 603 694 l 756 694 l 756 0 l 603 0 l 603 65 q 515 6 567 26 q 400 -14 463 -14 m 418 125 q 530 153 485 125 q 603 222 575 181 l 603 474 q 530 542 575 514 q 418 569 485 569 q 334 552 372 569 q 269 504 296 535 q 226 433 242 474 q 211 347 211 393 q 226 261 211 301 q 269 190 242 221 q 334 142 296 160 q 418 125 372 125 m 649 -283 q 547 -249 585 -283 q 508 -161 508 -215 q 536 -70 508 -108 q 603 0 564 -32 l 756 0 q 671 -63 700 -32 q 642 -128 642 -94 q 656 -161 642 -151 q 688 -171 669 -171 q 732 -158 708 -171 l 776 -244 q 718 -273 751 -262 q 649 -283 685 -283 z "},"ć":{"ha":781,"x_min":53,"x_max":743,"o":"m 419 -14 q 274 14 342 -14 q 158 90 207 42 q 81 203 108 138 q 53 347 53 269 q 81 490 53 424 q 158 605 108 557 q 274 681 207 653 q 419 708 342 708 q 613 656 528 708 q 743 517 699 604 l 610 444 q 535 532 585 497 q 419 567 486 567 q 335 550 374 567 q 267 503 296 533 q 224 433 239 474 q 208 347 208 393 q 224 261 208 301 q 267 191 239 221 q 335 144 296 161 q 419 128 374 128 q 535 163 486 128 q 610 250 585 197 l 743 178 q 613 38 699 90 q 419 -14 528 -14 m 475 1014 l 658 1014 l 475 788 l 357 788 l 475 1014 z "},"č":{"ha":781,"x_min":53,"x_max":743,"o":"m 419 -14 q 274 14 342 -14 q 158 90 207 42 q 81 203 108 138 q 53 347 53 269 q 81 490 53 424 q 158 605 108 557 q 274 681 207 653 q 419 708 342 708 q 613 656 528 708 q 743 517 699 604 l 610 444 q 535 532 585 497 q 419 567 486 567 q 335 550 374 567 q 267 503 296 533 q 224 433 239 474 q 208 347 208 393 q 224 261 208 301 q 267 191 239 221 q 335 144 296 161 q 419 128 374 128 q 535 163 486 128 q 610 250 585 197 l 743 178 q 613 38 699 90 q 419 -14 528 -14 m 317 1014 l 419 900 l 522 1014 l 667 1014 l 490 803 l 349 803 l 172 1014 l 317 1014 z "},"ĉ":{"ha":781,"x_min":53,"x_max":743,"o":"m 419 -14 q 274 14 342 -14 q 158 90 207 42 q 81 203 108 138 q 53 347 53 269 q 81 490 53 424 q 158 605 108 557 q 274 681 207 653 q 419 708 342 708 q 613 656 528 708 q 743 517 699 604 l 610 444 q 535 532 585 497 q 419 567 486 567 q 335 550 374 567 q 267 503 296 533 q 224 433 239 474 q 208 347 208 393 q 224 261 208 301 q 267 191 239 221 q 335 144 296 161 q 419 128 374 128 q 535 163 486 128 q 610 250 585 197 l 743 178 q 613 38 699 90 q 419 -14 528 -14 m 349 1014 l 490 1014 l 667 803 l 522 803 l 419 917 l 317 803 l 172 803 l 349 1014 z "},"ċ":{"ha":781,"x_min":53,"x_max":743,"o":"m 419 -14 q 274 14 342 -14 q 158 90 207 42 q 81 203 108 138 q 53 347 53 269 q 81 490 53 424 q 158 605 108 557 q 274 681 207 653 q 419 708 342 708 q 613 656 528 708 q 743 517 699 604 l 610 444 q 535 532 585 497 q 419 567 486 567 q 335 550 374 567 q 267 503 296 533 q 224 433 239 474 q 208 347 208 393 q 224 261 208 301 q 267 191 239 221 q 335 144 296 161 q 419 128 374 128 q 535 163 486 128 q 610 250 585 197 l 743 178 q 613 38 699 90 q 419 -14 528 -14 m 419 818 q 348 848 378 818 q 318 921 318 878 q 348 992 318 963 q 419 1022 378 1022 q 492 992 463 1022 q 522 921 522 963 q 492 848 522 878 q 419 818 463 818 z "},"ď":{"ha":860,"x_min":54,"x_max":979,"o":"m 400 -14 q 259 15 322 -14 q 150 94 196 44 q 79 208 104 143 q 54 347 54 274 q 79 486 54 421 q 150 601 104 551 q 259 679 196 650 q 400 708 322 708 q 515 688 463 708 q 603 631 567 668 l 603 1014 l 756 1014 l 756 0 l 603 0 l 603 65 q 515 6 567 26 q 400 -14 463 -14 m 418 125 q 530 153 485 125 q 603 222 575 181 l 603 474 q 530 542 575 514 q 418 569 485 569 q 334 552 372 569 q 269 504 296 535 q 226 433 242 474 q 211 347 211 393 q 226 261 211 301 q 269 190 242 221 q 334 142 296 160 q 418 125 372 125 m 826 1014 l 979 1014 l 900 788 l 796 788 l 826 1014 z "},"đ":{"ha":860,"x_min":54,"x_max":856,"o":"m 400 -14 q 259 15 322 -14 q 150 94 196 44 q 79 208 104 143 q 54 347 54 274 q 79 486 54 421 q 150 601 104 551 q 259 679 196 650 q 400 708 322 708 q 515 688 463 708 q 603 631 567 668 l 603 1014 l 756 1014 l 756 0 l 603 0 l 603 65 q 515 6 567 26 q 400 -14 463 -14 m 418 125 q 530 153 485 125 q 603 222 575 181 l 603 474 q 530 542 575 514 q 418 569 485 569 q 334 552 372 569 q 269 504 296 535 q 226 433 242 474 q 211 347 211 393 q 226 261 211 301 q 269 190 242 221 q 334 142 296 160 q 418 125 372 125 m 397 794 l 397 903 l 856 903 l 856 794 l 397 794 z "},"ĕ":{"ha":806,"x_min":54,"x_max":751,"o":"m 417 -14 q 271 13 338 -14 q 156 87 204 39 q 81 201 108 135 q 54 347 54 268 q 81 490 54 424 q 156 604 108 556 q 271 681 204 653 q 417 708 338 708 q 546 686 485 708 q 653 620 607 664 q 725 512 699 576 q 751 364 751 447 q 751 342 751 353 q 750 314 751 331 l 204 314 q 224 236 207 271 q 270 176 242 201 q 337 138 299 151 q 418 125 375 125 q 540 155 492 125 q 617 231 589 185 l 733 147 q 606 29 686 72 q 417 -14 526 -14 m 597 425 q 531 540 585 500 q 411 579 478 579 q 345 569 378 579 q 285 540 313 560 q 239 492 258 521 q 211 425 219 464 l 597 425 m 419 771 q 330 787 372 771 q 256 833 288 803 q 207 906 225 864 q 189 1001 189 949 l 189 1014 l 283 1014 l 283 1001 q 323 900 283 935 q 419 865 363 865 q 516 900 476 865 q 556 1001 556 935 l 556 1014 l 650 1014 l 650 1001 q 632 906 650 949 q 583 833 614 864 q 509 787 551 803 q 419 771 467 771 z "},"ě":{"ha":806,"x_min":54,"x_max":751,"o":"m 417 -14 q 271 13 338 -14 q 156 87 204 39 q 81 201 108 135 q 54 347 54 268 q 81 490 54 424 q 156 604 108 556 q 271 681 204 653 q 417 708 338 708 q 546 686 485 708 q 653 620 607 664 q 725 512 699 576 q 751 364 751 447 q 751 342 751 353 q 750 314 751 331 l 204 314 q 224 236 207 271 q 270 176 242 201 q 337 138 299 151 q 418 125 375 125 q 540 155 492 125 q 617 231 589 185 l 733 147 q 606 29 686 72 q 417 -14 526 -14 m 597 425 q 531 540 585 500 q 411 579 478 579 q 345 569 378 579 q 285 540 313 560 q 239 492 258 521 q 211 425 219 464 l 597 425 m 317 1014 l 419 900 l 522 1014 l 667 1014 l 490 803 l 349 803 l 172 1014 l 317 1014 z "},"ē":{"ha":806,"x_min":54,"x_max":751,"o":"m 417 -14 q 271 13 338 -14 q 156 87 204 39 q 81 201 108 135 q 54 347 54 268 q 81 490 54 424 q 156 604 108 556 q 271 681 204 653 q 417 708 338 708 q 546 686 485 708 q 653 620 607 664 q 725 512 699 576 q 751 364 751 447 q 751 342 751 353 q 750 314 751 331 l 204 314 q 224 236 207 271 q 270 176 242 201 q 337 138 299 151 q 418 125 375 125 q 540 155 492 125 q 617 231 589 185 l 733 147 q 606 29 686 72 q 417 -14 526 -14 m 597 425 q 531 540 585 500 q 411 579 478 579 q 345 569 378 579 q 285 540 313 560 q 239 492 258 521 q 211 425 219 464 l 597 425 m 189 986 l 650 986 l 650 872 l 189 872 l 189 986 z "},"ę":{"ha":806,"x_min":54,"x_max":751,"o":"m 611 -283 q 508 -249 549 -283 q 468 -154 468 -215 q 495 -60 468 -101 q 550 10 522 -18 q 486 -8 524 -1 q 417 -14 449 -14 q 271 13 338 -14 q 156 87 204 39 q 81 201 108 135 q 54 347 54 268 q 81 490 54 424 q 156 604 108 556 q 271 681 204 653 q 417 708 338 708 q 546 686 485 708 q 653 620 607 664 q 725 512 699 576 q 751 364 751 447 q 751 342 751 353 q 750 314 751 331 l 204 314 q 224 236 207 271 q 270 176 242 201 q 337 138 299 151 q 418 125 375 125 q 540 155 492 125 q 617 231 589 185 l 733 147 q 689 84 713 118 q 646 15 665 50 q 614 -52 626 -19 q 601 -111 601 -85 q 619 -157 601 -143 q 660 -171 636 -171 q 703 -158 679 -171 l 747 -244 q 687 -272 722 -261 q 611 -283 651 -283 m 411 579 q 345 569 378 579 q 285 540 313 560 q 239 492 258 521 q 211 425 219 464 l 597 425 q 531 540 585 500 q 411 579 478 579 z "},"ė":{"ha":806,"x_min":54,"x_max":751,"o":"m 417 -14 q 271 13 338 -14 q 156 87 204 39 q 81 201 108 135 q 54 347 54 268 q 81 490 54 424 q 156 604 108 556 q 271 681 204 653 q 417 708 338 708 q 546 686 485 708 q 653 620 607 664 q 725 512 699 576 q 751 364 751 447 q 751 342 751 353 q 750 314 751 331 l 204 314 q 224 236 207 271 q 270 176 242 201 q 337 138 299 151 q 418 125 375 125 q 540 155 492 125 q 617 231 589 185 l 733 147 q 606 29 686 72 q 417 -14 526 -14 m 597 425 q 531 540 585 500 q 411 579 478 579 q 345 569 378 579 q 285 540 313 560 q 239 492 258 521 q 211 425 219 464 l 597 425 m 419 818 q 348 848 378 818 q 318 921 318 878 q 348 992 318 963 q 419 1022 378 1022 q 492 992 463 1022 q 522 921 522 963 q 492 848 522 878 q 419 818 463 818 z "},"ğ":{"ha":863,"x_min":54,"x_max":760,"o":"m 404 -283 q 226 -253 308 -283 q 94 -169 144 -222 l 188 -60 q 403 -147 272 -147 q 476 -136 440 -147 q 542 -102 513 -125 q 589 -44 571 -79 q 607 42 607 -8 l 607 90 q 518 31 571 51 q 403 10 465 10 q 263 37 328 10 q 152 112 199 64 q 80 223 106 160 q 54 360 54 286 q 81 496 54 432 q 153 607 107 560 q 264 681 200 654 q 403 708 328 708 q 518 688 465 708 q 607 631 571 668 l 607 694 l 760 694 l 760 40 q 730 -108 760 -47 q 650 -208 700 -169 q 536 -265 600 -247 q 404 -283 472 -283 m 421 150 q 534 178 489 150 q 607 247 579 206 l 607 474 q 534 542 579 514 q 421 569 489 569 q 337 553 375 569 q 271 509 299 538 q 227 442 243 481 q 211 360 211 404 q 227 276 211 315 q 271 210 243 238 q 337 166 299 182 q 421 150 375 150 m 440 771 q 351 787 393 771 q 277 833 308 803 q 228 906 246 864 q 210 1001 210 949 l 210 1014 l 304 1014 l 304 1001 q 344 900 304 935 q 440 865 383 865 q 537 900 497 865 q 576 1001 576 935 l 576 1014 l 671 1014 l 671 1001 q 653 906 671 949 q 603 833 635 864 q 530 787 572 803 q 440 771 488 771 z "},"ĝ":{"ha":863,"x_min":54,"x_max":760,"o":"m 404 -283 q 226 -253 308 -283 q 94 -169 144 -222 l 188 -60 q 403 -147 272 -147 q 476 -136 440 -147 q 542 -102 513 -125 q 589 -44 571 -79 q 607 42 607 -8 l 607 90 q 518 31 571 51 q 403 10 465 10 q 263 37 328 10 q 152 112 199 64 q 80 223 106 160 q 54 360 54 286 q 81 496 54 432 q 153 607 107 560 q 264 681 200 654 q 403 708 328 708 q 518 688 465 708 q 607 631 571 668 l 607 694 l 760 694 l 760 40 q 730 -108 760 -47 q 650 -208 700 -169 q 536 -265 600 -247 q 404 -283 472 -283 m 421 150 q 534 178 489 150 q 607 247 579 206 l 607 474 q 534 542 579 514 q 421 569 489 569 q 337 553 375 569 q 271 509 299 538 q 227 442 243 481 q 211 360 211 404 q 227 276 211 315 q 271 210 243 238 q 337 166 299 182 q 421 150 375 150 m 369 1014 l 511 1014 l 688 803 l 543 803 l 440 917 l 338 803 l 193 803 l 369 1014 z "},"ģ":{"ha":863,"x_min":54,"x_max":760,"o":"m 404 -283 q 226 -253 308 -283 q 94 -169 144 -222 l 188 -60 q 403 -147 272 -147 q 476 -136 440 -147 q 542 -102 513 -125 q 589 -44 571 -79 q 607 42 607 -8 l 607 90 q 518 31 571 51 q 403 10 465 10 q 263 37 328 10 q 152 112 199 64 q 80 223 106 160 q 54 360 54 286 q 81 496 54 432 q 153 607 107 560 q 264 681 200 654 q 403 708 328 708 q 518 688 465 708 q 607 631 571 668 l 607 694 l 760 694 l 760 40 q 730 -108 760 -47 q 650 -208 700 -169 q 536 -265 600 -247 q 404 -283 472 -283 m 421 150 q 534 178 489 150 q 607 247 579 206 l 607 474 q 534 542 579 514 q 421 569 489 569 q 337 553 375 569 q 271 509 299 538 q 227 442 243 481 q 211 360 211 404 q 227 276 211 315 q 271 210 243 238 q 337 166 299 182 q 421 150 375 150 m 474 1017 q 523 979 504 1006 q 542 919 542 953 q 512 848 542 878 q 440 818 482 818 q 367 848 397 818 q 338 919 338 878 q 349 964 338 943 q 375 1008 360 985 l 450 1128 l 522 1128 l 474 1017 z "},"ġ":{"ha":863,"x_min":54,"x_max":760,"o":"m 404 -283 q 226 -253 308 -283 q 94 -169 144 -222 l 188 -60 q 403 -147 272 -147 q 476 -136 440 -147 q 542 -102 513 -125 q 589 -44 571 -79 q 607 42 607 -8 l 607 90 q 518 31 571 51 q 403 10 465 10 q 263 37 328 10 q 152 112 199 64 q 80 223 106 160 q 54 360 54 286 q 81 496 54 432 q 153 607 107 560 q 264 681 200 654 q 403 708 328 708 q 518 688 465 708 q 607 631 571 668 l 607 694 l 760 694 l 760 40 q 730 -108 760 -47 q 650 -208 700 -169 q 536 -265 600 -247 q 404 -283 472 -283 m 421 150 q 534 178 489 150 q 607 247 579 206 l 607 474 q 534 542 579 514 q 421 569 489 569 q 337 553 375 569 q 271 509 299 538 q 227 442 243 481 q 211 360 211 404 q 227 276 211 315 q 271 210 243 238 q 337 166 299 182 q 421 150 375 150 m 440 818 q 369 848 399 818 q 339 921 339 878 q 369 992 339 963 q 440 1022 399 1022 q 513 992 483 1022 q 543 921 543 963 q 513 848 543 878 q 440 818 483 818 z "},"ħ":{"ha":825,"x_min":10,"x_max":732,"o":"m 103 0 l 103 1014 l 256 1014 l 256 621 q 344 687 292 665 q 460 708 397 708 q 572 688 522 708 q 658 628 622 667 q 713 536 693 590 q 732 415 732 482 l 732 0 l 579 0 l 579 390 q 540 522 579 474 q 426 569 500 569 q 321 539 364 569 q 256 460 278 508 l 256 0 l 103 0 m 10 794 l 10 903 l 468 903 l 468 794 l 10 794 z "},"ĥ":{"ha":825,"x_min":103,"x_max":732,"o":"m 103 0 l 103 1014 l 256 1014 l 256 621 q 344 687 292 665 q 460 708 397 708 q 572 688 522 708 q 658 628 622 667 q 713 536 693 590 q 732 415 732 482 l 732 0 l 579 0 l 579 390 q 540 522 579 474 q 426 569 500 569 q 321 539 364 569 q 256 460 278 508 l 256 0 l 103 0 m 360 1257 l 511 1257 l 681 1067 l 531 1067 l 435 1164 l 339 1067 l 190 1067 l 360 1257 z "},"ı":{"ha":358,"x_min":103,"x_max":256,"o":"m 103 694 l 256 694 l 256 0 l 103 0 l 103 694 z "},"ĭ":{"ha":358,"x_min":-51,"x_max":410,"o":"m 103 694 l 256 694 l 256 0 l 103 0 l 103 694 m 179 771 q 90 787 132 771 q 16 833 47 803 q -33 906 -15 864 q -51 1001 -51 949 l -51 1014 l 43 1014 l 43 1001 q 83 900 43 935 q 179 865 122 865 q 276 900 236 865 q 315 1001 315 935 l 315 1014 l 410 1014 l 410 1001 q 392 906 410 949 q 342 833 374 864 q 269 787 311 803 q 179 771 226 771 z "},"ī":{"ha":358,"x_min":-51,"x_max":410,"o":"m 103 694 l 256 694 l 256 0 l 103 0 l 103 694 m -51 986 l 410 986 l 410 872 l -51 872 l -51 986 z "},"į":{"ha":358,"x_min":8,"x_max":282,"o":"m 149 -283 q 47 -249 85 -283 q 8 -161 8 -215 q 36 -70 8 -108 q 103 0 64 -32 l 103 694 l 256 694 l 256 0 q 171 -63 200 -32 q 142 -128 142 -94 q 156 -161 142 -151 q 188 -171 169 -171 q 232 -158 208 -171 l 276 -244 q 218 -273 251 -262 q 149 -283 185 -283 m 179 818 q 108 848 138 818 q 78 921 78 878 q 108 992 78 963 q 179 1022 138 1022 q 252 992 222 1022 q 282 921 282 963 q 252 848 282 878 q 179 818 222 818 z "},"ĩ":{"ha":358,"x_min":-72,"x_max":429,"o":"m 103 694 l 256 694 l 256 0 l 103 0 l 103 694 m -67 840 q -12 944 -56 907 q 88 982 31 982 q 142 972 117 982 q 191 951 168 963 q 233 929 214 939 q 268 919 251 919 q 307 935 293 919 q 329 983 321 951 l 429 983 l 424 953 q 369 848 413 886 q 269 810 326 810 q 215 819 240 810 q 166 841 189 829 q 124 863 143 853 q 89 872 106 872 q 50 857 64 872 q 28 810 36 842 l -72 810 l -67 840 z "},"ị":{"ha":358,"x_min":78,"x_max":282,"o":"m 103 694 l 256 694 l 256 0 l 103 0 l 103 694 m 179 -303 q 108 -273 138 -303 q 78 -200 78 -243 q 108 -128 78 -158 q 179 -99 138 -99 q 252 -128 222 -99 q 282 -200 282 -158 q 252 -273 282 -243 q 179 -303 222 -303 m 179 818 q 108 848 138 818 q 78 921 78 878 q 108 992 78 963 q 179 1022 138 1022 q 252 992 222 1022 q 282 921 282 963 q 252 848 282 878 q 179 818 222 818 z "},"ȷ":{"ha":369,"x_min":-89,"x_max":267,"o":"m 42 -276 q -33 -269 6 -276 q -89 -253 -72 -261 l -54 -125 q -19 -137 -39 -132 q 24 -142 0 -142 q 88 -115 63 -142 q 114 -24 114 -89 l 114 694 l 267 694 l 267 -46 q 249 -147 267 -104 q 200 -219 231 -190 q 128 -262 169 -249 q 42 -276 88 -276 z "},"ĵ":{"ha":369,"x_min":-89,"x_max":438,"o":"m 42 -276 q -33 -269 6 -276 q -89 -253 -72 -261 l -54 -125 q -19 -137 -39 -132 q 24 -142 0 -142 q 88 -115 63 -142 q 114 -24 114 -89 l 114 694 l 267 694 l 267 -46 q 249 -147 267 -104 q 200 -219 231 -190 q 128 -262 169 -249 q 42 -276 88 -276 m 119 1014 l 261 1014 l 438 803 l 293 803 l 190 917 l 88 803 l -57 803 l 119 1014 z "},"ķ":{"ha":760,"x_min":103,"x_max":783,"o":"m 256 335 l 256 0 l 103 0 l 103 1014 l 256 1014 l 256 431 l 521 694 l 714 694 l 404 385 l 783 0 l 588 0 l 256 335 m 388 -297 q 338 -260 357 -286 q 319 -200 319 -233 q 349 -128 319 -158 q 421 -99 379 -99 q 494 -128 464 -99 q 524 -200 524 -158 q 513 -244 524 -224 q 486 -289 501 -265 l 411 -408 l 339 -408 l 388 -297 z "},"ĺ":{"ha":358,"x_min":103,"x_max":419,"o":"m 103 1014 l 256 1014 l 256 0 l 103 0 l 103 1014 m 236 1333 l 419 1333 l 236 1107 l 118 1107 l 236 1333 z "},"ľ":{"ha":358,"x_min":103,"x_max":479,"o":"m 103 1014 l 256 1014 l 256 0 l 103 0 l 103 1014 m 326 1014 l 479 1014 l 400 788 l 296 788 l 326 1014 z "},"ļ":{"ha":358,"x_min":78,"x_max":282,"o":"m 103 1014 l 256 1014 l 256 0 l 103 0 l 103 1014 m 146 -297 q 97 -260 115 -286 q 78 -200 78 -233 q 108 -128 78 -158 q 179 -99 138 -99 q 252 -128 222 -99 q 282 -200 282 -158 q 271 -244 282 -224 q 244 -289 260 -265 l 169 -408 l 97 -408 l 146 -297 z "},"ŀ":{"ha":546,"x_min":103,"x_max":556,"o":"m 103 1014 l 256 1014 l 256 0 l 103 0 l 103 1014 m 453 472 q 381 502 411 472 q 351 575 351 532 q 381 647 351 617 q 453 676 411 676 q 526 647 496 676 q 556 575 556 617 q 526 502 556 532 q 453 472 496 472 z "},"ł":{"ha":464,"x_min":51,"x_max":417,"o":"m 157 1014 l 310 1014 l 310 0 l 157 0 l 157 1014 m 51 344 l 51 471 l 417 696 l 417 568 l 51 344 z "},"ń":{"ha":825,"x_min":103,"x_max":732,"o":"m 103 694 l 256 694 l 256 621 q 344 687 292 665 q 460 708 397 708 q 572 688 522 708 q 658 628 622 667 q 713 536 693 590 q 732 415 732 482 l 732 0 l 579 0 l 579 390 q 540 522 579 474 q 426 569 500 569 q 321 539 364 569 q 256 460 278 508 l 256 0 l 103 0 l 103 694 m 472 1014 l 656 1014 l 472 788 l 354 788 l 472 1014 z "},"ň":{"ha":825,"x_min":103,"x_max":732,"o":"m 103 694 l 256 694 l 256 621 q 344 687 292 665 q 460 708 397 708 q 572 688 522 708 q 658 628 622 667 q 713 536 693 590 q 732 415 732 482 l 732 0 l 579 0 l 579 390 q 540 522 579 474 q 426 569 500 569 q 321 539 364 569 q 256 460 278 508 l 256 0 l 103 0 l 103 694 m 314 1014 l 417 900 l 519 1014 l 664 1014 l 488 803 l 346 803 l 169 1014 l 314 1014 z "},"ņ":{"ha":825,"x_min":103,"x_max":732,"o":"m 103 694 l 256 694 l 256 621 q 344 687 292 665 q 460 708 397 708 q 572 688 522 708 q 658 628 622 667 q 713 536 693 590 q 732 415 732 482 l 732 0 l 579 0 l 579 390 q 540 522 579 474 q 426 569 500 569 q 321 539 364 569 q 256 460 278 508 l 256 0 l 103 0 l 103 694 m 383 -297 q 334 -260 353 -286 q 315 -200 315 -233 q 345 -128 315 -158 q 417 -99 375 -99 q 490 -128 460 -99 q 519 -200 519 -158 q 508 -244 519 -224 q 482 -289 497 -265 l 407 -408 l 335 -408 l 383 -297 z "},"œ":{"ha":1376,"x_min":53,"x_max":1324,"o":"m 988 -14 q 822 21 896 -14 q 700 118 749 56 q 577 22 650 57 q 417 -14 504 -14 q 273 14 339 -14 q 158 91 207 42 q 81 206 108 140 q 53 347 53 272 q 81 488 53 422 q 158 603 108 554 q 273 681 207 653 q 417 708 339 708 q 578 672 504 708 q 700 574 651 636 q 822 672 749 636 q 988 708 896 708 q 1117 686 1056 708 q 1224 620 1178 664 q 1297 512 1269 576 q 1324 364 1324 447 q 1324 342 1324 353 q 1321 314 1324 331 l 776 314 q 842 176 782 228 q 989 125 901 125 q 1113 155 1064 125 q 1189 231 1161 185 l 1306 147 q 1177 29 1257 72 q 988 -14 1097 -14 m 417 128 q 501 144 463 128 q 567 191 539 161 q 610 261 594 221 q 625 347 625 301 q 610 433 625 393 q 567 503 594 474 q 501 550 539 533 q 417 567 463 567 q 332 550 371 567 q 265 503 293 533 q 222 433 238 474 q 207 347 207 393 q 222 261 207 301 q 265 191 238 221 q 332 144 293 161 q 417 128 371 128 m 983 579 q 917 569 950 579 q 858 540 885 560 q 811 492 831 521 q 783 425 792 464 l 1169 425 q 1103 540 1156 500 q 983 579 1050 579 z "},"ŏ":{"ha":832,"x_min":53,"x_max":781,"o":"m 417 -14 q 273 14 339 -14 q 158 91 207 42 q 81 206 108 140 q 53 347 53 272 q 81 488 53 422 q 158 603 108 554 q 273 681 207 653 q 417 708 339 708 q 560 681 493 708 q 676 603 626 653 q 753 488 725 554 q 781 347 781 422 q 753 206 781 272 q 676 91 725 140 q 560 14 626 42 q 417 -14 493 -14 m 417 128 q 501 144 463 128 q 567 191 539 161 q 610 261 594 221 q 625 347 625 301 q 610 433 625 393 q 567 503 594 474 q 501 550 539 533 q 417 567 463 567 q 332 550 371 567 q 265 503 293 533 q 222 433 238 474 q 207 347 207 393 q 222 261 207 301 q 265 191 238 221 q 332 144 293 161 q 417 128 371 128 m 417 771 q 327 787 369 771 q 253 833 285 803 q 204 906 222 864 q 186 1001 186 949 l 186 1014 l 281 1014 l 281 1001 q 320 900 281 935 q 417 865 360 865 q 513 900 474 865 q 553 1001 553 935 l 553 1014 l 647 1014 l 647 1001 q 629 906 647 949 q 580 833 611 864 q 506 787 549 803 q 417 771 464 771 z "},"ő":{"ha":832,"x_min":53,"x_max":781,"o":"m 417 -14 q 273 14 339 -14 q 158 91 207 42 q 81 206 108 140 q 53 347 53 272 q 81 488 53 422 q 158 603 108 554 q 273 681 207 653 q 417 708 339 708 q 560 681 493 708 q 676 603 626 653 q 753 488 725 554 q 781 347 781 422 q 753 206 781 272 q 676 91 725 140 q 560 14 626 42 q 417 -14 493 -14 m 417 128 q 501 144 463 128 q 567 191 539 161 q 610 261 594 221 q 625 347 625 301 q 610 433 625 393 q 567 503 594 474 q 501 550 539 533 q 417 567 463 567 q 332 550 371 567 q 265 503 293 533 q 222 433 238 474 q 207 347 207 393 q 222 261 207 301 q 265 191 238 221 q 332 144 293 161 q 417 128 371 128 m 328 1014 l 497 1014 l 358 788 l 253 788 l 328 1014 m 572 1014 l 742 1014 l 603 788 l 497 788 l 572 1014 z "},"ō":{"ha":832,"x_min":53,"x_max":781,"o":"m 417 -14 q 273 14 339 -14 q 158 91 207 42 q 81 206 108 140 q 53 347 53 272 q 81 488 53 422 q 158 603 108 554 q 273 681 207 653 q 417 708 339 708 q 560 681 493 708 q 676 603 626 653 q 753 488 725 554 q 781 347 781 422 q 753 206 781 272 q 676 91 725 140 q 560 14 626 42 q 417 -14 493 -14 m 417 128 q 501 144 463 128 q 567 191 539 161 q 610 261 594 221 q 625 347 625 301 q 610 433 625 393 q 567 503 594 474 q 501 550 539 533 q 417 567 463 567 q 332 550 371 567 q 265 503 293 533 q 222 433 238 474 q 207 347 207 393 q 222 261 207 301 q 265 191 238 221 q 332 144 293 161 q 417 128 371 128 m 186 986 l 647 986 l 647 872 l 186 872 l 186 986 z "},"ọ":{"ha":832,"x_min":53,"x_max":781,"o":"m 417 -14 q 273 14 339 -14 q 158 91 207 42 q 81 206 108 140 q 53 347 53 272 q 81 488 53 422 q 158 603 108 554 q 273 681 207 653 q 417 708 339 708 q 560 681 493 708 q 676 603 626 653 q 753 488 725 554 q 781 347 781 422 q 753 206 781 272 q 676 91 725 140 q 560 14 626 42 q 417 -14 493 -14 m 417 128 q 501 144 463 128 q 567 191 539 161 q 610 261 594 221 q 625 347 625 301 q 610 433 625 393 q 567 503 594 474 q 501 550 539 533 q 417 567 463 567 q 332 550 371 567 q 265 503 293 533 q 222 433 238 474 q 207 347 207 393 q 222 261 207 301 q 265 191 238 221 q 332 144 293 161 q 417 128 371 128 m 415 -301 q 344 -272 374 -301 q 314 -199 314 -242 q 344 -127 314 -157 q 415 -97 374 -97 q 488 -127 458 -97 q 518 -199 518 -157 q 488 -272 518 -242 q 415 -301 458 -301 z "},"ŕ":{"ha":517,"x_min":103,"x_max":539,"o":"m 103 694 l 256 694 l 256 601 q 324 672 275 642 q 431 701 372 701 q 471 699 453 701 q 501 693 489 696 l 479 544 q 419 553 458 553 q 326 526 374 553 q 256 446 279 500 l 256 0 l 103 0 l 103 694 m 356 1014 l 539 1014 l 356 788 l 238 788 l 356 1014 z "},"ř":{"ha":517,"x_min":53,"x_max":547,"o":"m 103 694 l 256 694 l 256 601 q 324 672 275 642 q 431 701 372 701 q 471 699 453 701 q 501 693 489 696 l 479 544 q 419 553 458 553 q 326 526 374 553 q 256 446 279 500 l 256 0 l 103 0 l 103 694 m 197 1014 l 300 900 l 403 1014 l 547 1014 l 371 803 l 229 803 l 53 1014 l 197 1014 z "},"ŗ":{"ha":517,"x_min":78,"x_max":501,"o":"m 103 694 l 256 694 l 256 601 q 324 672 275 642 q 431 701 372 701 q 471 699 453 701 q 501 693 489 696 l 479 544 q 419 553 458 553 q 326 526 374 553 q 256 446 279 500 l 256 0 l 103 0 l 103 694 m 146 -297 q 97 -260 115 -286 q 78 -200 78 -233 q 108 -128 78 -158 q 179 -99 138 -99 q 252 -128 222 -99 q 282 -200 282 -158 q 271 -244 282 -224 q 244 -289 260 -265 l 169 -408 l 97 -408 l 146 -297 z "},"ś":{"ha":631,"x_min":44,"x_max":575,"o":"m 324 -14 q 156 22 231 -14 q 44 133 82 58 l 157 214 q 224 143 178 168 q 324 118 271 118 q 394 137 364 118 q 424 192 424 156 q 401 242 424 222 q 317 281 379 261 l 256 297 q 118 377 164 322 q 74 510 72 432 q 93 592 74 556 q 146 655 113 629 q 224 694 179 681 q 322 708 269 708 q 461 678 401 708 q 557 590 521 649 l 451 510 q 395 561 428 542 q 319 581 363 581 q 256 564 285 581 q 226 515 226 547 q 242 469 226 490 q 310 433 258 449 l 381 413 q 524 336 472 385 q 575 201 575 288 q 556 112 575 151 q 503 44 536 72 q 424 1 469 15 q 324 -14 378 -14 m 378 1014 l 561 1014 l 378 788 l 260 788 l 378 1014 z "},"š":{"ha":631,"x_min":44,"x_max":575,"o":"m 324 -14 q 156 22 231 -14 q 44 133 82 58 l 157 214 q 224 143 178 168 q 324 118 271 118 q 394 137 364 118 q 424 192 424 156 q 401 242 424 222 q 317 281 379 261 l 256 297 q 118 377 164 322 q 74 510 72 432 q 93 592 74 556 q 146 655 113 629 q 224 694 179 681 q 322 708 269 708 q 461 678 401 708 q 557 590 521 649 l 451 510 q 395 561 428 542 q 319 581 363 581 q 256 564 285 581 q 226 515 226 547 q 242 469 226 490 q 310 433 258 449 l 381 413 q 524 336 472 385 q 575 201 575 288 q 556 112 575 151 q 503 44 536 72 q 424 1 469 15 q 324 -14 378 -14 m 219 1014 l 322 900 l 425 1014 l 569 1014 l 393 803 l 251 803 l 75 1014 l 219 1014 z "},"ş":{"ha":631,"x_min":44,"x_max":575,"o":"m 324 -14 q 156 22 231 -14 q 44 133 82 58 l 157 214 q 224 143 178 168 q 324 118 271 118 q 394 137 364 118 q 424 192 424 156 q 401 242 424 222 q 317 281 379 261 l 256 297 q 118 377 164 322 q 74 510 72 432 q 93 592 74 556 q 146 655 113 629 q 224 694 179 681 q 322 708 269 708 q 461 678 401 708 q 557 590 521 649 l 451 510 q 395 561 428 542 q 319 581 363 581 q 256 564 285 581 q 226 515 226 547 q 242 469 226 490 q 310 433 258 449 l 381 413 q 524 336 472 385 q 575 201 575 288 q 556 112 575 151 q 503 44 536 72 q 424 1 469 15 q 324 -14 378 -14 m 185 -183 q 281 -206 228 -206 q 305 -203 292 -206 q 329 -197 318 -201 q 348 -183 340 -192 q 356 -162 356 -175 q 340 -135 356 -143 q 304 -126 324 -126 q 270 -130 285 -126 q 242 -140 256 -133 l 197 -111 l 267 4 l 347 4 l 304 -65 q 329 -56 314 -60 q 361 -53 344 -53 q 439 -81 407 -53 q 471 -156 471 -108 q 457 -210 471 -186 q 419 -250 443 -233 q 362 -275 394 -267 q 293 -283 329 -283 q 229 -278 263 -283 q 167 -260 196 -274 l 185 -183 z "},"ŝ":{"ha":631,"x_min":44,"x_max":575,"o":"m 324 -14 q 156 22 231 -14 q 44 133 82 58 l 157 214 q 224 143 178 168 q 324 118 271 118 q 394 137 364 118 q 424 192 424 156 q 401 242 424 222 q 317 281 379 261 l 256 297 q 118 377 164 322 q 74 510 72 432 q 93 592 74 556 q 146 655 113 629 q 224 694 179 681 q 322 708 269 708 q 461 678 401 708 q 557 590 521 649 l 451 510 q 395 561 428 542 q 319 581 363 581 q 256 564 285 581 q 226 515 226 547 q 242 469 226 490 q 310 433 258 449 l 381 413 q 524 336 472 385 q 575 201 575 288 q 556 112 575 151 q 503 44 536 72 q 424 1 469 15 q 324 -14 378 -14 m 251 1014 l 393 1014 l 569 803 l 425 803 l 322 917 l 219 803 l 75 803 l 251 1014 z "},"ș":{"ha":631,"x_min":44,"x_max":575,"o":"m 324 -14 q 156 22 231 -14 q 44 133 82 58 l 157 214 q 224 143 178 168 q 324 118 271 118 q 394 137 364 118 q 424 192 424 156 q 401 242 424 222 q 317 281 379 261 l 256 297 q 118 377 164 322 q 74 510 72 432 q 93 592 74 556 q 146 655 113 629 q 224 694 179 681 q 322 708 269 708 q 461 678 401 708 q 557 590 521 649 l 451 510 q 395 561 428 542 q 319 581 363 581 q 256 564 285 581 q 226 515 226 547 q 242 469 226 490 q 310 433 258 449 l 381 413 q 524 336 472 385 q 575 201 575 288 q 556 112 575 151 q 503 44 536 72 q 424 1 469 15 q 324 -14 378 -14 m 282 -297 q 233 -260 251 -286 q 214 -200 214 -233 q 244 -128 214 -158 q 315 -99 274 -99 q 388 -128 358 -99 q 418 -200 418 -158 q 407 -244 418 -224 q 381 -289 396 -265 l 306 -408 l 233 -408 l 282 -297 z "},"ť":{"ha":608,"x_min":18,"x_max":596,"o":"m 432 -7 q 338 7 382 -7 q 260 49 293 21 q 209 122 228 78 q 190 224 190 165 l 190 558 l 18 558 l 18 694 l 190 694 l 190 896 l 343 896 l 343 694 l 556 694 l 556 558 l 343 558 l 343 249 q 373 157 343 183 q 451 131 403 131 q 509 138 483 131 q 550 156 535 146 l 596 28 q 528 5 572 17 q 432 -7 485 -7 m 413 986 l 565 986 l 486 760 l 382 760 l 413 986 z "},"ţ":{"ha":608,"x_min":18,"x_max":596,"o":"m 432 -7 q 338 7 382 -7 q 260 49 293 21 q 209 122 228 78 q 190 224 190 165 l 190 558 l 18 558 l 18 694 l 190 694 l 190 896 l 343 896 l 343 694 l 556 694 l 556 558 l 343 558 l 343 249 q 373 157 343 183 q 451 131 403 131 q 509 138 483 131 q 550 156 535 146 l 596 28 q 528 5 572 17 q 432 -7 485 -7 m 361 -297 q 312 -260 331 -286 q 293 -200 293 -233 q 323 -128 293 -158 q 394 -99 353 -99 q 467 -128 438 -99 q 497 -200 497 -158 q 486 -244 497 -224 q 460 -289 475 -265 l 385 -408 l 313 -408 l 361 -297 z "},"ț":{"ha":608,"x_min":18,"x_max":596,"o":"m 432 -7 q 338 7 382 -7 q 260 49 293 21 q 209 122 228 78 q 190 224 190 165 l 190 558 l 18 558 l 18 694 l 190 694 l 190 896 l 343 896 l 343 694 l 556 694 l 556 558 l 343 558 l 343 249 q 373 157 343 183 q 451 131 403 131 q 509 138 483 131 q 550 156 535 146 l 596 28 q 528 5 572 17 q 432 -7 485 -7 m 361 -297 q 312 -260 331 -286 q 293 -200 293 -233 q 323 -128 293 -158 q 394 -99 353 -99 q 467 -128 438 -99 q 497 -200 497 -158 q 486 -244 497 -224 q 460 -289 475 -265 l 385 -408 l 313 -408 l 361 -297 z "},"ŭ":{"ha":810,"x_min":93,"x_max":707,"o":"m 707 0 l 554 0 l 554 72 q 467 7 519 28 q 363 -14 415 -14 q 251 7 301 -14 q 166 66 201 28 q 112 158 131 104 q 93 279 93 213 l 93 694 l 246 694 l 246 304 q 285 173 246 221 q 396 125 324 125 q 490 156 449 125 q 554 235 532 186 l 554 694 l 707 694 l 707 0 m 400 771 q 310 787 353 771 q 237 833 268 803 q 188 906 206 864 q 169 1001 169 949 l 169 1014 l 264 1014 l 264 1001 q 303 900 264 935 q 400 865 343 865 q 497 900 457 865 q 536 1001 536 935 l 536 1014 l 631 1014 l 631 1001 q 613 906 631 949 q 563 833 594 864 q 490 787 532 803 q 400 771 447 771 z "},"ű":{"ha":810,"x_min":93,"x_max":725,"o":"m 707 0 l 554 0 l 554 72 q 467 7 519 28 q 363 -14 415 -14 q 251 7 301 -14 q 166 66 201 28 q 112 158 131 104 q 93 279 93 213 l 93 694 l 246 694 l 246 304 q 285 173 246 221 q 396 125 324 125 q 490 156 449 125 q 554 235 532 186 l 554 694 l 707 694 l 707 0 m 311 1014 l 481 1014 l 342 788 l 236 788 l 311 1014 m 556 1014 l 725 1014 l 586 788 l 481 788 l 556 1014 z "},"ū":{"ha":810,"x_min":93,"x_max":707,"o":"m 707 0 l 554 0 l 554 72 q 467 7 519 28 q 363 -14 415 -14 q 251 7 301 -14 q 166 66 201 28 q 112 158 131 104 q 93 279 93 213 l 93 694 l 246 694 l 246 304 q 285 173 246 221 q 396 125 324 125 q 490 156 449 125 q 554 235 532 186 l 554 694 l 707 694 l 707 0 m 169 986 l 631 986 l 631 872 l 169 872 l 169 986 z "},"ų":{"ha":810,"x_min":93,"x_max":728,"o":"m 707 0 l 554 0 l 554 72 q 467 7 519 28 q 363 -14 415 -14 q 251 7 301 -14 q 166 66 201 28 q 112 158 131 104 q 93 279 93 213 l 93 694 l 246 694 l 246 304 q 285 173 246 221 q 396 125 324 125 q 490 156 449 125 q 554 235 532 186 l 554 694 l 707 694 l 707 0 m 600 -283 q 498 -249 536 -283 q 460 -161 460 -215 q 488 -70 460 -108 q 554 0 515 -32 l 707 0 q 622 -63 651 -32 q 593 -128 593 -94 q 607 -161 593 -151 q 639 -171 621 -171 q 683 -158 660 -171 l 728 -244 q 669 -273 703 -262 q 600 -283 636 -283 z "},"ů":{"ha":810,"x_min":93,"x_max":707,"o":"m 707 0 l 554 0 l 554 72 q 467 7 519 28 q 363 -14 415 -14 q 251 7 301 -14 q 166 66 201 28 q 112 158 131 104 q 93 279 93 213 l 93 694 l 246 694 l 246 304 q 285 173 246 221 q 396 125 324 125 q 490 156 449 125 q 554 235 532 186 l 554 694 l 707 694 l 707 0 m 401 818 q 329 848 360 818 q 299 921 299 878 q 329 992 299 963 q 401 1022 360 1022 q 474 992 444 1022 q 503 921 503 963 q 474 848 503 878 q 401 818 444 818 z "},"ũ":{"ha":810,"x_min":93,"x_max":707,"o":"m 707 0 l 554 0 l 554 72 q 467 7 519 28 q 363 -14 415 -14 q 251 7 301 -14 q 166 66 201 28 q 112 158 131 104 q 93 279 93 213 l 93 694 l 246 694 l 246 304 q 285 173 246 221 q 396 125 324 125 q 490 156 449 125 q 554 235 532 186 l 554 694 l 707 694 l 707 0 m 154 840 q 208 944 165 907 q 308 982 251 982 q 363 972 338 982 q 412 951 389 963 q 453 929 435 939 q 489 919 472 919 q 528 935 514 919 q 550 983 542 951 l 650 983 l 644 953 q 590 848 633 886 q 490 810 547 810 q 435 819 461 810 q 387 841 410 829 q 345 863 364 853 q 310 872 326 872 q 271 857 285 872 q 249 810 257 842 l 149 810 l 154 840 z "},"ụ":{"ha":810,"x_min":93,"x_max":707,"o":"m 707 0 l 554 0 l 554 72 q 467 7 519 28 q 363 -14 415 -14 q 251 7 301 -14 q 166 66 201 28 q 112 158 131 104 q 93 279 93 213 l 93 694 l 246 694 l 246 304 q 285 173 246 221 q 396 125 324 125 q 490 156 449 125 q 554 235 532 186 l 554 694 l 707 694 l 707 0 m 403 -301 q 331 -272 361 -301 q 301 -199 301 -242 q 331 -127 301 -157 q 403 -97 361 -97 q 476 -127 446 -97 q 506 -199 506 -157 q 476 -272 506 -242 q 403 -301 446 -301 z "},"ẃ":{"ha":1083,"x_min":13,"x_max":1072,"o":"m 542 449 l 390 0 l 246 0 l 13 694 l 174 694 l 324 215 l 483 694 l 600 694 l 757 215 l 910 694 l 1072 694 l 839 0 l 694 0 l 542 449 m 599 1014 l 782 1014 l 599 788 l 481 788 l 599 1014 z "},"ŵ":{"ha":1083,"x_min":13,"x_max":1072,"o":"m 542 449 l 390 0 l 246 0 l 13 694 l 174 694 l 324 215 l 483 694 l 600 694 l 757 215 l 910 694 l 1072 694 l 839 0 l 694 0 l 542 449 m 472 1014 l 614 1014 l 790 803 l 646 803 l 543 917 l 440 803 l 296 803 l 472 1014 z "},"ẅ":{"ha":1083,"x_min":13,"x_max":1072,"o":"m 542 449 l 390 0 l 246 0 l 13 694 l 174 694 l 324 215 l 483 694 l 600 694 l 757 215 l 910 694 l 1072 694 l 839 0 l 694 0 l 542 449 m 701 818 q 630 848 660 818 q 600 921 600 878 q 630 992 600 963 q 701 1022 660 1022 q 774 992 744 1022 q 804 921 804 963 q 774 848 804 878 q 701 818 744 818 m 383 818 q 312 848 342 818 q 282 921 282 878 q 312 992 282 963 q 383 1022 342 1022 q 456 992 426 1022 q 486 921 486 963 q 456 848 486 878 q 383 818 426 818 z "},"ẁ":{"ha":1083,"x_min":13,"x_max":1072,"o":"m 542 449 l 390 0 l 246 0 l 13 694 l 174 694 l 324 215 l 483 694 l 600 694 l 757 215 l 910 694 l 1072 694 l 839 0 l 694 0 l 542 449 m 486 788 l 303 1014 l 486 1014 l 604 788 l 486 788 z "},"ŷ":{"ha":775,"x_min":7,"x_max":771,"o":"m 167 -269 l 306 38 l 7 694 l 175 694 l 388 203 l 601 694 l 771 694 l 335 -269 l 167 -269 m 319 1014 l 461 1014 l 638 803 l 493 803 l 390 917 l 288 803 l 143 803 l 319 1014 z "},"ỳ":{"ha":775,"x_min":7,"x_max":771,"o":"m 167 -269 l 306 38 l 7 694 l 175 694 l 388 203 l 601 694 l 771 694 l 335 -269 l 167 -269 m 333 788 l 150 1014 l 333 1014 l 451 788 l 333 788 z "},"ȳ":{"ha":775,"x_min":7,"x_max":771,"o":"m 167 -269 l 306 38 l 7 694 l 175 694 l 388 203 l 601 694 l 771 694 l 335 -269 l 167 -269 m 160 986 l 621 986 l 621 872 l 160 872 l 160 986 z "},"ź":{"ha":681,"x_min":56,"x_max":628,"o":"m 56 121 l 419 556 l 61 556 l 61 694 l 617 694 l 617 572 l 253 139 l 628 139 l 628 0 l 56 0 l 56 121 m 394 1014 l 578 1014 l 394 788 l 276 788 l 394 1014 z "},"ž":{"ha":681,"x_min":56,"x_max":628,"o":"m 56 121 l 419 556 l 61 556 l 61 694 l 617 694 l 617 572 l 253 139 l 628 139 l 628 0 l 56 0 l 56 121 m 236 1014 l 339 900 l 442 1014 l 586 1014 l 410 803 l 268 803 l 92 1014 l 236 1014 z "},"ż":{"ha":681,"x_min":56,"x_max":628,"o":"m 56 121 l 419 556 l 61 556 l 61 694 l 617 694 l 617 572 l 253 139 l 628 139 l 628 0 l 56 0 l 56 121 m 339 818 q 267 848 297 818 q 238 921 238 878 q 267 992 238 963 q 339 1022 297 1022 q 412 992 382 1022 q 442 921 442 963 q 412 848 442 878 q 339 818 382 818 z "},"А":{"ha":1014,"x_min":6,"x_max":1008,"o":"m 436 986 l 578 986 l 1008 0 l 839 0 l 726 258 l 285 258 l 174 0 l 6 0 l 436 986 m 347 403 l 664 403 l 506 767 l 347 403 z "},"Б":{"ha":875,"x_min":121,"x_max":832,"o":"m 497 596 q 631 575 569 596 q 736 516 692 554 q 806 422 781 478 q 832 297 832 367 q 806 174 832 229 q 736 81 781 119 q 631 21 692 42 q 497 0 569 0 l 121 0 l 121 986 l 743 986 l 743 831 l 285 831 l 285 596 l 497 596 m 671 297 q 625 408 671 369 q 496 446 579 446 l 285 446 l 285 151 l 496 151 q 625 189 579 151 q 671 297 671 226 z "},"В":{"ha":876,"x_min":121,"x_max":822,"o":"m 121 986 l 461 986 q 582 965 528 986 q 674 906 636 943 q 734 819 713 868 q 756 714 756 769 q 730 601 756 647 q 664 524 704 554 q 777 438 732 496 q 822 289 822 381 q 799 175 822 228 q 733 83 775 122 q 633 22 692 44 q 504 0 575 0 l 121 0 l 121 986 m 500 149 q 622 188 579 149 q 664 290 664 228 q 622 392 664 351 q 500 432 579 432 l 283 432 l 283 149 l 500 149 m 453 571 q 558 609 519 571 q 596 704 596 647 q 558 798 596 758 q 453 838 519 838 l 283 838 l 283 571 l 453 571 z "},"Г":{"ha":718,"x_min":121,"x_max":690,"o":"m 690 831 l 285 831 l 285 0 l 121 0 l 121 986 l 690 986 l 690 831 z "},"Д":{"ha":1064,"x_min":43,"x_max":1017,"o":"m 868 0 l 192 0 l 192 -206 l 43 -206 l 43 156 l 61 156 q 109 169 86 156 q 149 218 132 183 q 177 313 167 253 q 188 468 188 374 l 188 986 l 892 986 l 892 156 l 1017 156 l 1017 -206 l 868 -206 l 868 0 m 351 449 q 336 269 351 336 q 293 156 321 201 l 729 156 l 729 831 l 351 831 l 351 449 z "},"Е":{"ha":781,"x_min":121,"x_max":714,"o":"m 121 986 l 714 986 l 714 831 l 283 831 l 283 578 l 631 578 l 631 422 l 283 422 l 283 156 l 714 156 l 714 0 l 121 0 l 121 986 z "},"Ж":{"ha":1378,"x_min":-18,"x_max":1396,"o":"m 769 438 l 769 0 l 607 0 l 607 436 l 190 0 l -18 0 l 450 494 l 24 986 l 219 986 l 607 539 l 607 986 l 769 986 l 769 539 l 1158 986 l 1354 986 l 926 494 l 1396 0 l 1188 0 l 769 438 z "},"З":{"ha":797,"x_min":26,"x_max":735,"o":"m 63 882 q 386 1003 192 1003 q 510 984 453 1003 q 610 931 568 965 q 675 847 651 897 q 699 735 699 797 q 673 614 699 671 q 588 519 647 557 q 698 422 661 483 q 735 282 735 360 q 707 156 735 211 q 631 62 679 100 q 520 3 583 24 q 386 -17 457 -17 q 183 24 278 -17 q 26 150 89 65 l 144 251 q 249 166 186 196 q 385 136 313 136 q 526 181 476 136 q 575 293 575 226 q 530 398 575 357 q 393 439 485 439 l 256 439 l 256 578 l 389 578 q 502 617 464 578 q 540 714 540 656 q 499 813 540 775 q 374 853 457 851 q 156 769 247 853 l 63 882 z "},"И":{"ha":1101,"x_min":121,"x_max":981,"o":"m 121 0 l 121 986 l 285 986 l 285 278 l 839 986 l 981 986 l 981 0 l 818 0 l 818 710 l 263 0 l 121 0 z "},"К":{"ha":947,"x_min":121,"x_max":981,"o":"m 282 461 l 282 0 l 121 0 l 121 986 l 282 986 l 282 561 l 678 986 l 883 986 l 444 514 l 981 0 l 761 0 l 282 461 z "},"Л":{"ha":1024,"x_min":14,"x_max":903,"o":"m 197 986 l 903 986 l 903 0 l 739 0 l 739 831 l 361 831 l 361 292 q 343 153 361 211 q 292 57 325 94 q 215 1 260 19 q 118 -17 171 -17 q 60 -13 86 -17 q 14 -4 35 -10 l 42 140 q 67 136 54 138 q 96 135 81 135 q 140 142 121 135 q 172 170 160 150 q 191 225 185 190 q 197 313 197 260 l 197 986 z "},"М":{"ha":1229,"x_min":121,"x_max":1107,"o":"m 121 986 l 269 986 l 614 435 l 958 986 l 1107 986 l 1107 0 l 944 0 l 944 674 l 671 235 l 560 235 l 283 675 l 283 0 l 121 0 l 121 986 z "},"Н":{"ha":1056,"x_min":121,"x_max":933,"o":"m 121 986 l 283 986 l 283 578 l 771 578 l 771 986 l 933 986 l 933 0 l 771 0 l 771 424 l 283 424 l 283 0 l 121 0 l 121 986 z "},"О":{"ha":1135,"x_min":58,"x_max":1078,"o":"m 568 140 q 703 168 640 140 q 813 244 767 196 q 886 356 860 292 q 913 493 913 419 q 886 631 913 567 q 813 742 860 694 q 703 818 767 790 q 568 846 640 846 q 431 818 494 846 q 322 742 368 790 q 249 631 275 694 q 222 493 222 567 q 249 356 222 419 q 322 244 275 292 q 431 168 368 196 q 568 140 494 140 m 568 -17 q 369 23 461 -17 q 207 131 276 63 q 98 293 138 200 q 58 493 58 386 q 98 693 58 600 q 207 855 138 786 q 369 963 276 924 q 568 1003 461 1003 q 767 963 674 1003 q 928 855 860 924 q 1038 693 997 786 q 1078 493 1078 600 q 1038 293 1078 386 q 928 131 997 200 q 767 23 860 63 q 568 -17 674 -17 z "},"П":{"ha":1038,"x_min":121,"x_max":917,"o":"m 756 831 l 282 831 l 282 0 l 121 0 l 121 986 l 917 986 l 917 0 l 756 0 l 756 831 z "},"Р":{"ha":817,"x_min":121,"x_max":776,"o":"m 776 664 q 751 537 776 596 q 681 435 726 478 q 574 367 636 392 q 435 342 511 342 l 283 342 l 283 0 l 121 0 l 121 986 l 435 986 q 574 961 511 986 q 681 893 636 936 q 751 791 726 850 q 776 664 776 732 m 617 664 q 569 785 617 736 q 433 833 521 833 l 283 833 l 283 494 l 433 494 q 569 543 521 494 q 617 664 617 592 z "},"С":{"ha":1047,"x_min":58,"x_max":1013,"o":"m 568 -17 q 369 23 461 -17 q 207 131 276 63 q 98 293 138 200 q 58 493 58 386 q 98 693 58 600 q 207 855 138 786 q 369 963 276 924 q 568 1003 461 1003 q 830 935 714 1003 q 1013 753 946 867 l 872 672 q 747 799 824 751 q 568 846 671 846 q 431 818 494 846 q 322 742 368 790 q 249 631 275 694 q 222 493 222 567 q 249 356 222 419 q 322 244 275 292 q 431 168 368 196 q 568 140 494 140 q 747 188 671 140 q 872 314 824 235 l 1013 233 q 830 51 946 119 q 568 -17 714 -17 z "},"Т":{"ha":788,"x_min":26,"x_max":763,"o":"m 313 831 l 26 831 l 26 986 l 763 986 l 763 831 l 475 831 l 475 0 l 313 0 l 313 831 z "},"У":{"ha":986,"x_min":39,"x_max":992,"o":"m 200 146 q 237 140 218 143 q 281 138 256 138 q 360 158 326 138 q 424 239 393 179 l 39 986 l 225 986 l 517 418 l 810 986 l 992 986 l 594 219 q 463 40 532 96 q 294 -17 394 -17 q 226 -14 254 -17 q 169 -4 197 -11 l 200 146 z "},"Ф":{"ha":1225,"x_min":54,"x_max":1172,"o":"m 532 763 l 526 763 q 294 691 368 764 q 219 499 219 618 q 238 390 219 439 q 293 306 256 340 q 389 252 331 271 q 526 233 447 233 l 532 233 l 532 763 m 700 910 q 896 882 808 910 q 1044 801 983 854 q 1139 672 1106 749 q 1172 499 1172 596 q 1139 323 1172 400 q 1044 193 1106 246 q 896 113 983 140 q 700 85 808 85 l 694 85 l 694 -42 l 532 -42 l 532 85 l 526 85 q 331 113 418 85 q 182 193 243 140 q 88 323 121 246 q 54 499 54 400 q 88 672 54 596 q 182 801 121 749 q 331 882 243 854 q 526 910 418 910 l 532 910 l 532 1028 l 694 1028 l 694 910 l 700 910 m 700 233 q 838 252 779 233 q 933 306 896 271 q 989 390 971 340 q 1007 499 1007 439 q 933 691 1007 618 q 700 763 858 764 l 694 763 l 694 233 l 700 233 z "},"Х":{"ha":949,"x_min":-1,"x_max":950,"o":"m -1 0 l 375 500 l 17 986 l 208 986 l 474 626 l 740 986 l 932 986 l 574 499 l 950 0 l 756 0 l 475 369 l 194 0 l -1 0 z "},"Ц":{"ha":1063,"x_min":121,"x_max":1015,"o":"m 1015 156 l 1015 -206 l 865 -206 l 865 0 l 121 0 l 121 986 l 285 986 l 285 156 l 726 156 l 726 986 l 890 986 l 890 156 l 1015 156 z "},"Ч":{"ha":954,"x_min":63,"x_max":833,"o":"m 669 0 l 669 397 q 552 368 618 379 q 408 357 486 357 q 270 378 333 357 q 160 440 207 400 q 88 538 114 481 q 63 669 63 596 l 63 986 l 226 986 l 226 703 q 242 613 226 650 q 287 554 258 576 q 353 522 315 532 q 435 513 390 513 q 558 522 497 513 q 669 553 619 532 l 669 986 l 833 986 l 833 0 l 669 0 z "},"Ш":{"ha":1365,"x_min":121,"x_max":1244,"o":"m 121 986 l 285 986 l 285 156 l 601 156 l 601 986 l 764 986 l 764 156 l 1081 156 l 1081 986 l 1244 986 l 1244 0 l 121 0 l 121 986 z "},"Щ":{"ha":1417,"x_min":121,"x_max":1369,"o":"m 1219 0 l 121 0 l 121 986 l 285 986 l 285 156 l 601 156 l 601 986 l 764 986 l 764 156 l 1081 156 l 1081 986 l 1244 986 l 1244 156 l 1369 156 l 1369 -206 l 1219 -206 l 1219 0 z "},"Ъ":{"ha":1000,"x_min":26,"x_max":957,"o":"m 619 610 q 757 588 694 610 q 864 525 819 565 q 933 428 908 485 q 957 304 957 372 q 933 181 957 238 q 864 85 908 125 q 757 22 819 44 q 619 0 694 0 l 282 0 l 282 831 l 26 831 l 26 986 l 446 986 l 446 610 l 619 610 m 617 151 q 749 190 701 151 q 796 304 796 229 q 749 419 796 379 q 617 458 701 458 l 446 458 l 446 151 l 617 151 z "},"Ы":{"ha":1213,"x_min":121,"x_max":1090,"o":"m 458 610 q 596 588 533 610 q 703 525 658 565 q 772 428 747 485 q 796 304 796 372 q 772 181 796 238 q 703 85 747 125 q 596 22 658 44 q 458 0 533 0 l 121 0 l 121 986 l 285 986 l 285 610 l 458 610 m 456 151 q 588 190 540 151 q 635 304 635 229 q 588 419 635 379 q 456 458 540 458 l 285 458 l 285 151 l 456 151 m 928 986 l 1090 986 l 1090 0 l 928 0 l 928 986 z "},"Ь":{"ha":839,"x_min":121,"x_max":796,"o":"m 458 610 q 596 588 533 610 q 703 525 658 565 q 772 428 747 485 q 796 304 796 372 q 772 181 796 238 q 703 85 747 125 q 596 22 658 44 q 458 0 533 0 l 121 0 l 121 986 l 285 986 l 285 610 l 458 610 m 456 151 q 588 190 540 151 q 635 304 635 229 q 588 419 635 379 q 456 458 540 458 l 285 458 l 285 151 l 456 151 z "},"Э":{"ha":1050,"x_min":38,"x_max":992,"o":"m 482 -18 q 681 22 589 -18 q 843 130 774 61 q 952 292 913 199 q 992 492 992 385 q 952 692 992 599 q 843 853 913 785 q 681 962 774 922 q 482 1001 589 1001 q 220 933 336 1001 q 38 751 104 865 l 178 671 q 303 798 226 750 q 482 846 379 846 q 601 825 546 846 q 701 767 657 804 q 776 680 746 731 q 819 569 807 629 l 354 569 l 354 422 l 822 422 q 781 309 811 361 q 706 219 750 257 q 604 160 661 182 q 482 139 547 139 q 303 186 379 139 q 178 313 226 233 l 38 232 q 220 50 104 118 q 482 -18 336 -18 z "},"Ю":{"ha":1489,"x_min":121,"x_max":1431,"o":"m 121 986 l 285 986 l 285 575 l 447 575 q 503 747 461 668 q 610 882 546 825 q 758 971 675 939 q 936 1003 842 1003 q 1131 964 1040 1003 q 1288 856 1221 925 q 1392 694 1354 788 q 1431 493 1431 601 q 1392 292 1431 385 q 1288 130 1354 199 q 1131 22 1221 61 q 936 -17 1040 -17 q 756 17 840 -17 q 606 108 671 50 q 499 247 542 167 q 446 424 457 328 l 285 424 l 285 0 l 121 0 l 121 986 m 1265 493 q 1240 634 1265 569 q 1172 746 1215 699 q 1067 819 1128 793 q 936 846 1007 846 q 804 819 865 846 q 699 746 743 793 q 631 634 656 699 q 606 493 606 569 q 631 352 606 417 q 699 240 656 288 q 804 167 743 193 q 936 140 865 140 q 1067 167 1007 140 q 1172 240 1128 193 q 1240 352 1215 288 q 1265 493 1265 417 z "},"Я":{"ha":886,"x_min":-19,"x_max":765,"o":"m 603 374 l 504 374 l 179 0 l -19 0 l 325 399 q 172 504 229 429 q 115 681 115 579 q 138 803 115 747 q 205 900 161 860 q 310 963 249 940 q 450 986 372 986 l 765 986 l 765 0 l 603 0 l 603 374 m 276 681 q 323 565 276 608 q 453 522 369 522 l 603 522 l 603 836 l 453 836 q 323 794 369 836 q 276 681 276 751 z "},"Ѕ":{"ha":781,"x_min":44,"x_max":726,"o":"m 396 -17 q 282 -3 336 -17 q 183 33 228 10 q 102 88 138 56 q 44 161 67 121 l 172 263 q 270 169 211 203 q 401 136 329 136 q 516 169 471 136 q 561 258 561 203 q 526 347 561 311 q 421 408 492 382 l 313 447 q 137 557 194 490 q 79 725 79 624 q 103 841 79 789 q 171 928 128 893 q 272 983 214 964 q 400 1003 331 1003 q 568 968 492 1003 q 699 868 644 933 l 586 758 q 503 826 549 803 q 399 850 457 850 q 339 842 367 850 q 290 820 311 835 q 256 784 268 806 q 243 736 243 763 q 280 652 243 682 q 393 594 317 622 l 493 557 q 665 448 603 517 q 725 268 726 379 q 701 151 725 203 q 633 61 676 99 q 528 3 589 24 q 396 -17 468 -17 z "},"Є":{"ha":1050,"x_min":58,"x_max":1013,"o":"m 568 -18 q 369 22 461 -18 q 207 130 276 61 q 98 292 138 199 q 58 492 58 385 q 98 692 58 599 q 207 853 138 785 q 369 962 276 922 q 568 1001 461 1001 q 830 933 714 1001 q 1013 751 946 865 l 872 671 q 747 798 824 750 q 568 846 671 846 q 449 825 504 846 q 349 767 393 804 q 274 680 304 731 q 231 569 243 629 l 696 569 l 696 422 l 228 422 q 269 309 239 361 q 344 219 300 257 q 446 160 389 182 q 568 139 503 139 q 747 186 671 139 q 872 313 824 233 l 1013 232 q 830 50 946 118 q 568 -18 714 -18 z "},"І":{"ha":404,"x_min":121,"x_max":283,"o":"m 121 986 l 283 986 l 283 0 l 121 0 l 121 986 z "},"Ј":{"ha":651,"x_min":4,"x_max":539,"o":"m 253 -17 q 101 15 163 -17 q 4 86 40 46 l 103 203 q 167 153 132 171 q 249 135 201 135 q 341 167 306 135 q 376 278 376 200 l 376 986 l 539 986 l 539 269 q 516 141 539 194 q 454 52 493 88 q 363 0 415 17 q 253 -17 311 -17 z "},"Џ":{"ha":1021,"x_min":121,"x_max":899,"o":"m 586 -206 l 436 -206 l 436 0 l 121 0 l 121 986 l 285 986 l 285 156 l 736 156 l 736 986 l 899 986 l 899 0 l 586 0 l 586 -206 z "},"Љ":{"ha":1442,"x_min":14,"x_max":1399,"o":"m 1239 293 q 1194 390 1239 356 q 1061 425 1149 425 l 896 425 l 896 153 l 1061 153 q 1194 188 1149 153 q 1239 293 1239 222 m 896 986 l 896 578 l 1063 578 q 1203 556 1142 578 q 1309 497 1265 535 q 1376 408 1353 460 q 1399 296 1399 357 q 1374 178 1399 232 q 1306 84 1350 124 q 1201 22 1263 44 q 1063 0 1139 0 l 732 0 l 732 831 l 361 831 l 361 292 q 343 153 361 211 q 292 57 325 94 q 215 1 260 19 q 118 -17 171 -17 q 60 -13 86 -17 q 14 -4 35 -10 l 42 140 q 67 136 54 138 q 96 135 81 135 q 140 142 121 135 q 172 170 160 150 q 191 225 185 190 q 197 313 197 260 l 197 986 l 896 986 z "},"Њ":{"ha":1450,"x_min":121,"x_max":1408,"o":"m 121 986 l 285 986 l 285 578 l 749 578 l 749 986 l 911 986 l 911 578 l 1072 578 q 1213 556 1151 578 q 1319 497 1275 535 q 1385 408 1363 460 q 1408 296 1408 357 q 1384 178 1408 232 q 1316 84 1360 124 q 1210 22 1272 44 q 1072 0 1149 0 l 749 0 l 749 424 l 285 424 l 285 0 l 121 0 l 121 986 m 911 425 l 911 153 l 1069 153 q 1247 293 1247 153 q 1202 390 1247 356 q 1069 425 1157 425 l 911 425 z "},"Ђ":{"ha":1054,"x_min":26,"x_max":1010,"o":"m 682 617 q 827 592 765 617 q 930 522 889 567 q 990 418 971 478 q 1010 288 1010 358 q 984 152 1010 210 q 915 57 958 94 q 814 1 871 19 q 694 -17 757 -17 q 624 -13 654 -17 q 567 -3 593 -10 l 592 144 q 640 136 619 139 q 689 133 661 133 q 749 142 719 133 q 800 170 778 151 q 835 217 822 189 q 849 286 849 246 q 803 415 849 368 q 657 463 758 463 q 538 451 590 463 q 432 421 485 440 l 432 0 l 269 0 l 269 831 l 26 831 l 26 986 l 738 986 l 738 831 l 432 831 l 432 575 q 549 606 489 594 q 682 617 608 617 z "},"Ћ":{"ha":1069,"x_min":26,"x_max":1007,"o":"m 26 831 l 26 986 l 738 986 l 738 831 l 432 831 l 432 575 q 549 606 489 594 q 685 617 610 617 q 816 594 757 617 q 917 532 875 572 q 983 436 960 492 q 1007 313 1007 381 l 1007 0 l 844 0 l 844 278 q 796 416 844 371 q 663 461 747 461 q 542 450 600 461 q 432 419 485 439 l 432 0 l 269 0 l 269 831 l 26 831 z "},"Ѵ":{"ha":1083,"x_min":8,"x_max":1078,"o":"m 493 249 l 718 786 q 769 890 743 849 q 826 957 796 932 q 890 992 856 982 q 968 1003 925 1003 q 1028 998 1000 1003 q 1078 986 1057 993 l 1039 839 q 983 844 1007 846 q 941 831 960 843 q 906 794 922 819 q 872 729 889 769 l 565 0 l 424 0 l 8 986 l 188 986 l 493 249 z "},"Ү":{"ha":946,"x_min":18,"x_max":929,"o":"m 392 417 l 18 986 l 208 986 l 472 578 l 738 986 l 929 986 l 554 415 l 554 0 l 392 0 l 392 417 z "},"Һ":{"ha":954,"x_min":121,"x_max":892,"o":"m 285 986 l 285 589 q 402 618 336 607 q 546 629 468 629 q 684 608 621 629 q 794 546 747 586 q 866 448 840 506 q 892 317 892 390 l 892 0 l 728 0 l 728 283 q 712 373 728 336 q 667 432 696 410 q 601 464 639 454 q 519 474 564 474 q 396 464 457 474 q 285 433 335 454 l 285 0 l 121 0 l 121 986 l 285 986 z "},"Ӏ":{"ha":404,"x_min":121,"x_max":283,"o":"m 121 986 l 283 986 l 283 0 l 121 0 l 121 986 z "},"Ә":{"ha":1125,"x_min":47,"x_max":1067,"o":"m 47 568 l 893 568 q 847 688 881 636 q 766 775 813 740 q 664 828 719 810 q 553 846 608 846 q 398 815 469 846 q 279 733 326 785 l 169 844 q 340 960 239 917 q 557 1003 440 1003 q 754 964 661 1003 q 917 856 847 925 q 1026 694 986 788 q 1067 493 1067 601 q 1027 293 1067 386 q 919 131 988 200 q 757 23 850 63 q 557 -17 664 -17 q 356 23 449 -17 q 194 131 263 63 q 86 293 125 200 q 47 493 47 386 l 47 568 m 557 140 q 672 159 615 140 q 774 214 728 178 q 852 303 819 250 q 896 424 885 356 l 218 424 q 256 310 226 363 q 331 221 286 258 q 433 162 375 183 q 557 140 492 140 z "},"Ѣ":{"ha":1015,"x_min":39,"x_max":965,"o":"m 629 596 q 767 574 704 596 q 873 513 829 553 q 941 419 917 474 q 965 297 965 364 q 941 177 965 232 q 873 83 917 122 q 767 22 829 43 q 629 0 704 0 l 292 0 l 292 729 l 39 729 l 39 869 l 292 869 l 292 986 l 454 986 l 454 869 l 763 869 l 763 729 l 454 729 l 454 596 l 629 596 m 625 151 q 758 188 710 151 q 806 297 806 225 q 758 407 806 369 q 625 444 710 444 l 454 444 l 454 151 l 625 151 z "},"Й":{"ha":1101,"x_min":121,"x_max":981,"o":"m 121 0 l 121 986 l 285 986 l 285 278 l 839 986 l 981 986 l 981 0 l 818 0 l 818 710 l 263 0 l 121 0 m 564 1049 q 474 1065 517 1049 q 401 1110 432 1081 q 351 1183 369 1140 q 333 1279 333 1226 l 440 1279 q 474 1181 440 1217 q 564 1144 507 1144 q 654 1181 621 1144 q 688 1279 688 1217 l 794 1279 q 776 1183 794 1226 q 727 1110 758 1140 q 653 1065 696 1081 q 564 1049 611 1049 z "},"Ё":{"ha":781,"x_min":121,"x_max":714,"o":"m 121 986 l 714 986 l 714 831 l 283 831 l 283 578 l 631 578 l 631 422 l 283 422 l 283 156 l 714 156 l 714 0 l 121 0 l 121 986 m 589 1074 q 517 1103 547 1074 q 488 1176 488 1133 q 517 1248 488 1218 q 589 1278 547 1278 q 662 1248 632 1278 q 692 1176 692 1218 q 662 1103 692 1133 q 589 1074 632 1074 m 243 1074 q 172 1103 201 1074 q 142 1176 142 1133 q 172 1248 142 1218 q 243 1278 201 1278 q 316 1248 286 1278 q 346 1176 346 1218 q 316 1103 346 1133 q 243 1074 286 1074 z "},"Ќ":{"ha":947,"x_min":121,"x_max":981,"o":"m 282 461 l 282 0 l 121 0 l 121 986 l 282 986 l 282 561 l 678 986 l 883 986 l 444 514 l 981 0 l 761 0 l 282 461 m 528 1257 l 708 1257 l 543 1067 l 424 1067 l 528 1257 z "},"Ґ":{"ha":718,"x_min":121,"x_max":690,"o":"m 690 831 l 285 831 l 285 0 l 121 0 l 121 986 l 690 986 l 690 831 m 540 986 l 540 1192 l 690 1192 l 690 986 l 540 986 z "},"Ѓ":{"ha":718,"x_min":121,"x_max":690,"o":"m 690 831 l 285 831 l 285 0 l 121 0 l 121 986 l 690 986 l 690 831 m 454 1257 l 635 1257 l 469 1067 l 350 1067 l 454 1257 z "},"Ў":{"ha":986,"x_min":39,"x_max":992,"o":"m 200 146 q 237 140 218 143 q 281 138 256 138 q 360 158 326 138 q 424 239 393 179 l 39 986 l 225 986 l 517 418 l 810 986 l 992 986 l 594 219 q 463 40 532 96 q 294 -17 394 -17 q 226 -14 254 -17 q 169 -4 197 -11 l 200 146 m 518 1049 q 428 1065 471 1049 q 355 1110 386 1081 q 306 1183 324 1140 q 288 1279 288 1226 l 394 1279 q 428 1181 394 1217 q 518 1144 461 1144 q 608 1181 575 1144 q 642 1279 642 1217 l 749 1279 q 731 1183 749 1226 q 681 1110 713 1140 q 608 1065 650 1081 q 518 1049 565 1049 z "},"Ї":{"ha":404,"x_min":-33,"x_max":438,"o":"m 121 986 l 283 986 l 283 0 l 121 0 l 121 986 m 336 1074 q 264 1103 294 1074 q 233 1176 233 1133 q 264 1248 233 1218 q 336 1278 294 1278 q 408 1248 379 1278 q 438 1176 438 1218 q 408 1103 438 1133 q 336 1074 379 1074 m 69 1074 q -3 1103 28 1074 q -33 1176 -33 1133 q -3 1248 -33 1218 q 69 1278 28 1278 q 142 1248 113 1278 q 171 1176 171 1218 q 142 1103 171 1133 q 69 1074 113 1074 z "},"Ѳ":{"ha":1135,"x_min":58,"x_max":1078,"o":"m 568 140 q 703 168 640 140 q 813 244 767 196 q 886 356 860 292 q 913 493 913 419 q 886 631 913 567 q 813 742 860 694 q 703 818 767 790 q 568 846 640 846 q 431 818 494 846 q 322 742 368 790 q 249 631 275 694 q 222 493 222 567 q 249 356 222 419 q 322 244 275 292 q 431 168 368 196 q 568 140 494 140 m 568 -17 q 369 23 461 -17 q 207 131 276 63 q 98 293 138 200 q 58 493 58 386 q 98 693 58 600 q 207 855 138 786 q 369 963 276 924 q 568 1003 461 1003 q 767 963 674 1003 q 928 855 860 924 q 1038 693 997 786 q 1078 493 1078 600 q 1038 293 1078 386 q 928 131 997 200 q 767 23 860 63 q 568 -17 674 -17 m 724 538 q 828 553 776 538 q 921 597 881 569 l 921 453 q 828 409 881 425 q 724 393 775 393 q 641 402 681 393 q 563 423 601 411 q 488 444 525 435 q 411 453 450 453 q 306 437 358 453 q 213 393 253 421 l 213 538 q 306 581 253 565 q 411 597 358 597 q 501 588 461 597 q 576 567 540 579 q 647 547 611 556 q 724 538 682 538 z "},"Ө":{"ha":1135,"x_min":58,"x_max":1078,"o":"m 568 140 q 703 168 640 140 q 813 244 767 196 q 886 356 860 292 q 913 493 913 419 q 886 631 913 567 q 813 742 860 694 q 703 818 767 790 q 568 846 640 846 q 431 818 494 846 q 322 742 368 790 q 249 631 275 694 q 222 493 222 567 q 249 356 222 419 q 322 244 275 292 q 431 168 368 196 q 568 140 494 140 m 568 -17 q 369 23 461 -17 q 207 131 276 63 q 98 293 138 200 q 58 493 58 386 q 98 693 58 600 q 207 855 138 786 q 369 963 276 924 q 568 1003 461 1003 q 767 963 674 1003 q 928 855 860 924 q 1038 693 997 786 q 1078 493 1078 600 q 1038 293 1078 386 q 928 131 997 200 q 767 23 860 63 q 568 -17 674 -17 m 136 567 l 997 567 l 997 419 l 136 419 l 136 567 z "},"Ғ":{"ha":753,"x_min":28,"x_max":722,"o":"m 722 831 l 317 831 l 317 0 l 153 0 l 153 986 l 722 986 l 722 831 m 28 569 l 554 569 l 554 422 l 28 422 l 28 569 z "},"Ұ":{"ha":939,"x_min":15,"x_max":926,"o":"m 389 417 l 15 986 l 206 986 l 469 578 l 735 986 l 926 986 l 551 415 l 551 0 l 389 0 l 389 417 m 760 269 l 176 269 l 176 417 l 760 417 l 760 269 z "},"Ӣ":{"ha":1101,"x_min":121,"x_max":981,"o":"m 121 0 l 121 986 l 285 986 l 285 278 l 839 986 l 981 986 l 981 0 l 818 0 l 818 710 l 263 0 l 121 0 m 333 1222 l 794 1222 l 794 1108 l 333 1108 l 333 1222 z "},"Ӯ":{"ha":986,"x_min":39,"x_max":992,"o":"m 200 146 q 237 140 218 143 q 281 138 256 138 q 360 158 326 138 q 424 239 393 179 l 39 986 l 225 986 l 517 418 l 810 986 l 992 986 l 594 219 q 463 40 532 96 q 294 -17 394 -17 q 226 -14 254 -17 q 169 -4 197 -11 l 200 146 m 288 1222 l 749 1222 l 749 1108 l 288 1108 l 288 1222 z "},"Җ":{"ha":1413,"x_min":-18,"x_max":1406,"o":"m 769 438 l 769 0 l 607 0 l 607 436 l 190 0 l -18 0 l 450 494 l 24 986 l 219 986 l 607 539 l 607 986 l 769 986 l 769 539 l 1158 986 l 1354 986 l 926 494 l 1396 0 l 1188 0 l 769 438 m 1256 0 l 1219 0 l 1219 156 l 1406 156 l 1406 -206 l 1256 -206 l 1256 0 z "},"Қ":{"ha":982,"x_min":121,"x_max":985,"o":"m 282 461 l 282 0 l 121 0 l 121 986 l 282 986 l 282 561 l 678 986 l 883 986 l 444 514 l 981 0 l 761 0 l 282 461 m 835 0 l 799 0 l 799 156 l 985 156 l 985 -206 l 835 -206 l 835 0 z "},"Ң":{"ha":1107,"x_min":121,"x_max":1061,"o":"m 121 986 l 283 986 l 283 578 l 771 578 l 771 986 l 933 986 l 933 0 l 771 0 l 771 424 l 283 424 l 283 0 l 121 0 l 121 986 m 911 0 l 875 0 l 875 156 l 1061 156 l 1061 -206 l 911 -206 l 911 0 z "},"Ҳ":{"ha":1001,"x_min":-1,"x_max":993,"o":"m -1 0 l 375 500 l 17 986 l 208 986 l 474 626 l 740 986 l 932 986 l 574 499 l 950 0 l 756 0 l 475 369 l 194 0 l -1 0 m 843 0 l 807 0 l 807 156 l 993 156 l 993 -206 l 843 -206 l 843 0 z "},"Ҷ":{"ha":1006,"x_min":63,"x_max":960,"o":"m 669 0 l 669 397 q 552 368 618 379 q 408 357 486 357 q 270 378 333 357 q 160 440 207 400 q 88 538 114 481 q 63 669 63 596 l 63 986 l 226 986 l 226 703 q 242 613 226 650 q 287 554 258 576 q 353 522 315 532 q 435 513 390 513 q 558 522 497 513 q 669 553 619 532 l 669 986 l 833 986 l 833 0 l 669 0 m 810 0 l 774 0 l 774 156 l 960 156 l 960 -206 l 810 -206 l 810 0 z "},"а":{"ha":860,"x_min":54,"x_max":756,"o":"m 400 -14 q 259 15 322 -14 q 150 94 196 44 q 79 208 104 143 q 54 347 54 274 q 79 486 54 421 q 150 601 104 551 q 259 679 196 650 q 400 708 322 708 q 515 688 463 708 q 603 631 567 668 l 603 694 l 756 694 l 756 0 l 603 0 l 603 65 q 515 6 567 26 q 400 -14 463 -14 m 418 125 q 530 153 485 125 q 603 222 575 181 l 603 474 q 530 542 575 514 q 418 569 485 569 q 334 552 372 569 q 269 504 296 535 q 226 433 242 474 q 211 347 211 393 q 226 261 211 301 q 269 190 242 221 q 334 142 296 160 q 418 125 372 125 z "},"б":{"ha":856,"x_min":78,"x_max":803,"o":"m 439 -14 q 286 15 353 -14 q 173 98 219 44 q 102 227 126 151 q 78 394 78 303 l 78 450 q 103 678 78 582 q 178 839 128 774 q 305 943 229 904 q 482 1001 381 982 l 708 1043 l 733 901 l 515 863 q 315 774 379 838 q 235 588 250 710 q 340 664 281 640 q 464 688 400 688 q 606 660 543 688 q 712 588 668 633 q 779 480 756 542 q 803 350 803 418 q 775 208 803 274 q 699 92 747 142 q 583 15 650 43 q 439 -14 517 -14 m 438 128 q 522 143 483 128 q 588 188 560 158 q 631 257 615 217 q 647 347 647 297 q 632 428 647 390 q 589 492 617 465 q 523 535 561 519 q 439 551 485 551 q 353 535 392 551 q 288 491 315 519 q 246 426 261 463 q 231 347 231 389 q 246 257 231 297 q 289 188 261 217 q 354 143 317 158 q 438 128 392 128 z "},"в":{"ha":764,"x_min":103,"x_max":711,"o":"m 103 694 l 419 694 q 528 678 482 694 q 606 635 575 663 q 651 572 636 608 q 667 496 667 536 q 610 369 667 421 q 685 300 658 343 q 711 206 711 257 q 697 128 711 165 q 653 63 683 92 q 575 17 622 35 q 460 0 528 0 l 103 0 l 103 694 m 458 129 q 531 151 503 129 q 558 215 558 174 q 531 281 558 258 q 458 303 503 303 l 256 303 l 256 129 l 458 129 m 425 414 q 485 431 457 414 q 514 493 514 449 q 485 554 514 538 q 425 571 457 571 l 256 571 l 256 414 l 425 414 z "},"г":{"ha":582,"x_min":103,"x_max":558,"o":"m 103 694 l 558 694 l 558 558 l 256 558 l 256 0 l 103 0 l 103 694 z "},"д":{"ha":886,"x_min":43,"x_max":840,"o":"m 61 136 q 99 145 82 136 q 131 177 117 154 q 152 240 144 200 q 160 340 160 279 l 160 694 l 732 694 l 732 136 l 840 136 l 840 -174 l 701 -174 l 701 0 l 183 0 l 183 -174 l 43 -174 l 43 136 l 61 136 m 313 325 q 310 259 313 288 q 301 208 307 231 q 289 169 296 186 q 272 136 282 151 l 579 136 l 579 558 l 313 558 l 313 325 z "},"е":{"ha":806,"x_min":54,"x_max":751,"o":"m 417 -14 q 271 13 338 -14 q 156 87 204 39 q 81 201 108 135 q 54 347 54 268 q 81 490 54 424 q 156 604 108 556 q 271 681 204 653 q 417 708 338 708 q 546 686 485 708 q 653 620 607 664 q 725 512 699 576 q 751 364 751 447 q 751 342 751 353 q 750 314 751 331 l 204 314 q 224 236 207 271 q 270 176 242 201 q 337 138 299 151 q 418 125 375 125 q 540 155 492 125 q 617 231 589 185 l 733 147 q 606 29 686 72 q 417 -14 526 -14 m 597 425 q 531 540 585 500 q 411 579 478 579 q 345 569 378 579 q 285 540 313 560 q 239 492 258 521 q 211 425 219 464 l 597 425 z "},"ж":{"ha":1111,"x_min":-10,"x_max":1121,"o":"m 632 296 l 632 0 l 479 0 l 479 297 l 185 0 l -10 0 l 339 353 l 38 694 l 219 694 l 479 397 l 479 694 l 632 694 l 632 399 l 890 694 l 1072 694 l 772 353 l 1121 0 l 926 0 l 632 296 z "},"з":{"ha":663,"x_min":31,"x_max":607,"o":"m 321 -14 q 154 22 228 -14 q 31 128 81 57 l 138 204 q 210 139 165 164 q 311 114 254 114 q 419 142 386 114 q 453 210 453 169 q 423 278 453 254 q 326 303 393 303 l 225 303 l 225 415 l 324 415 q 405 436 376 415 q 433 499 433 457 q 403 562 433 539 q 315 585 372 585 q 224 564 267 585 q 150 507 182 543 l 56 589 q 172 678 104 647 q 322 708 239 708 q 438 691 389 708 q 517 646 486 674 q 564 583 549 618 q 579 511 579 547 q 561 431 579 468 q 503 367 543 393 q 580 297 553 342 q 607 199 607 251 q 590 120 607 158 q 537 52 572 82 q 447 4 501 22 q 321 -14 393 -14 z "},"и":{"ha":849,"x_min":103,"x_max":746,"o":"m 103 0 l 103 694 l 256 694 l 256 232 l 610 694 l 746 694 l 746 0 l 593 0 l 593 463 l 239 0 l 103 0 z "},"к":{"ha":746,"x_min":103,"x_max":765,"o":"m 256 296 l 256 0 l 103 0 l 103 694 l 256 694 l 256 397 l 529 694 l 715 694 l 401 353 l 765 0 l 563 0 l 256 296 z "},"л":{"ha":825,"x_min":17,"x_max":722,"o":"m 101 -11 q 53 -8 74 -11 q 17 -3 32 -6 l 36 126 q 54 124 46 125 q 74 124 63 124 q 135 150 113 124 q 157 253 157 176 l 157 694 l 722 694 l 722 0 l 569 0 l 569 558 l 310 558 l 310 229 q 293 122 310 167 q 248 47 276 76 q 181 3 219 17 q 101 -11 143 -11 z "},"м":{"ha":961,"x_min":103,"x_max":858,"o":"m 236 694 l 481 329 l 725 694 l 858 694 l 858 0 l 706 0 l 706 436 l 529 171 l 432 171 l 256 436 l 256 0 l 103 0 l 103 694 l 236 694 z "},"н":{"ha":846,"x_min":103,"x_max":743,"o":"m 103 694 l 256 694 l 256 419 l 590 419 l 590 694 l 743 694 l 743 0 l 590 0 l 590 283 l 256 283 l 256 0 l 103 0 l 103 694 z "},"о":{"ha":832,"x_min":53,"x_max":781,"o":"m 417 -14 q 273 14 339 -14 q 158 91 207 42 q 81 206 108 140 q 53 347 53 272 q 81 488 53 422 q 158 603 108 554 q 273 681 207 653 q 417 708 339 708 q 560 681 493 708 q 676 603 626 653 q 753 488 725 554 q 781 347 781 422 q 753 206 781 272 q 676 91 725 140 q 560 14 626 42 q 417 -14 493 -14 m 417 128 q 501 144 463 128 q 567 191 539 161 q 610 261 594 221 q 625 347 625 301 q 610 433 625 393 q 567 503 594 474 q 501 550 539 533 q 417 567 463 567 q 332 550 371 567 q 265 503 293 533 q 222 433 238 474 q 207 347 207 393 q 222 261 207 301 q 265 191 238 221 q 332 144 293 161 q 417 128 371 128 z "},"п":{"ha":832,"x_min":103,"x_max":729,"o":"m 103 694 l 729 694 l 729 0 l 576 0 l 576 558 l 256 558 l 256 0 l 103 0 l 103 694 z "},"р":{"ha":860,"x_min":103,"x_max":806,"o":"m 103 694 l 256 694 l 256 631 q 344 688 292 668 q 458 708 396 708 q 600 679 536 708 q 710 601 664 650 q 781 486 756 551 q 806 347 806 421 q 781 208 806 274 q 710 94 756 143 q 600 15 664 44 q 458 -14 536 -14 q 344 6 396 -14 q 256 65 292 26 l 256 -269 l 103 -269 l 103 694 m 442 125 q 526 142 488 125 q 591 190 564 160 q 633 261 618 221 q 649 347 649 301 q 633 433 649 393 q 591 504 618 474 q 526 552 564 535 q 442 569 488 569 q 328 542 374 569 q 256 474 283 514 l 256 222 q 328 153 283 181 q 442 125 374 125 z "},"с":{"ha":781,"x_min":53,"x_max":743,"o":"m 419 -14 q 274 14 342 -14 q 158 90 207 42 q 81 203 108 138 q 53 347 53 269 q 81 490 53 424 q 158 605 108 557 q 274 681 207 653 q 419 708 342 708 q 613 656 528 708 q 743 517 699 604 l 610 444 q 535 532 585 497 q 419 567 486 567 q 335 550 374 567 q 267 503 296 533 q 224 433 239 474 q 208 347 208 393 q 224 261 208 301 q 267 191 239 221 q 335 144 296 161 q 419 128 374 128 q 535 163 486 128 q 610 250 585 197 l 743 178 q 613 38 699 90 q 419 -14 528 -14 z "},"т":{"ha":628,"x_min":24,"x_max":603,"o":"m 232 558 l 24 558 l 24 694 l 603 694 l 603 558 l 385 558 l 385 0 l 232 0 l 232 558 z "},"у":{"ha":775,"x_min":7,"x_max":771,"o":"m 422 -79 q 374 -167 399 -131 q 319 -228 349 -204 q 253 -265 289 -253 q 171 -276 217 -276 q 69 -265 111 -276 l 94 -133 q 124 -139 110 -137 q 157 -140 138 -140 q 219 -119 192 -140 q 274 -39 246 -97 l 307 35 l 7 694 l 175 694 l 393 213 l 601 694 l 771 694 l 422 -79 z "},"ф":{"ha":1038,"x_min":53,"x_max":985,"o":"m 443 -269 l 443 -14 l 432 -14 q 270 15 340 -14 q 151 94 200 44 q 78 210 103 144 q 53 347 53 275 q 78 485 53 419 q 151 600 103 550 q 270 679 200 650 q 432 708 340 708 l 443 708 l 443 1014 l 596 1014 l 596 708 l 607 708 q 768 679 697 708 q 887 600 839 650 q 960 485 935 550 q 985 347 985 419 q 960 210 985 275 q 887 94 935 144 q 768 15 839 44 q 607 -14 697 -14 l 596 -14 l 596 -269 l 443 -269 m 596 568 l 596 126 l 607 126 q 701 144 660 126 q 772 191 743 161 q 815 261 800 221 q 831 347 831 301 q 815 433 831 393 q 771 503 800 474 q 700 551 742 533 q 607 568 658 568 l 596 568 m 443 568 l 432 568 q 338 551 379 568 q 267 503 296 533 q 224 433 239 474 q 208 347 208 393 q 223 261 208 301 q 266 191 238 221 q 336 144 294 161 q 432 126 378 126 l 443 126 l 443 568 z "},"х":{"ha":760,"x_min":7,"x_max":753,"o":"m 381 235 l 193 0 l 7 0 l 283 346 l 22 694 l 204 694 l 379 461 l 554 694 l 738 694 l 476 346 l 753 0 l 568 0 l 381 235 z "},"ц":{"ha":879,"x_min":103,"x_max":836,"o":"m 836 -174 l 697 -174 l 697 0 l 103 0 l 103 694 l 256 694 l 256 136 l 574 136 l 574 694 l 726 694 l 726 136 l 836 136 l 836 -174 z "},"ч":{"ha":768,"x_min":53,"x_max":665,"o":"m 513 0 l 513 267 q 421 236 474 247 q 318 225 368 225 q 214 240 263 225 q 130 286 165 256 q 74 363 94 317 q 53 471 53 410 l 53 694 l 206 694 l 206 488 q 217 427 206 451 q 249 388 229 403 q 296 367 269 374 q 351 361 322 361 q 433 372 389 361 q 513 404 476 382 l 513 694 l 665 694 l 665 0 l 513 0 z "},"ш":{"ha":1146,"x_min":103,"x_max":1043,"o":"m 103 694 l 256 694 l 256 136 l 497 136 l 497 694 l 650 694 l 650 136 l 890 136 l 890 694 l 1043 694 l 1043 0 l 103 0 l 103 694 z "},"щ":{"ha":1199,"x_min":103,"x_max":1154,"o":"m 1154 -174 l 1014 -174 l 1014 0 l 103 0 l 103 694 l 256 694 l 256 136 l 497 136 l 497 694 l 650 694 l 650 136 l 890 136 l 890 694 l 1043 694 l 1043 136 l 1154 136 l 1154 -174 z "},"ъ":{"ha":803,"x_min":25,"x_max":764,"o":"m 210 560 l 25 560 l 25 694 l 363 694 l 363 465 l 508 465 q 625 444 576 465 q 705 389 674 422 q 750 315 736 356 q 764 235 764 274 q 749 153 764 194 q 704 77 735 111 q 625 22 674 43 q 508 0 576 0 l 210 0 l 210 560 m 363 135 l 496 135 q 585 160 554 135 q 617 233 617 186 q 585 306 617 282 q 496 331 554 331 l 363 331 l 363 135 z "},"ы":{"ha":1014,"x_min":103,"x_max":911,"o":"m 758 694 l 911 694 l 911 0 l 758 0 l 758 694 m 103 694 l 256 694 l 256 465 l 401 465 q 518 444 469 465 q 598 389 567 422 q 643 315 629 356 q 657 235 657 274 q 642 153 657 194 q 597 77 628 111 q 518 22 567 43 q 401 0 469 0 l 103 0 l 103 694 m 256 135 l 389 135 q 478 160 447 135 q 510 233 510 186 q 478 306 510 282 q 389 331 447 331 l 256 331 l 256 135 z "},"ь":{"ha":696,"x_min":103,"x_max":657,"o":"m 103 694 l 256 694 l 256 465 l 401 465 q 518 444 469 465 q 598 389 567 422 q 643 315 629 356 q 657 235 657 274 q 642 153 657 194 q 597 77 628 111 q 518 22 567 43 q 401 0 469 0 l 103 0 l 103 694 m 256 135 l 389 135 q 478 160 447 135 q 510 233 510 186 q 478 306 510 282 q 389 331 447 331 l 256 331 l 256 135 z "},"э":{"ha":782,"x_min":39,"x_max":729,"o":"m 363 -14 q 508 14 440 -14 q 624 90 575 42 q 701 203 674 138 q 729 347 729 269 q 701 490 729 424 q 624 605 674 557 q 508 681 575 653 q 363 708 440 708 q 169 656 254 708 q 39 517 83 604 l 172 444 q 247 532 197 497 q 363 567 296 567 q 494 523 440 567 q 567 410 547 479 l 288 410 l 288 299 l 569 299 q 499 176 554 224 q 363 128 443 128 q 247 163 296 128 q 172 250 197 197 l 39 178 q 169 38 83 90 q 363 -14 254 -14 z "},"ю":{"ha":1128,"x_min":103,"x_max":1074,"o":"m 724 -14 q 597 9 656 -14 q 493 72 539 32 q 417 165 447 111 q 376 283 386 219 l 256 283 l 256 0 l 103 0 l 103 694 l 256 694 l 256 418 l 378 418 q 419 534 389 481 q 495 626 450 588 q 599 686 540 664 q 724 708 657 708 q 864 681 800 708 q 974 603 928 653 q 1047 488 1021 554 q 1074 347 1074 422 q 1047 206 1074 272 q 974 91 1021 140 q 864 14 928 42 q 724 -14 800 -14 m 724 129 q 803 146 767 129 q 865 192 839 163 q 906 260 892 221 q 919 347 919 300 q 906 434 919 394 q 865 503 892 474 q 803 549 839 532 q 724 565 767 565 q 644 549 679 565 q 582 503 608 532 q 542 434 556 474 q 528 347 528 394 q 542 261 528 301 q 582 192 556 221 q 644 146 608 163 q 724 129 679 129 z "},"я":{"ha":739,"x_min":-10,"x_max":636,"o":"m 250 267 q 140 344 179 292 q 101 468 101 397 q 118 557 101 515 q 167 629 135 599 q 246 677 199 660 q 356 694 293 694 l 636 694 l 636 0 l 483 0 l 483 238 l 406 238 l 171 0 l -10 0 l 250 267 m 483 365 l 483 565 l 364 565 q 278 538 307 565 q 249 463 249 511 q 281 390 249 415 q 364 365 313 365 l 483 365 z "},"ѕ":{"ha":632,"x_min":46,"x_max":576,"o":"m 324 -14 q 157 22 232 -14 q 46 133 82 58 l 158 214 q 225 143 179 168 q 325 118 271 118 q 395 137 365 118 q 425 192 425 156 q 403 242 425 222 q 317 281 381 261 l 256 297 q 119 377 165 322 q 75 510 74 432 q 94 592 75 556 q 147 655 114 629 q 226 694 181 681 q 324 708 271 708 q 462 678 403 708 q 558 590 521 649 l 451 510 q 396 561 428 542 q 319 581 364 581 q 256 564 285 581 q 226 515 226 547 q 243 469 226 490 q 310 433 260 449 l 382 413 q 525 336 474 385 q 576 201 576 288 q 557 112 576 151 q 504 44 538 72 q 424 1 471 15 q 324 -14 378 -14 z "},"є":{"ha":782,"x_min":53,"x_max":743,"o":"m 419 -14 q 274 14 342 -14 q 158 90 207 42 q 81 203 108 138 q 53 347 53 269 q 81 490 53 424 q 158 605 108 557 q 274 681 207 653 q 419 708 342 708 q 613 656 528 708 q 743 517 699 604 l 610 444 q 535 532 585 497 q 419 567 486 567 q 288 523 342 567 q 215 410 235 479 l 494 410 l 494 299 l 213 299 q 283 176 228 224 q 419 128 339 128 q 535 163 486 128 q 610 250 585 197 l 743 178 q 613 38 699 90 q 419 -14 528 -14 z "},"і":{"ha":358,"x_min":78,"x_max":282,"o":"m 179 818 q 108 848 138 818 q 78 921 78 878 q 108 992 78 963 q 179 1022 138 1022 q 252 992 222 1022 q 282 921 282 963 q 252 848 282 878 q 179 818 222 818 m 103 694 l 256 694 l 256 0 l 103 0 l 103 694 z "},"ј":{"ha":369,"x_min":-89,"x_max":293,"o":"m 42 -276 q -33 -269 6 -276 q -89 -253 -72 -261 l -54 -125 q -19 -137 -39 -132 q 24 -142 0 -142 q 88 -115 63 -142 q 114 -24 114 -89 l 114 694 l 267 694 l 267 -46 q 249 -147 267 -104 q 200 -219 231 -190 q 128 -262 169 -249 q 42 -276 88 -276 m 190 818 q 119 848 149 818 q 89 921 89 878 q 119 992 89 963 q 190 1022 149 1022 q 263 992 233 1022 q 293 921 293 963 q 263 848 293 878 q 190 818 233 818 z "},"џ":{"ha":836,"x_min":103,"x_max":733,"o":"m 489 0 l 489 -174 l 349 -174 l 349 0 l 103 0 l 103 694 l 256 694 l 256 138 l 581 138 l 581 694 l 733 694 l 733 0 l 489 0 z "},"љ":{"ha":1140,"x_min":17,"x_max":1101,"o":"m 715 132 l 857 132 q 928 152 901 132 q 954 208 954 172 q 928 267 954 247 q 857 288 901 288 l 715 288 l 715 132 m 715 694 l 715 419 l 868 419 q 974 401 929 419 q 1047 352 1018 382 q 1088 285 1075 322 q 1101 213 1101 249 q 1088 138 1101 176 q 1047 69 1075 100 q 974 19 1018 39 q 868 0 929 0 l 563 0 l 563 558 l 310 558 l 310 229 q 293 122 310 167 q 248 47 276 76 q 181 3 219 17 q 101 -11 143 -11 q 53 -8 74 -11 q 17 -3 32 -6 l 36 126 q 54 124 46 125 q 74 124 63 124 q 135 150 113 124 q 157 253 157 176 l 157 694 l 715 694 z "},"њ":{"ha":1154,"x_min":103,"x_max":1117,"o":"m 968 208 q 942 267 968 247 q 872 288 917 288 l 729 288 l 729 132 l 872 132 q 942 152 917 132 q 968 208 968 172 m 1117 213 q 1103 138 1117 176 q 1060 69 1089 100 q 988 19 1032 39 q 882 0 943 0 l 576 0 l 576 283 l 256 283 l 256 0 l 103 0 l 103 694 l 256 694 l 256 419 l 576 419 l 576 694 l 729 694 l 729 419 l 882 419 q 988 401 943 419 q 1060 352 1032 382 q 1103 285 1089 322 q 1117 213 1117 249 z "},"ђ":{"ha":825,"x_min":-11,"x_max":732,"o":"m 403 -125 q 444 -137 422 -132 q 489 -142 465 -142 q 553 -115 528 -142 q 579 -24 579 -89 l 579 390 q 540 521 579 472 q 425 569 501 569 q 322 539 365 569 q 256 458 278 508 l 256 0 l 103 0 l 103 794 l -11 794 l -11 904 l 103 904 l 103 1014 l 256 1014 l 256 904 l 492 904 l 492 794 l 256 794 l 256 621 q 344 685 292 663 q 458 708 396 708 q 660 628 588 708 q 732 411 732 549 l 732 -46 q 714 -147 732 -104 q 665 -219 696 -190 q 594 -262 635 -249 q 506 -276 553 -276 q 431 -269 469 -276 q 368 -253 392 -262 l 403 -125 z "},"ћ":{"ha":825,"x_min":-11,"x_max":732,"o":"m 579 390 q 540 522 579 474 q 426 569 500 569 q 321 539 364 569 q 256 460 278 508 l 256 0 l 103 0 l 103 794 l -11 794 l -11 904 l 103 904 l 103 1014 l 256 1014 l 256 904 l 492 904 l 492 794 l 256 794 l 256 621 q 344 687 292 665 q 460 708 397 708 q 572 688 522 708 q 658 628 622 667 q 713 536 693 590 q 732 415 732 482 l 732 0 l 579 0 l 579 390 z "},"ї":{"ha":358,"x_min":-56,"x_max":415,"o":"m 103 694 l 256 694 l 256 0 l 103 0 l 103 694 m 314 818 q 242 848 272 818 q 211 921 211 878 q 242 992 211 963 q 314 1022 272 1022 q 386 992 357 1022 q 415 921 415 963 q 386 848 415 878 q 314 818 357 818 m 47 818 q -25 848 6 818 q -56 921 -56 878 q -25 992 -56 963 q 47 1022 6 1022 q 119 992 90 1022 q 149 921 149 963 q 119 848 149 878 q 47 818 90 818 z "},"ѵ":{"ha":833,"x_min":6,"x_max":832,"o":"m 175 694 l 386 207 l 522 518 q 617 666 567 624 q 740 708 667 708 q 794 704 772 708 q 832 694 817 700 l 797 563 q 727 557 753 572 q 678 489 701 542 l 454 0 l 319 0 l 6 694 l 175 694 z "},"ү":{"ha":778,"x_min":6,"x_max":772,"o":"m 313 -1 l 6 694 l 176 694 l 388 189 l 601 694 l 772 694 l 465 -1 l 465 -269 l 313 -269 l 313 -1 z "},"һ":{"ha":825,"x_min":103,"x_max":732,"o":"m 103 0 l 103 1014 l 256 1014 l 256 621 q 344 687 292 665 q 460 708 397 708 q 572 688 522 708 q 658 628 622 667 q 713 536 693 590 q 732 415 732 482 l 732 0 l 579 0 l 579 390 q 540 522 579 474 q 426 569 500 569 q 321 539 364 569 q 256 460 278 508 l 256 0 l 103 0 z "},"ӏ":{"ha":358,"x_min":103,"x_max":256,"o":"m 103 1014 l 256 1014 l 256 0 l 103 0 l 103 1014 z "},"ә":{"ha":806,"x_min":53,"x_max":751,"o":"m 389 708 q 535 681 468 708 q 649 606 601 654 q 724 492 697 558 q 751 347 751 426 q 724 205 751 271 q 649 90 697 139 q 535 14 601 42 q 389 -14 468 -14 q 260 8 321 -14 q 153 74 199 31 q 80 183 107 118 q 53 331 53 247 q 53 353 53 342 q 56 381 53 364 l 600 381 q 535 518 594 467 q 388 569 475 569 q 264 540 313 569 q 188 464 215 510 l 71 547 q 199 665 119 622 q 389 708 279 708 m 393 115 q 459 125 426 115 q 519 154 492 135 q 565 202 546 174 q 593 269 585 231 l 207 269 q 274 155 221 194 q 393 115 326 115 z "},"ѣ":{"ha":771,"x_min":25,"x_max":726,"o":"m 25 694 l 172 694 l 172 1014 l 325 1014 l 325 694 l 583 694 l 583 585 l 325 585 l 325 465 l 471 465 q 588 444 539 465 q 667 389 636 422 q 713 315 699 356 q 726 235 726 274 q 712 153 726 194 q 667 77 697 111 q 588 22 636 43 q 471 0 539 0 l 172 0 l 172 585 l 25 585 l 25 694 m 325 331 l 325 135 l 458 135 q 548 160 517 135 q 579 233 579 186 q 548 306 579 282 q 458 331 517 331 l 325 331 z "},"й":{"ha":849,"x_min":103,"x_max":746,"o":"m 103 0 l 103 694 l 256 694 l 256 232 l 610 694 l 746 694 l 746 0 l 593 0 l 593 463 l 239 0 l 103 0 m 435 771 q 345 787 388 771 q 272 833 303 803 q 222 906 240 864 q 204 1001 204 949 l 204 1014 l 311 1014 l 311 1001 q 344 903 311 940 q 435 867 378 867 q 525 903 492 867 q 558 1001 558 940 l 558 1014 l 665 1014 l 665 1001 q 647 906 665 949 q 598 833 629 864 q 524 787 567 803 q 435 771 482 771 z "},"ё":{"ha":806,"x_min":54,"x_max":751,"o":"m 417 -14 q 271 13 338 -14 q 156 87 204 39 q 81 201 108 135 q 54 347 54 268 q 81 490 54 424 q 156 604 108 556 q 271 681 204 653 q 417 708 338 708 q 546 686 485 708 q 653 620 607 664 q 725 512 699 576 q 751 364 751 447 q 751 342 751 353 q 750 314 751 331 l 204 314 q 224 236 207 271 q 270 176 242 201 q 337 138 299 151 q 418 125 375 125 q 540 155 492 125 q 617 231 589 185 l 733 147 q 606 29 686 72 q 417 -14 526 -14 m 597 425 q 531 540 585 500 q 411 579 478 579 q 345 569 378 579 q 285 540 313 560 q 239 492 258 521 q 211 425 219 464 l 597 425 m 574 818 q 502 848 532 818 q 472 921 472 878 q 502 992 472 963 q 574 1022 532 1022 q 647 992 617 1022 q 676 921 676 963 q 647 848 676 878 q 574 818 617 818 m 256 818 q 184 848 214 818 q 154 921 154 878 q 184 992 154 963 q 256 1022 214 1022 q 328 992 299 1022 q 358 921 358 963 q 328 848 358 878 q 256 818 299 818 z "},"ќ":{"ha":746,"x_min":103,"x_max":765,"o":"m 256 296 l 256 0 l 103 0 l 103 694 l 256 694 l 256 397 l 529 694 l 715 694 l 401 353 l 765 0 l 563 0 l 256 296 m 457 1014 l 640 1014 l 457 788 l 339 788 l 457 1014 z "},"ґ":{"ha":582,"x_min":103,"x_max":558,"o":"m 103 694 l 558 694 l 558 558 l 256 558 l 256 0 l 103 0 l 103 694 m 418 694 l 418 868 l 558 868 l 558 694 l 418 694 z "},"ѓ":{"ha":582,"x_min":103,"x_max":568,"o":"m 103 694 l 558 694 l 558 558 l 256 558 l 256 0 l 103 0 l 103 694 m 385 1014 l 568 1014 l 385 788 l 267 788 l 385 1014 z "},"ў":{"ha":775,"x_min":7,"x_max":771,"o":"m 422 -79 q 374 -167 399 -131 q 319 -228 349 -204 q 253 -265 289 -253 q 171 -276 217 -276 q 69 -265 111 -276 l 94 -133 q 124 -139 110 -137 q 157 -140 138 -140 q 219 -119 192 -140 q 274 -39 246 -97 l 307 35 l 7 694 l 175 694 l 393 213 l 601 694 l 771 694 l 422 -79 m 389 771 q 299 787 342 771 q 226 833 257 803 q 176 906 194 864 q 158 1001 158 949 l 158 1014 l 265 1014 l 265 1001 q 299 903 265 940 q 389 867 332 867 q 479 903 446 867 q 513 1001 513 940 l 513 1014 l 619 1014 l 619 1001 q 601 906 619 949 q 552 833 583 864 q 478 787 521 803 q 389 771 436 771 z "},"ѳ":{"ha":832,"x_min":53,"x_max":781,"o":"m 417 -14 q 273 14 339 -14 q 158 91 207 42 q 81 206 108 140 q 53 347 53 272 q 81 488 53 422 q 158 603 108 554 q 273 681 207 653 q 417 708 339 708 q 560 681 493 708 q 676 603 626 653 q 753 488 725 554 q 781 347 781 422 q 753 206 781 272 q 676 91 725 140 q 560 14 626 42 q 417 -14 493 -14 m 417 128 q 501 144 463 128 q 567 191 539 161 q 610 261 594 221 q 625 347 625 301 q 610 433 625 393 q 567 503 594 474 q 501 550 539 533 q 417 567 463 567 q 332 550 371 567 q 265 503 293 533 q 222 433 238 474 q 207 347 207 393 q 222 261 207 301 q 265 191 238 221 q 332 144 293 161 q 417 128 371 128 m 144 401 l 689 401 l 689 294 l 144 294 l 144 401 z "},"ө":{"ha":832,"x_min":53,"x_max":781,"o":"m 417 -14 q 273 14 339 -14 q 158 91 207 42 q 81 206 108 140 q 53 347 53 272 q 81 488 53 422 q 158 603 108 554 q 273 681 207 653 q 417 708 339 708 q 560 681 493 708 q 676 603 626 653 q 753 488 725 554 q 781 347 781 422 q 753 206 781 272 q 676 91 725 140 q 560 14 626 42 q 417 -14 493 -14 m 417 128 q 501 144 463 128 q 567 191 539 161 q 610 261 594 221 q 625 347 625 301 q 610 433 625 393 q 567 503 594 474 q 501 550 539 533 q 417 567 463 567 q 332 550 371 567 q 265 503 293 533 q 222 433 238 474 q 207 347 207 393 q 222 261 207 301 q 265 191 238 221 q 332 144 293 161 q 417 128 371 128 m 144 401 l 689 401 l 689 294 l 144 294 l 144 401 z "},"ғ":{"ha":617,"x_min":26,"x_max":593,"o":"m 138 694 l 593 694 l 593 558 l 290 558 l 290 0 l 138 0 l 138 694 m 26 294 l 26 406 l 454 406 l 454 294 l 26 294 z "},"ұ":{"ha":778,"x_min":6,"x_max":772,"o":"m 313 -1 l 6 694 l 176 694 l 388 189 l 601 694 l 772 694 l 465 -1 l 465 -269 l 313 -269 l 313 -1 m 129 0 l 650 0 l 650 -111 l 129 -111 l 129 0 z "},"ӣ":{"ha":849,"x_min":103,"x_max":746,"o":"m 103 0 l 103 694 l 256 694 l 256 232 l 610 694 l 746 694 l 746 0 l 593 0 l 593 463 l 239 0 l 103 0 m 204 986 l 665 986 l 665 872 l 204 872 l 204 986 z "},"ӯ":{"ha":775,"x_min":7,"x_max":771,"o":"m 422 -79 q 374 -167 399 -131 q 319 -228 349 -204 q 253 -265 289 -253 q 171 -276 217 -276 q 69 -265 111 -276 l 94 -133 q 124 -139 110 -137 q 157 -140 138 -140 q 219 -119 192 -140 q 274 -39 246 -97 l 307 35 l 7 694 l 175 694 l 393 213 l 601 694 l 771 694 l 422 -79 m 158 986 l 619 986 l 619 872 l 158 872 l 158 986 z "},"җ":{"ha":1140,"x_min":-10,"x_max":1128,"o":"m 632 296 l 632 0 l 479 0 l 479 297 l 185 0 l -10 0 l 339 353 l 38 694 l 219 694 l 479 397 l 479 694 l 632 694 l 632 399 l 890 694 l 1072 694 l 772 353 l 1121 0 l 926 0 l 632 296 m 989 0 l 953 0 l 953 136 l 1128 136 l 1128 -174 l 989 -174 l 989 0 z "},"қ":{"ha":775,"x_min":103,"x_max":771,"o":"m 256 296 l 256 0 l 103 0 l 103 694 l 256 694 l 256 397 l 529 694 l 715 694 l 401 353 l 765 0 l 563 0 l 256 296 m 632 0 l 596 0 l 596 136 l 771 136 l 771 -174 l 632 -174 l 632 0 z "},"ң":{"ha":899,"x_min":103,"x_max":854,"o":"m 103 694 l 256 694 l 256 419 l 590 419 l 590 694 l 743 694 l 743 0 l 590 0 l 590 283 l 256 283 l 256 0 l 103 0 l 103 694 m 715 0 l 679 0 l 679 136 l 854 136 l 854 -174 l 715 -174 l 715 0 z "},"ҳ":{"ha":793,"x_min":7,"x_max":774,"o":"m 381 235 l 193 0 l 7 0 l 283 346 l 22 694 l 204 694 l 379 461 l 554 694 l 738 694 l 476 346 l 753 0 l 568 0 l 381 235 m 635 0 l 599 0 l 599 136 l 774 136 l 774 -174 l 635 -174 l 635 0 z "},"ҷ":{"ha":819,"x_min":53,"x_max":775,"o":"m 513 0 l 513 267 q 421 236 474 247 q 318 225 368 225 q 214 240 263 225 q 130 286 165 256 q 74 363 94 317 q 53 471 53 410 l 53 694 l 206 694 l 206 488 q 217 427 206 451 q 249 388 229 403 q 296 367 269 374 q 351 361 322 361 q 433 372 389 361 q 513 404 476 382 l 513 694 l 665 694 l 665 0 l 513 0 m 636 0 l 600 0 l 600 136 l 775 136 l 775 -174 l 636 -174 l 636 0 z "},"":{"ha":0,"x_min":-231,"x_max":231,"o":"m 0 771 q -90 787 -47 771 q -163 833 -132 803 q -212 906 -194 864 q -231 1001 -231 949 l -231 1014 l -124 1014 l -124 1001 q -90 903 -124 940 q 0 867 -57 867 q 90 903 57 867 q 124 1001 124 940 l 124 1014 l 231 1014 l 231 1001 q 213 906 231 949 q 163 833 194 864 q 90 787 132 803 q 0 771 47 771 z "},"":{"ha":0,"x_min":-231,"x_max":231,"o":"m 0 1049 q -90 1065 -47 1049 q -163 1110 -132 1081 q -212 1183 -194 1140 q -231 1279 -231 1226 l -124 1279 q -90 1181 -124 1217 q 0 1144 -57 1144 q 90 1181 57 1144 q 124 1279 124 1217 l 231 1279 q 213 1183 231 1226 q 163 1110 194 1140 q 90 1065 132 1081 q 0 1049 47 1049 z "},"₽":{"ha":857,"x_min":69,"x_max":814,"o":"m 69 519 l 189 519 l 189 986 l 479 986 q 616 964 554 986 q 722 901 678 942 q 790 805 765 861 q 814 679 814 749 q 790 553 814 610 q 722 457 765 497 q 616 394 678 417 q 479 372 554 372 l 342 372 l 342 268 l 600 268 l 600 190 l 342 190 l 342 0 l 189 0 l 189 190 l 69 190 l 69 268 l 189 268 l 189 372 l 69 372 l 69 519 m 476 519 q 608 562 561 519 q 654 679 654 604 q 608 796 654 754 q 476 838 561 838 l 342 838 l 342 519 l 476 519 z "},"₴":{"ha":863,"x_min":63,"x_max":792,"o":"m 63 456 l 792 456 l 792 378 l 307 378 q 267 330 279 358 q 254 268 254 301 q 303 166 254 206 q 432 126 351 126 q 565 158 506 126 q 665 253 625 190 l 783 161 q 643 33 733 82 q 433 -17 553 -17 q 301 3 361 -17 q 196 60 240 24 q 126 145 151 96 q 101 254 101 194 q 112 323 101 292 q 140 378 122 354 l 63 378 l 63 456 m 63 621 l 544 621 q 596 721 596 656 q 551 822 596 783 q 432 860 507 860 q 233 765 308 860 l 129 868 q 261 968 182 933 q 436 1003 340 1003 q 560 984 503 1003 q 658 931 617 965 q 724 848 700 896 q 747 742 747 800 q 714 621 747 668 l 792 621 l 792 543 l 63 543 l 63 621 z "},"…":{"ha":979,"x_min":63,"x_max":918,"o":"m 164 -11 q 92 19 122 -11 q 63 92 63 49 q 92 163 63 133 q 164 193 122 193 q 237 163 207 193 q 267 92 267 133 q 237 19 267 49 q 164 -11 207 -11 m 489 -11 q 417 19 447 -11 q 388 92 388 49 q 417 163 388 133 q 489 193 447 193 q 562 163 532 193 q 592 92 592 133 q 562 19 592 49 q 489 -11 532 -11 m 815 -11 q 744 19 774 -11 q 714 92 714 49 q 744 163 714 133 q 815 193 774 193 q 888 163 858 193 q 918 92 918 133 q 888 19 918 49 q 815 -11 858 -11 z "},"–":{"ha":799,"x_min":86,"x_max":714,"o":"m 86 464 l 714 464 l 714 314 l 86 314 l 86 464 z "},"—":{"ha":1043,"x_min":86,"x_max":958,"o":"m 86 464 l 958 464 l 958 314 l 86 314 l 86 464 z "},"‹":{"ha":426,"x_min":51,"x_max":361,"o":"m 361 86 l 263 22 l 51 347 l 263 672 l 361 608 l 217 347 l 361 86 z "},"›":{"ha":426,"x_min":65,"x_max":375,"o":"m 210 347 l 65 608 l 164 672 l 375 347 l 164 22 l 65 86 l 210 347 z "},"‘":{"ha":335,"x_min":50,"x_max":310,"o":"m 50 710 q 55 740 50 725 q 67 768 60 756 l 215 1006 l 310 1006 l 207 796 q 241 760 228 782 q 254 710 254 738 q 224 638 254 668 q 153 608 194 608 q 80 638 110 608 q 50 710 50 668 z "},"’":{"ha":335,"x_min":25,"x_max":285,"o":"m 285 921 q 280 890 285 906 q 268 863 275 875 l 119 625 l 25 625 l 128 835 q 94 871 107 849 q 81 921 81 893 q 110 992 81 963 q 182 1022 140 1022 q 255 992 225 1022 q 285 921 285 963 z "},"“":{"ha":588,"x_min":50,"x_max":563,"o":"m 50 710 q 55 740 50 725 q 67 768 60 756 l 215 1006 l 310 1006 l 207 796 q 241 760 228 782 q 254 710 254 738 q 224 638 254 668 q 153 608 194 608 q 80 638 110 608 q 50 710 50 668 m 303 710 q 308 740 303 725 q 319 768 313 756 l 468 1006 l 563 1006 l 460 796 q 494 760 481 782 q 507 710 507 738 q 477 638 507 668 q 406 608 447 608 q 333 638 363 608 q 303 710 303 668 z "},"”":{"ha":588,"x_min":25,"x_max":538,"o":"m 285 921 q 280 890 285 906 q 268 863 275 875 l 119 625 l 25 625 l 128 835 q 94 871 107 849 q 81 921 81 893 q 110 992 81 963 q 182 1022 140 1022 q 255 992 225 1022 q 285 921 285 963 m 538 921 q 533 890 538 906 q 521 863 528 875 l 372 625 l 278 625 l 381 835 q 347 871 360 849 q 333 921 333 893 q 363 992 333 963 q 435 1022 393 1022 q 508 992 478 1022 q 538 921 538 963 z "},"‚":{"ha":332,"x_min":8,"x_max":268,"o":"m 268 92 q 263 61 268 76 q 251 33 258 46 l 103 -204 l 8 -204 l 111 6 q 77 42 90 19 q 64 92 64 64 q 94 163 64 133 q 165 193 124 193 q 238 163 208 193 q 268 92 268 133 z "},"„":{"ha":585,"x_min":8,"x_max":521,"o":"m 268 92 q 263 61 268 76 q 251 33 258 46 l 103 -204 l 8 -204 l 111 6 q 77 42 90 19 q 64 92 64 64 q 94 163 64 133 q 165 193 124 193 q 238 163 208 193 q 268 92 268 133 m 521 92 q 516 61 521 76 q 504 33 511 46 l 356 -204 l 261 -204 l 364 6 q 330 42 343 19 q 317 92 317 64 q 347 163 317 133 q 418 193 376 193 q 491 163 461 193 q 521 92 521 133 z "},"•":{"ha":569,"x_min":96,"x_max":475,"o":"m 285 231 q 212 245 246 231 q 152 285 178 260 q 111 346 126 311 q 96 419 96 381 q 111 493 96 458 q 152 553 126 528 q 212 594 178 579 q 285 608 246 608 q 358 594 324 608 q 419 553 393 579 q 460 493 444 528 q 475 419 475 458 q 460 346 475 381 q 419 285 444 311 q 358 245 393 260 q 285 231 324 231 z "},"−":{"ha":764,"x_min":89,"x_max":675,"o":"m 89 469 l 675 469 l 675 335 l 89 335 l 89 469 z "},"€":{"ha":1082,"x_min":43,"x_max":1031,"o":"m 43 554 l 75 631 l 193 631 q 261 780 215 711 q 371 898 307 849 q 513 975 435 947 q 679 1003 592 1003 q 883 964 796 1003 q 1031 863 971 925 l 929 751 q 824 824 885 796 q 679 853 763 853 q 571 836 622 853 q 478 790 519 819 q 404 720 436 761 q 353 631 372 679 l 861 631 l 829 554 l 332 554 q 328 493 328 522 q 332 435 328 461 l 779 435 l 749 358 l 351 358 q 401 267 369 308 q 476 197 433 226 q 569 150 518 167 q 679 133 621 133 q 824 162 763 133 q 929 235 885 190 l 1031 124 q 883 22 971 61 q 679 -17 796 -17 q 513 11 592 -17 q 369 89 433 39 q 260 208 306 139 q 192 358 214 276 l 43 358 l 75 435 l 178 435 q 175 464 175 450 q 175 493 175 478 q 176 524 175 508 q 178 554 176 539 l 43 554 z "},"ﬁ":{"ha":950,"x_min":22,"x_max":874,"o":"m 186 558 l 22 558 l 22 694 l 186 694 l 186 772 q 203 871 186 825 q 251 950 219 917 q 328 1003 282 983 q 432 1022 374 1022 q 528 1010 489 1022 q 592 985 568 999 l 536 858 q 498 875 521 867 q 446 883 475 883 q 367 852 396 883 q 339 768 339 821 l 339 694 l 575 694 l 575 558 l 339 558 l 339 0 l 186 0 l 186 558 m 694 694 l 847 694 l 847 0 l 694 0 l 694 694 m 771 818 q 699 848 729 818 q 669 921 669 878 q 699 992 669 963 q 771 1022 729 1022 q 844 992 814 1022 q 874 921 874 963 q 844 848 874 878 q 771 818 814 818 z "},"ﬂ":{"ha":950,"x_min":22,"x_max":847,"o":"m 186 558 l 22 558 l 22 694 l 186 694 l 186 772 q 203 871 186 825 q 251 950 219 917 q 328 1003 282 983 q 432 1022 374 1022 q 528 1010 489 1022 q 592 985 568 999 l 536 858 q 498 875 521 867 q 446 883 475 883 q 367 852 396 883 q 339 768 339 821 l 339 694 l 575 694 l 575 558 l 339 558 l 339 0 l 186 0 l 186 558 m 694 1014 l 847 1014 l 847 0 l 694 0 l 694 1014 z "},"˘":{"ha":0,"x_min":-231,"x_max":231,"o":"m 0 771 q -90 787 -47 771 q -163 833 -132 803 q -212 906 -194 864 q -231 1001 -231 949 l -231 1014 l -136 1014 l -136 1001 q -97 900 -136 935 q 0 865 -57 865 q 97 900 57 865 q 136 1001 136 935 l 136 1014 l 231 1014 l 231 1001 q 213 906 231 949 q 163 833 194 864 q 90 787 132 803 q 0 771 47 771 z "},"ˇ":{"ha":0,"x_min":-247,"x_max":247,"o":"m -103 1014 l 0 900 l 103 1014 l 247 1014 l 71 803 l -71 803 l -247 1014 l -103 1014 z "},"ˆ":{"ha":0,"x_min":-247,"x_max":247,"o":"m -71 1014 l 71 1014 l 247 803 l 103 803 l 0 917 l -103 803 l -247 803 l -71 1014 z "},"˙":{"ha":0,"x_min":-101,"x_max":103,"o":"m 0 818 q -72 848 -42 818 q -101 921 -101 878 q -72 992 -101 963 q 0 1022 -42 1022 q 73 992 43 1022 q 103 921 103 963 q 73 848 103 878 q 0 818 43 818 z "},"˝":{"ha":0,"x_min":-244,"x_max":244,"o":"m -169 1014 l 0 1014 l -139 788 l -244 788 l -169 1014 m 75 1014 l 244 1014 l 106 788 l 0 788 l 75 1014 z "},"˛":{"ha":0,"x_min":-135,"x_max":133,"o":"m 6 -283 q -97 -249 -58 -283 q -135 -161 -135 -215 q -107 -70 -135 -108 q -40 0 -79 -32 l 113 0 q 28 -63 57 -32 q -1 -128 -1 -94 q 13 -161 -1 -151 q 44 -171 26 -171 q 89 -158 65 -171 l 133 -244 q 75 -273 108 -262 q 6 -283 42 -283 z "},"˚":{"ha":0,"x_min":-101,"x_max":103,"o":"m 1 818 q -71 848 -40 818 q -101 921 -101 878 q -71 992 -101 963 q 1 1022 -40 1022 q 74 992 44 1022 q 103 921 103 963 q 74 848 103 878 q 1 818 44 818 z "},"˜":{"ha":0,"x_min":-251,"x_max":250,"o":"m -246 840 q -192 944 -235 907 q -92 982 -149 982 q -37 972 -62 982 q 12 951 -11 963 q 53 929 35 939 q 89 919 72 919 q 128 935 114 919 q 150 983 142 951 l 250 983 l 244 953 q 190 848 233 886 q 90 810 147 810 q 35 819 61 810 q -13 841 10 829 q -55 863 -36 853 q -90 872 -74 872 q -129 857 -115 872 q -151 810 -143 842 l -251 810 l -246 840 z "}}}
